<?xml version="1.0" encoding="utf-8"?>
<!-- Generator: Adobe Illustrator 16.0.0, SVG Export Plug-In . SVG Version: 6.00 Build 0)  -->
<!DOCTYPE svg PUBLIC "-//W3C//DTD SVG 1.1//EN" "http://www.w3.org/Graphics/SVG/1.1/DTD/svg11.dtd">
<svg version="1.1" id="Layer_1" xmlns="http://www.w3.org/2000/svg" xmlns:xlink="http://www.w3.org/1999/xlink" x="0px" y="0px"
	 width="535px" height="252px" viewBox="0 0 535 252" enable-background="new 0 0 535 252" xml:space="preserve">
<rect fill="#FFFFFF" width="535.5" height="252"/>
<path fill="#E5E5E5" d="M112.5,65.25c0-1.26,0.99-2.25,2.25-2.25h49.5c1.26,0,2.25,0.99,2.25,2.25v40.5c0,1.26-0.99,2.25-2.25,2.25
	h-49.5c-1.26,0-2.25-0.99-2.25-2.25V65.25z"/>
<path opacity="0" fill="none" stroke="#000000" stroke-width="0.9" stroke-miterlimit="10" d="M112.5,65.25
	c0-1.26,0.99-2.25,2.25-2.25h49.5c1.26,0,2.25,0.99,2.25,2.25v40.5c0,1.26-0.99,2.25-2.25,2.25h-49.5c-1.26,0-2.25-0.99-2.25-2.25
	V65.25z"/>
<path d="M131.261,87.872h0.74v2.5v2.5h-0.74v-0.16v-0.16c0,0-0.78,0.42-1.48,0.42c-1.4,0-1.69-0.64-1.69-2.49v-1.305v-1.305h0.74
	v1.3v1.3c0,1.38,0.12,1.83,1.06,1.83c0.66,0,1.37-0.37,1.37-0.37v-2.03V87.872z"/>
<path d="M137.041,87.961l-0.02,0.65c0,0-1.11-0.16-1.75-0.16c-0.62,0-1.08,0.16-1.08,0.75c0,0.47,0.23,0.61,1.22,0.76
	c1.32,0.21,1.8,0.48,1.8,1.45c0,1.17-0.74,1.56-1.95,1.56c-0.64,0-1.76-0.19-1.76-0.19l0.04-0.65c0,0,1.14,0.17,1.65,0.17
	c0.82,0,1.26-0.18,1.26-0.86c0-0.52-0.26-0.64-1.26-0.8c-1.22-0.19-1.76-0.43-1.76-1.41c0-1.1,0.89-1.46,1.8-1.46
	C135.98,87.771,137.041,87.961,137.041,87.961z"/>
<path d="M139.03,90.081h2.6c0-1.2-0.39-1.64-1.26-1.64C139.51,88.441,139.03,88.912,139.03,90.081z M140.35,92.291
	c0.75,0,1.83-0.09,1.83-0.09l0.02,0.61c0,0-1.13,0.16-1.94,0.16c-1.5,0-1.99-0.87-1.99-2.57c0-1.9,0.83-2.63,2.1-2.63
	c1.51,0,2.19,1.11,1.97,2.92h-3.31C139.041,91.741,139.36,92.291,140.35,92.291z"/>
<path d="M143.71,92.871v-2.5v-2.5h0.75v0.33v0.33c0,0,0.77-0.58,1.74-0.76v0.39v0.39c-0.94,0.18-1.74,0.69-1.74,0.69v1.815v1.815
	H143.71z"/>
<polygon points="147.049,87.662 149.139,86.271 149.869,86.271 149.869,89.571 149.869,92.871 149.099,92.871 149.099,90.011 
	149.099,87.151 147.41,88.281 "/>
<rect x="31.5" y="18" fill="#3B48CC" width="27" height="27"/>
<rect x="31.5" y="18" opacity="0" fill="none" stroke="#FFFFFF" stroke-width="0.9" stroke-miterlimit="10" width="27" height="27"/>
<path fill="#FFFFFF" d="M45.9,36.45h-0.45c-0.18,0-0.36-0.135-0.36-0.36v-8.01c0-0.225,0.18-0.36,0.36-0.36h4.275
	c0.09,0,0.18,0.045,0.27,0.135l1.035,1.305l-0.495,0.45l-0.99-1.17H45.81v7.335h0.09V36.45z"/>
<path opacity="0" fill="none" stroke="#FFFFFF" stroke-width="0.9" stroke-miterlimit="10" d="M45.9,36.45h-0.45
	c-0.18,0-0.36-0.135-0.36-0.36v-8.01c0-0.225,0.18-0.36,0.36-0.36h4.275c0.09,0,0.18,0.045,0.27,0.135l1.035,1.305l-0.495,0.45
	l-0.99-1.17H45.81v7.335h0.09V36.45z"/>
<path fill="#FFFFFF" d="M47.025,37.08h5.13v-6.21l-1.125-1.125h-4.005V37.08z M52.515,37.755h-5.85c-0.18,0-0.36-0.18-0.36-0.36
	v-8.01c0-0.225,0.18-0.36,0.36-0.36h4.5c0.09,0,0.18,0.045,0.225,0.09l1.35,1.35c0.09,0.09,0.09,0.135,0.09,0.27v6.66
	C52.83,37.575,52.695,37.755,52.515,37.755z"/>
<path opacity="0" fill="none" stroke="#FFFFFF" stroke-width="0.9" stroke-miterlimit="10" d="M47.025,37.08h5.13v-6.21
	l-1.125-1.125h-4.005V37.08z M52.515,37.755h-5.85c-0.18,0-0.36-0.18-0.36-0.36v-8.01c0-0.225,0.18-0.36,0.36-0.36h4.5
	c0.09,0,0.18,0.045,0.225,0.09l1.35,1.35c0.09,0.09,0.09,0.135,0.09,0.27v6.66C52.83,37.575,52.695,37.755,52.515,37.755z"/>
<path fill="#FFFFFF" d="M52.515,31.41h-1.71c-0.18,0-0.36-0.135-0.36-0.36v-1.665h0.675v1.305h1.35L52.515,31.41z"/>
<path opacity="0" fill="none" stroke="#FFFFFF" stroke-width="0.9" stroke-miterlimit="10" d="M52.515,31.41h-1.71
	c-0.18,0-0.36-0.135-0.36-0.36v-1.665h0.675v1.305h1.35L52.515,31.41z"/>
<path fill="#FFFFFF" d="M49.275,35.865H49.05c-0.18,0-0.36-0.045-0.45-0.18c-0.18-0.225-0.225-0.495-0.18-0.72
	c0-0.675-0.36-0.765-0.36-0.765c-0.18-0.09-0.27-0.27-0.225-0.45c0.045-0.135,0.135-0.18,0.225-0.225c0.045,0,0.36-0.135,0.36-0.765
	c0-0.36,0.18-0.81,0.585-0.81h0.27v0.675H49.14c0,0.045,0,0.09,0,0.135c0.045,0.405-0.09,0.765-0.36,1.125
	c0.27,0.315,0.405,0.675,0.36,1.08c0,0.045,0,0.045,0,0.09c0,0.045,0,0.09,0,0.135h0.135V35.865z"/>
<path opacity="0" fill="none" stroke="#FFFFFF" stroke-width="0.9" stroke-miterlimit="10" d="M49.275,35.865H49.05
	c-0.18,0-0.36-0.045-0.45-0.18c-0.18-0.225-0.225-0.495-0.18-0.72c0-0.675-0.36-0.765-0.36-0.765c-0.18-0.09-0.27-0.27-0.225-0.45
	c0.045-0.135,0.135-0.18,0.225-0.225c0.045,0,0.36-0.135,0.36-0.765c0-0.36,0.18-0.81,0.585-0.81h0.27v0.675H49.14
	c0,0.045,0,0.09,0,0.135c0.045,0.405-0.09,0.765-0.36,1.125c0.27,0.315,0.405,0.675,0.36,1.08c0,0.045,0,0.045,0,0.09
	c0,0.045,0,0.09,0,0.135h0.135V35.865z"/>
<path fill="#FFFFFF" d="M50.265,35.865V35.19H50.4c0-0.045,0-0.09,0-0.135c-0.045-0.405,0.09-0.765,0.36-1.08
	c-0.27-0.36-0.405-0.72-0.36-1.125c-0.045,0-0.045-0.045,0-0.045c0-0.09,0-0.135,0-0.18h-0.18V31.95h0.225
	c0.18,0,0.36,0.045,0.45,0.18c0.18,0.225,0.225,0.495,0.18,0.72c0,0.63,0.36,0.765,0.36,0.765c0.135,0.045,0.225,0.18,0.225,0.36
	c0,0.18-0.09,0.27-0.27,0.315c0,0-0.36,0.135-0.36,0.765c0,0.405-0.135,0.81-0.585,0.81H50.265z"/>
<path opacity="0" fill="none" stroke="#FFFFFF" stroke-width="0.9" stroke-miterlimit="10" d="M50.265,35.865V35.19H50.4
	c0-0.045,0-0.09,0-0.135c-0.045-0.405,0.09-0.765,0.36-1.08c-0.27-0.36-0.405-0.72-0.36-1.125c-0.045,0-0.045-0.045,0-0.045
	c0-0.09,0-0.135,0-0.18h-0.18V31.95h0.225c0.18,0,0.36,0.045,0.45,0.18c0.18,0.225,0.225,0.495,0.18,0.72
	c0,0.63,0.36,0.765,0.36,0.765c0.135,0.045,0.225,0.18,0.225,0.36c0,0.18-0.09,0.27-0.27,0.315c0,0-0.36,0.135-0.36,0.765
	c0,0.405-0.135,0.81-0.585,0.81H50.265z"/>
<path fill="#FFFFFF" d="M43.11,23.445c-3.105,0-5.265,0.945-5.265,1.8c0,0.9,2.16,1.845,5.265,1.845s5.265-0.945,5.265-1.845
	C48.375,24.39,46.215,23.445,43.11,23.445z M43.11,27.81c-2.88,0-5.94-0.9-5.94-2.52c0-1.665,3.06-2.52,5.94-2.52
	c2.88,0,5.94,0.855,5.94,2.52C49.05,26.91,45.99,27.81,43.11,27.81z"/>
<path opacity="0" fill="none" stroke="#FFFFFF" stroke-width="0.9" stroke-miterlimit="10" d="M43.11,23.445
	c-3.105,0-5.265,0.945-5.265,1.8c0,0.9,2.16,1.845,5.265,1.845s5.265-0.945,5.265-1.845C48.375,24.39,46.215,23.445,43.11,23.445z
	 M43.11,27.81c-2.88,0-5.94-0.9-5.94-2.52c0-1.665,3.06-2.52,5.94-2.52c2.88,0,5.94,0.855,5.94,2.52
	C49.05,26.91,45.99,27.81,43.11,27.81z"/>
<rect x="48.33" y="25.245" fill="#FFFFFF" width="0.72" height="2.205"/>
<rect x="48.33" y="25.245" opacity="0" fill="none" stroke="#FFFFFF" stroke-width="0.9" stroke-miterlimit="10" width="0.72" height="2.205"/>
<path fill="#FFFFFF" d="M43.11,40.275c-2.88,0-5.94-0.9-5.94-2.52v-12.51h0.675V37.71c0,0.9,2.16,1.845,5.265,1.845
	s5.265-0.945,5.265-1.845h0.675C49.05,39.375,45.99,40.275,43.11,40.275z"/>
<path opacity="0" fill="none" stroke="#FFFFFF" stroke-width="0.9" stroke-miterlimit="10" d="M43.11,40.275
	c-2.88,0-5.94-0.9-5.94-2.52v-12.51h0.675V37.71c0,0.9,2.16,1.845,5.265,1.845s5.265-0.945,5.265-1.845h0.675
	C49.05,39.375,45.99,40.275,43.11,40.275z"/>
<path fill="#FFFFFF" d="M43.11,32.13c-3.375,0-5.94-1.08-5.94-2.52h0.72c0,0.9,2.16,1.845,5.22,1.845c0.54,0,1.035,0,1.575-0.09
	l0.045,0.72C44.19,32.13,43.695,32.175,43.11,32.13z"/>
<path opacity="0" fill="none" stroke="#FFFFFF" stroke-width="0.9" stroke-miterlimit="10" d="M43.11,32.13
	c-3.375,0-5.94-1.08-5.94-2.52h0.72c0,0.9,2.16,1.845,5.22,1.845c0.54,0,1.035,0,1.575-0.09l0.045,0.72
	C44.19,32.13,43.695,32.175,43.11,32.13z"/>
<path fill="#FFFFFF" d="M43.11,36.45c-3.375,0-5.94-1.08-5.94-2.52h0.72c0,0.855,2.16,1.8,5.22,1.8c0.54,0.045,0.99,0,1.575-0.045
	l0.045,0.675C44.19,36.405,43.695,36.45,43.11,36.45z"/>
<path opacity="0" fill="none" stroke="#FFFFFF" stroke-width="0.9" stroke-miterlimit="10" d="M43.11,36.45
	c-3.375,0-5.94-1.08-5.94-2.52h0.72c0,0.855,2.16,1.8,5.22,1.8c0.54,0.045,0.99,0,1.575-0.045l0.045,0.675
	C44.19,36.405,43.695,36.45,43.11,36.45z"/>
<path fill="#7D7C7C" d="M139.5,63.81l3.915,2.97v0.765c0,2.115-1.755,3.825-3.915,3.825s-3.96-1.71-3.96-3.825V66.78L139.5,63.81z"
	/>
<path fill="#7D7C7C" d="M141.75,72.405c2.475,0,4.5,1.44,4.5,3.825V81h-2.61v-3.375h-0.405V81h-7.38v-3.375h-0.45V81h-2.655v-4.77
	c0-2.385,2.025-3.825,4.5-3.825H141.75z"/>
<path fill="#D2D3D3" d="M139.5,63L139.5,63c2.16,0,3.87,1.71,3.87,3.78c0,2.07-1.8,3.735-3.96,3.735c-2.115,0-3.87-1.665-3.87-3.735
	C135.54,64.665,137.34,63,139.5,63L139.5,63z"/>
<path fill="#D2D3D3" d="M141.75,71.595c2.475,0,4.5,1.44,4.5,3.825v4.77h-2.61v-3.33h-0.405v3.33h-7.38v-3.33h-0.45v3.33h-2.655
	v-4.77c0-2.385,2.025-3.825,4.5-3.825H141.75z"/>
<path fill="#E5E5E5" d="M45,182.25c0-1.26,0.99-2.25,2.25-2.25h40.5c1.26,0,2.25,0.99,2.25,2.25v31.5c0,1.26-0.99,2.25-2.25,2.25
	h-40.5c-1.26,0-2.25-0.99-2.25-2.25V182.25z"/>
<path opacity="0" fill="none" stroke="#000000" stroke-width="0.9" stroke-miterlimit="10" d="M45,182.25
	c0-1.26,0.99-2.25,2.25-2.25h40.5c1.26,0,2.25,0.99,2.25,2.25v31.5c0,1.26-0.99,2.25-2.25,2.25h-40.5c-1.26,0-2.25-0.99-2.25-2.25
	V182.25z"/>
<path d="M53.679,199.984c0.67,0,1.42-0.37,1.42-0.37v-1.675v-1.675c-0.15-0.021-0.78-0.11-1.18-0.11c-1.05,0-1.38,0.65-1.38,1.96
	C52.54,199.714,53.089,199.984,53.679,199.984z M55.849,193.574v3.5v3.5h-0.75v-0.165v-0.165c0,0-0.77,0.43-1.52,0.43
	c-0.97,0-1.79-0.42-1.79-2.579c0-1.75,0.56-2.62,2.09-2.62c0.43,0,1.07,0.1,1.22,0.13v-1.015v-1.016H55.849z"/>
<path d="M57.979,197.784h2.6c0-1.2-0.39-1.64-1.26-1.64C58.459,196.145,57.979,196.614,57.979,197.784z M59.299,199.994
	c0.75,0,1.83-0.09,1.83-0.09l0.02,0.609c0,0-1.13,0.16-1.939,0.16c-1.5,0-1.99-0.87-1.99-2.569c0-1.9,0.83-2.63,2.1-2.63
	c1.51,0,2.19,1.109,1.97,2.92h-3.31C57.989,199.444,58.309,199.994,59.299,199.994z"/>
<polygon points="62.029,195.574 62.809,195.574 64.008,199.934 64.378,199.934 65.598,195.574 66.358,195.574 64.938,200.574 
	63.438,200.574 "/>
<path d="M67.418,194.444v-0.435v-0.436h0.74v0.436v0.435H67.418z M67.418,200.574v-2.5v-2.5h0.74v2.5v2.5H67.418z"/>
<path d="M71.538,195.475c0.46,0,1.36,0.149,1.36,0.149l-0.02,0.65c0,0-0.8-0.09-1.18-0.09c-1.15,0-1.46,0.479-1.46,1.8
	c0,1.46,0.23,1.989,1.46,1.989c0.38,0,1.19-0.09,1.19-0.09l0.03,0.65c0,0-0.94,0.14-1.39,0.14c-1.6,0-2.06-0.729-2.06-2.689
	C69.468,196.175,70.048,195.475,71.538,195.475z"/>
<path d="M74.597,197.784h2.6c0-1.2-0.39-1.64-1.26-1.64C75.077,196.145,74.597,196.614,74.597,197.784z M75.917,199.994
	c0.75,0,1.83-0.09,1.83-0.09l0.02,0.609c0,0-1.13,0.16-1.94,0.16c-1.5,0-1.99-0.87-1.99-2.569c0-1.9,0.83-2.63,2.1-2.63
	c1.51,0,2.19,1.109,1.97,2.92h-3.31C74.607,199.444,74.927,199.994,75.917,199.994z"/>
<polygon points="79.057,195.364 81.146,193.975 81.876,193.975 81.876,197.274 81.876,200.574 81.106,200.574 81.106,197.714 
	81.106,194.854 79.417,195.984 "/>
<path fill="#E5E5E5" d="M238.5,65.25c0-1.26,0.99-2.25,2.25-2.25h49.5c1.26,0,2.25,0.99,2.25,2.25v40.5c0,1.26-0.99,2.25-2.25,2.25
	h-49.5c-1.26,0-2.25-0.99-2.25-2.25V65.25z"/>
<path opacity="0" fill="none" stroke="#000000" stroke-width="0.9" stroke-miterlimit="10" d="M238.5,65.25
	c0-1.26,0.99-2.25,2.25-2.25h49.5c1.26,0,2.25,0.99,2.25,2.25v40.5c0,1.26-0.99,2.25-2.25,2.25h-49.5c-1.26,0-2.25-0.99-2.25-2.25
	V65.25z"/>
<path d="M257.261,87.872h0.74v2.5v2.5h-0.74v-0.16v-0.16c0,0-0.78,0.42-1.48,0.42c-1.4,0-1.69-0.64-1.69-2.49v-1.305v-1.305h0.74
	v1.3v1.3c0,1.38,0.12,1.83,1.06,1.83c0.66,0,1.37-0.37,1.37-0.37v-2.03V87.872z"/>
<path d="M263.041,87.961l-0.02,0.65c0,0-1.11-0.16-1.75-0.16c-0.62,0-1.08,0.16-1.08,0.75c0,0.47,0.23,0.61,1.22,0.76
	c1.32,0.21,1.8,0.48,1.8,1.45c0,1.17-0.74,1.56-1.95,1.56c-0.64,0-1.76-0.19-1.76-0.19l0.04-0.65c0,0,1.14,0.17,1.65,0.17
	c0.82,0,1.26-0.18,1.26-0.86c0-0.52-0.26-0.64-1.26-0.8c-1.22-0.19-1.76-0.43-1.76-1.41c0-1.1,0.89-1.46,1.8-1.46
	C261.98,87.771,263.041,87.961,263.041,87.961z"/>
<path d="M265.03,90.081h2.6c0-1.2-0.39-1.64-1.26-1.64C265.51,88.441,265.03,88.912,265.03,90.081z M266.35,92.291
	c0.75,0,1.83-0.09,1.83-0.09l0.021,0.61c0,0-1.13,0.16-1.94,0.16c-1.5,0-1.99-0.87-1.99-2.57c0-1.9,0.83-2.63,2.1-2.63
	c1.51,0,2.189,1.11,1.97,2.92h-3.31C265.041,91.741,265.36,92.291,266.35,92.291z"/>
<path d="M269.71,92.871v-2.5v-2.5h0.75v0.33v0.33c0,0,0.77-0.58,1.739-0.76v0.39v0.39c-0.939,0.18-1.739,0.69-1.739,0.69v1.815
	v1.815H269.71z"/>
<path d="M277.189,92.871h-4.22v-0.355v-0.355l1.909-1.98c0.801-0.82,1.34-1.38,1.34-2.169c0-0.81-0.479-1.1-1.439-1.1
	c-0.72,0-1.7,0.22-1.7,0.22l-0.06-0.709c0,0,0.979-0.26,1.91-0.26c1.39,0,2.09,0.53,2.09,1.77c0,0.99-0.44,1.57-1.34,2.479
	l-1.681,1.72h3.19v0.37V92.871z"/>
<path fill="#7D7C7C" d="M265.5,63.81l3.915,2.97v0.765c0,2.115-1.755,3.825-3.915,3.825s-3.96-1.71-3.96-3.825V66.78L265.5,63.81z"
	/>
<path fill="#7D7C7C" d="M267.75,72.405c2.475,0,4.5,1.44,4.5,3.825V81h-2.61v-3.375h-0.404V81h-7.38v-3.375h-0.45V81h-2.655v-4.77
	c0-2.385,2.025-3.825,4.5-3.825H267.75z"/>
<path fill="#D2D3D3" d="M265.5,63L265.5,63c2.16,0,3.87,1.71,3.87,3.78c0,2.07-1.8,3.735-3.96,3.735c-2.115,0-3.87-1.665-3.87-3.735
	C261.54,64.665,263.34,63,265.5,63L265.5,63z"/>
<path fill="#D2D3D3" d="M267.75,71.595c2.475,0,4.5,1.44,4.5,3.825v4.77h-2.61v-3.33h-0.404v3.33h-7.38v-3.33h-0.45v3.33h-2.655
	v-4.77c0-2.385,2.025-3.825,4.5-3.825H267.75z"/>
<path fill="#E5E5E5" d="M117,182.25c0-1.26,0.99-2.25,2.25-2.25h40.5c1.26,0,2.25,0.99,2.25,2.25v31.5c0,1.26-0.99,2.25-2.25,2.25
	h-40.5c-1.26,0-2.25-0.99-2.25-2.25V182.25z"/>
<path opacity="0" fill="none" stroke="#000000" stroke-width="0.9" stroke-miterlimit="10" d="M117,182.25
	c0-1.26,0.99-2.25,2.25-2.25h40.5c1.26,0,2.25,0.99,2.25,2.25v31.5c0,1.26-0.99,2.25-2.25,2.25h-40.5c-1.26,0-2.25-0.99-2.25-2.25
	V182.25z"/>
<path d="M125.679,199.984c0.67,0,1.42-0.37,1.42-0.37v-1.675v-1.675c-0.15-0.021-0.78-0.11-1.18-0.11c-1.05,0-1.38,0.65-1.38,1.96
	C124.54,199.714,125.089,199.984,125.679,199.984z M127.849,193.574v3.5v3.5h-0.75v-0.165v-0.165c0,0-0.77,0.43-1.52,0.43
	c-0.97,0-1.79-0.42-1.79-2.579c0-1.75,0.56-2.62,2.09-2.62c0.43,0,1.07,0.1,1.22,0.13v-1.015v-1.016H127.849z"/>
<path d="M129.979,197.784h2.6c0-1.2-0.39-1.64-1.26-1.64C130.459,196.145,129.979,196.614,129.979,197.784z M131.299,199.994
	c0.75,0,1.83-0.09,1.83-0.09l0.02,0.609c0,0-1.13,0.16-1.939,0.16c-1.5,0-1.99-0.87-1.99-2.569c0-1.9,0.83-2.63,2.1-2.63
	c1.51,0,2.19,1.109,1.97,2.92h-3.31C129.989,199.444,130.309,199.994,131.299,199.994z"/>
<polygon points="134.029,195.574 134.809,195.574 136.008,199.934 136.378,199.934 137.598,195.574 138.358,195.574 
	136.938,200.574 135.438,200.574 "/>
<path d="M139.418,194.444v-0.435v-0.436h0.74v0.436v0.435H139.418z M139.418,200.574v-2.5v-2.5h0.74v2.5v2.5H139.418z"/>
<path d="M143.538,195.475c0.46,0,1.36,0.149,1.36,0.149l-0.02,0.65c0,0-0.8-0.09-1.18-0.09c-1.15,0-1.46,0.479-1.46,1.8
	c0,1.46,0.23,1.989,1.46,1.989c0.38,0,1.19-0.09,1.19-0.09l0.03,0.65c0,0-0.94,0.14-1.39,0.14c-1.6,0-2.06-0.729-2.06-2.689
	C141.468,196.175,142.048,195.475,143.538,195.475z"/>
<path d="M146.597,197.784h2.6c0-1.2-0.39-1.64-1.26-1.64C147.077,196.145,146.597,196.614,146.597,197.784z M147.917,199.994
	c0.75,0,1.83-0.09,1.83-0.09l0.02,0.609c0,0-1.13,0.16-1.94,0.16c-1.5,0-1.99-0.87-1.99-2.569c0-1.9,0.83-2.63,2.1-2.63
	c1.51,0,2.19,1.109,1.97,2.92h-3.31C146.607,199.444,146.927,199.994,147.917,199.994z"/>
<path d="M155.196,200.574h-4.219v-0.355v-0.354l1.91-1.98c0.8-0.819,1.34-1.379,1.34-2.169c0-0.811-0.48-1.101-1.44-1.101
	c-0.72,0-1.7,0.221-1.7,0.221l-0.06-0.71c0,0,0.98-0.261,1.91-0.261c1.39,0,2.09,0.53,2.09,1.771c0,0.989-0.44,1.569-1.34,2.479
	l-1.68,1.72h3.189v0.37V200.574z"/>
<path fill="#E5E5E5" d="M189,182.25c0-1.26,0.99-2.25,2.25-2.25h40.5c1.26,0,2.25,0.99,2.25,2.25v31.5c0,1.26-0.99,2.25-2.25,2.25
	h-40.5c-1.26,0-2.25-0.99-2.25-2.25V182.25z"/>
<path opacity="0" fill="none" stroke="#000000" stroke-width="0.9" stroke-miterlimit="10" d="M189,182.25
	c0-1.26,0.99-2.25,2.25-2.25h40.5c1.26,0,2.25,0.99,2.25,2.25v31.5c0,1.26-0.99,2.25-2.25,2.25h-40.5c-1.26,0-2.25-0.99-2.25-2.25
	V182.25z"/>
<path d="M197.679,199.984c0.67,0,1.42-0.37,1.42-0.37v-1.675v-1.675c-0.15-0.021-0.78-0.11-1.18-0.11c-1.05,0-1.38,0.65-1.38,1.96
	C196.54,199.714,197.089,199.984,197.679,199.984z M199.849,193.574v3.5v3.5h-0.75v-0.165v-0.165c0,0-0.77,0.43-1.52,0.43
	c-0.97,0-1.79-0.42-1.79-2.579c0-1.75,0.56-2.62,2.09-2.62c0.43,0,1.07,0.1,1.22,0.13v-1.015v-1.016H199.849z"/>
<path d="M201.979,197.784h2.6c0-1.2-0.39-1.64-1.26-1.64C202.459,196.145,201.979,196.614,201.979,197.784z M203.299,199.994
	c0.75,0,1.83-0.09,1.83-0.09l0.02,0.609c0,0-1.13,0.16-1.939,0.16c-1.5,0-1.99-0.87-1.99-2.569c0-1.9,0.83-2.63,2.1-2.63
	c1.51,0,2.19,1.109,1.97,2.92h-3.31C201.989,199.444,202.309,199.994,203.299,199.994z"/>
<polygon points="206.028,195.574 206.809,195.574 208.008,199.934 208.378,199.934 209.598,195.574 210.358,195.574 
	208.938,200.574 207.438,200.574 "/>
<path d="M211.418,194.444v-0.435v-0.436h0.74v0.436v0.435H211.418z M211.418,200.574v-2.5v-2.5h0.74v2.5v2.5H211.418z"/>
<path d="M215.538,195.475c0.46,0,1.36,0.149,1.36,0.149l-0.02,0.65c0,0-0.8-0.09-1.18-0.09c-1.15,0-1.46,0.479-1.46,1.8
	c0,1.46,0.23,1.989,1.46,1.989c0.38,0,1.19-0.09,1.19-0.09l0.03,0.65c0,0-0.94,0.14-1.39,0.14c-1.6,0-2.06-0.729-2.06-2.689
	C213.468,196.175,214.048,195.475,215.538,195.475z"/>
<path d="M218.597,197.784h2.6c0-1.2-0.39-1.64-1.26-1.64C219.077,196.145,218.597,196.614,218.597,197.784z M219.917,199.994
	c0.75,0,1.83-0.09,1.83-0.09l0.02,0.609c0,0-1.13,0.16-1.94,0.16c-1.5,0-1.99-0.87-1.99-2.569c0-1.9,0.83-2.63,2.1-2.63
	c1.51,0,2.19,1.109,1.97,2.92h-3.31C218.607,199.444,218.927,199.994,219.917,199.994z"/>
<path d="M223.017,194.104c0,0,1.03-0.24,1.95-0.24c1.56,0,2.11,0.551,2.11,1.721c0,1.029-0.79,1.35-0.99,1.479
	c0.67,0.24,1.15,0.55,1.15,1.62c0,1.329-0.66,1.989-2.15,1.989c-1.04,0-2.18-0.229-2.18-0.229l0.08-0.7c0,0,1.08,0.189,2.02,0.189
	c0.979,0,1.43-0.409,1.43-1.22c0-1.42-1.37-1.189-2.69-1.199v-0.351v-0.35h1.33c0.51,0,1.2-0.43,1.2-1.15
	c0-0.77-0.41-1.06-1.35-1.06c-0.9,0-1.83,0.19-1.83,0.19L223.017,194.104z"/>
<polyline fill="none" stroke="#000000" stroke-width="0.45" stroke-miterlimit="10" points="127.755,108.225 127.71,109.35 
	127.62,110.655 127.53,111.87 127.35,113.085 127.125,114.255 126.855,115.38 126.54,116.46 126.18,117.54 125.775,118.62 
	125.325,119.7 124.83,120.78 124.29,121.815 123.66,122.895 122.985,123.975 122.175,125.1 121.32,126.27 120.33,127.44 
	119.205,128.7 117.9,130.05 116.37,131.445 114.57,133.02 112.275,134.82 109.215,137.07 104.265,140.355 87.435,150.93 
	84.42,153.18 82.125,154.98 80.28,156.555 78.75,157.95 77.49,159.3 76.365,160.56 75.375,161.73 74.475,162.9 73.71,164.025 
	73.035,165.105 72.405,166.185 71.82,167.22 71.325,168.3 70.875,169.38 70.47,170.46 70.11,171.54 69.84,172.62 69.57,173.745 
	69.345,174.915 69.165,176.13 69.03,177.345 68.94,178.65 68.94,179.775 "/>
<rect x="127.53" y="108" width="0.45" height="0.225"/>
<rect x="68.715" y="179.775" width="0.45" height="0.225"/>
<line fill="none" stroke="#000000" stroke-width="0.45" stroke-miterlimit="10" x1="139.5" y1="108.225" x2="139.5" y2="179.775"/>
<rect x="139.275" y="108" width="0.45" height="0.225"/>
<rect x="139.275" y="179.775" width="0.45" height="0.225"/>
<polyline fill="none" stroke="#000000" stroke-width="0.45" stroke-miterlimit="10" points="150.75,108.225 150.795,109.305 
	150.84,110.565 150.975,111.78 151.155,112.95 151.38,114.075 151.605,115.155 151.92,116.235 152.28,117.315 152.64,118.35 
	153.09,119.385 153.585,120.42 154.125,121.5 154.755,122.535 155.43,123.615 156.195,124.695 157.05,125.82 157.995,126.99 
	159.12,128.205 160.38,129.51 161.865,130.905 163.62,132.435 165.78,134.145 168.615,136.17 172.8,138.96 193.635,151.83 
	196.47,153.855 198.63,155.565 200.385,157.095 201.87,158.49 203.13,159.795 204.255,161.01 205.2,162.18 206.055,163.305 
	206.82,164.385 207.495,165.465 208.125,166.5 208.665,167.58 209.16,168.615 209.565,169.65 209.97,170.685 210.33,171.765 
	210.645,172.845 210.87,173.925 211.095,175.05 211.275,176.22 211.41,177.435 211.455,178.695 211.5,179.775 "/>
<rect x="150.525" y="108" width="0.45" height="0.225"/>
<rect x="211.275" y="179.775" width="0.45" height="0.225"/>
<path fill="none" stroke="#3B48CC" stroke-width="0.9" stroke-miterlimit="10" d="M31.5,19.8V18h1.8 M31.5,27v-3.6 M31.5,34.2v-3.6
	 M31.5,41.4v-3.6 M31.5,48.6V45 M31.5,55.8v-3.6 M31.5,63v-3.6 M31.5,70.2v-3.6 M31.5,77.4v-3.6 M31.5,84.6V81 M31.5,91.8v-3.6
	 M31.5,99v-3.6 M31.5,106.2v-3.6 M31.5,113.4v-3.6 M31.5,120.6V117 M31.5,127.8v-3.6 M31.5,135v-3.6 M31.5,142.2V138.6 M31.5,149.4
	V145.8 M31.5,156.6V153 M31.5,163.8v-3.6 M31.5,171v-3.6 M31.5,178.2V174.6 M31.5,185.4V181.8 M31.5,192.6V189 M31.5,199.8v-3.6
	 M31.5,207v-3.6 M31.5,214.2V210.6 M31.5,221.4V217.8 M31.5,228.6V225 M33.3,234h-1.8v-1.8 M40.545,234h-3.6 M47.79,234h-3.6
	 M55.035,234H51.39 M62.28,234h-3.645 M69.525,234H65.88 M76.725,234h-3.6 M83.97,234h-3.6 M91.215,234h-3.6 M98.46,234h-3.6
	 M105.705,234h-3.645 M112.95,234h-3.645 M120.195,234h-3.645 M127.44,234h-3.645 M134.64,234h-3.6 M141.885,234h-3.6 M149.13,234
	h-3.6 M156.375,234h-3.6 M163.62,234h-3.645 M170.865,234h-3.645 M178.11,234h-3.645 M185.31,234h-3.6 M192.555,234h-3.6 M199.8,234
	h-3.6 M207.045,234h-3.6 M214.29,234h-3.6 M221.535,234h-3.645 M228.78,234h-3.645 M236.025,234h-3.645 M243.225,234h-3.6
	 M250.47,234h-3.6 M257.715,234h-3.6 M264.96,234h-3.6 M272.205,234h-3.646 M279.45,234h-3.646 M286.695,234h-3.646 M293.94,234
	h-3.646 M301.14,234h-3.6 M308.385,234h-3.6 M315.63,234h-3.6 M322.875,234h-3.6 M330.12,234h-3.646 M337.365,234h-3.646
	 M344.61,234h-3.646 M351.81,234h-3.6 M359.055,234h-3.6 M364.5,232.2v1.8h-1.8 M364.5,225v3.6 M364.5,217.8v3.601 M364.5,210.6
	v3.601 M364.5,203.4v3.6 M364.5,196.2v3.6 M364.5,189v3.6 M364.5,181.8v3.601 M364.5,174.6v3.601 M364.5,167.4v3.6 M364.5,160.2v3.6
	 M364.5,153v3.6 M364.5,145.8v3.601 M364.5,138.6v3.601 M364.5,131.4v3.6 M364.5,124.2v3.6 M364.5,117v3.6 M364.5,109.8v3.6
	 M364.5,102.6v3.6 M364.5,95.4V99 M364.5,88.2v3.6 M364.5,81v3.6 M364.5,73.8v3.6 M364.5,66.6v3.6 M364.5,59.4V63 M364.5,52.2v3.6
	 M364.5,45v3.6 M364.5,37.8v3.6 M364.5,30.6v3.6 M364.5,23.4V27 M362.7,18h1.8v1.8 M355.455,18h3.6 M348.21,18h3.6 M340.965,18
	h3.646 M333.72,18h3.646 M326.475,18h3.646 M319.275,18h3.6 M312.03,18h3.6 M304.785,18h3.6 M297.54,18h3.6 M290.295,18h3.646
	 M283.05,18h3.646 M275.805,18h3.646 M268.56,18h3.646 M261.36,18h3.6 M254.115,18h3.6 M246.87,18h3.6 M239.625,18h3.6 M232.38,18
	h3.645 M225.135,18h3.645 M217.89,18h3.645 M210.69,18h3.6 M203.445,18h3.6 M196.2,18h3.6 M188.955,18h3.6 M181.71,18h3.6
	 M174.465,18h3.645 M167.22,18h3.645 M159.975,18h3.645 M152.775,18h3.6 M145.53,18h3.6 M138.285,18h3.6 M131.04,18h3.6 M123.795,18
	h3.645 M116.55,18h3.645 M109.305,18h3.645 M102.06,18h3.645 M94.86,18h3.6 M87.615,18h3.6 M80.37,18h3.6 M73.125,18h3.6 M65.88,18
	h3.645 M58.635,18h3.645 M51.39,18h3.645 M44.19,18h3.6 M36.945,18h3.6"/>
<rect x="49.5" y="18" opacity="0" fill="none" stroke="#000000" stroke-width="0.9" stroke-miterlimit="10" width="108" height="27"/>
<polygon fill="#3B48CC" points="67.964,33.372 67.964,29.912 67.964,26.453 69.874,26.453 71.443,31.712 73.013,26.453 
	74.913,26.453 74.913,29.912 74.913,33.372 73.733,33.372 73.733,30.642 73.733,27.913 73.593,27.913 72.043,33.092 70.844,33.092 
	69.284,27.913 69.134,27.913 69.134,30.642 69.134,33.372 "/>
<path fill="#3B48CC" d="M78.333,32.452c0.89,0,1.08-0.54,1.08-1.6c0-1.05-0.27-1.55-1.08-1.55c-0.85,0-1.09,0.48-1.09,1.55
	C77.243,31.932,77.443,32.452,78.333,32.452z M78.333,28.263c1.66,0,2.24,1,2.24,2.589c0,1.61-0.52,2.63-2.24,2.63
	s-2.25-1-2.25-2.63C76.083,29.252,76.643,28.263,78.333,28.263z"/>
<path fill="#3B48CC" d="M82.853,33.372h-1.14v-2.495v-2.495h1.14v0.125v0.125c0,0,0.79-0.37,1.34-0.37c1.39,0,1.74,0.82,1.74,2.5
	v1.305v1.305h-1.14v-1.3v-1.3c0-0.95-0.12-1.44-0.82-1.44c-0.44,0-1.12,0.23-1.12,0.23v1.905V33.372z"/>
<path fill="#3B48CC" d="M89.052,30.802c0.64,0,0.92-0.2,0.92-0.78c0-0.59-0.26-0.77-0.91-0.77c-0.6,0-0.86,0.21-0.86,0.77
	C88.202,30.552,88.412,30.802,89.052,30.802z M89.452,33.532c-0.31,0-0.97-0.06-0.97-0.06c-0.25,0.22-0.36,0.38-0.36,0.67
	c0,0.43,0.33,0.6,1.2,0.6c0.77,0,1.16-0.18,1.16-0.64C90.481,33.592,90.242,33.542,89.452,33.532z M89.312,35.772
	c-1.5,0-2.32-0.3-2.32-1.51c0-0.5,0.23-0.83,0.74-1.22c-0.21-0.14-0.33-0.42-0.33-0.73c0-0.23,0.37-0.79,0.37-0.79
	c-0.37-0.23-0.72-0.61-0.72-1.5c0-1.27,0.87-1.75,2.02-1.75c0.46,0,1.02,0.13,1.02,0.13l1.52-0.03v0.465v0.465h-0.72
	c0.11,0.15,0.21,0.35,0.21,0.72c0,1.53-1.01,1.84-2.49,1.7c-0.15,0.56-0.36,0.82,0.93,0.82c1.609,0,2.1,0.35,2.1,1.5
	C91.642,35.282,90.642,35.772,89.312,35.772z"/>
<path fill="#3B48CC" d="M94.561,32.452c0.89,0,1.08-0.54,1.08-1.6c0-1.05-0.27-1.55-1.08-1.55c-0.85,0-1.09,0.48-1.09,1.55
	C93.471,31.932,93.671,32.452,94.561,32.452z M94.561,28.263c1.66,0,2.24,1,2.24,2.589c0,1.61-0.52,2.63-2.24,2.63
	c-1.72,0-2.25-1-2.25-2.63C92.312,29.252,92.872,28.263,94.561,28.263z"/>
<path fill="#3B48CC" d="M102.02,32.422c0.49,0,1.12-0.22,1.12-0.22v-1.405v-1.405c-0.05,0-0.62-0.09-1.04-0.09
	c-0.69,0-1,0.45-1,1.55C101.1,32.062,101.41,32.422,102.02,32.422z M104.29,26.373v3.5v3.5h-1.15v-0.12v-0.12
	c0,0-0.71,0.35-1.3,0.35c-1.33,0-1.9-0.75-1.9-2.64c0-1.79,0.66-2.58,2.08-2.58c0.39,0,1.07,0.12,1.12,0.13v-1.01v-1.01H104.29z"/>
<path fill="#3B48CC" d="M108.359,31.152c-0.709,0.08-1.76-0.12-1.76,0.7c0,0.42,0.18,0.65,0.51,0.65c0.53,0,1.25-0.2,1.25-0.2
	v-0.575V31.152z M109.499,29.952v1.03v1.03c0.01,0.35,0.12,0.45,0.41,0.5l-0.04,0.97c-0.78,0-1.04-0.12-1.34-0.35
	c0,0-0.86,0.35-1.63,0.35c-0.95,0-1.45-0.61-1.45-1.6c0-1.07,0.59-1.44,1.67-1.52l1.24-0.1c0.06-0.55-0.12-0.9-0.62-0.9
	c-0.74,0-1.93,0.09-1.93,0.09l-0.04-0.97c0,0,1.29-0.22,2.03-0.22C108.899,28.263,109.499,28.723,109.499,29.952z"/>
<path fill="#3B48CC" d="M113.588,29.413h-1.35v1.02v1.02c0,0.69,0.02,0.95,0.52,0.95c0.28,0,0.81-0.03,0.81-0.03l0.05,0.98
	c0,0-0.67,0.14-1.02,0.14c-1.15,0-1.5-0.44-1.5-1.88v-1.1v-1.1h-0.63v-0.515v-0.515h0.63v-0.725v-0.725h1.14v0.725v0.725h1.35v0.515
	V29.413z"/>
<path fill="#3B48CC" d="M117.158,31.152c-0.71,0.08-1.76-0.12-1.76,0.7c0,0.42,0.18,0.65,0.51,0.65c0.53,0,1.25-0.2,1.25-0.2v-0.575
	V31.152z M118.298,29.952v1.03v1.03c0.01,0.35,0.12,0.45,0.41,0.5l-0.04,0.97c-0.78,0-1.04-0.12-1.34-0.35c0,0-0.86,0.35-1.63,0.35
	c-0.95,0-1.45-0.61-1.45-1.6c0-1.07,0.59-1.44,1.67-1.52l1.24-0.1c0.06-0.55-0.12-0.9-0.62-0.9c-0.74,0-1.93,0.09-1.93,0.09
	l-0.04-0.97c0,0,1.29-0.22,2.03-0.22C117.698,28.263,118.298,28.723,118.298,29.952z"/>
<path fill="#3B48CC" d="M121.668,32.452c1.07,0,1.29-0.46,1.29-1.64c0-1.1-0.3-1.49-0.94-1.49c-0.44,0-1.06,0.14-1.06,0.14v1.47
	v1.47C120.958,32.402,121.478,32.452,121.668,32.452z M122.168,28.263c1.36,0,1.95,0.68,1.95,2.55c0,2.08-0.66,2.669-2.44,2.669
	c-0.52,0-1.86-0.13-1.86-0.13v-3.52v-3.52h1.14v1.11v1.11C120.958,28.533,121.638,28.263,122.168,28.263z"/>
<path fill="#3B48CC" d="M127.857,31.152c-0.709,0.08-1.76-0.12-1.76,0.7c0,0.42,0.18,0.65,0.51,0.65c0.53,0,1.25-0.2,1.25-0.2
	v-0.575V31.152z M128.997,29.952v1.03v1.03c0.01,0.35,0.12,0.45,0.41,0.5l-0.04,0.97c-0.78,0-1.04-0.12-1.34-0.35
	c0,0-0.86,0.35-1.63,0.35c-0.95,0-1.45-0.61-1.45-1.6c0-1.07,0.59-1.44,1.67-1.52l1.24-0.1c0.06-0.55-0.12-0.9-0.62-0.9
	c-0.74,0-1.93,0.09-1.93,0.09l-0.04-0.97c0,0,1.29-0.22,2.03-0.22C128.397,28.263,128.997,28.723,128.997,29.952z"/>
<path fill="#3B48CC" d="M134.066,28.493l-0.02,0.97c0,0-1.2-0.16-1.8-0.16c-0.59,0-0.83,0.13-0.83,0.51c0,0.31,0.21,0.39,1.04,0.52
	c1.32,0.21,1.76,0.56,1.76,1.55c0,1.17-0.76,1.6-1.99,1.6c-0.71,0-1.87-0.22-1.87-0.22l0.04-0.97c0,0,1.21,0.16,1.72,0.16
	c0.7,0,0.96-0.14,0.96-0.54c0-0.32-0.16-0.41-0.96-0.54c-1.28-0.21-1.84-0.49-1.84-1.53c0-1.14,0.89-1.58,1.89-1.58
	C132.896,28.263,134.066,28.493,134.066,28.493z"/>
<path fill="#3B48CC" d="M136.266,30.472h2.02c0-0.87-0.29-1.19-1-1.19S136.266,29.643,136.266,30.472z M137.386,32.442
	c0.79,0,1.84-0.09,1.84-0.09l0.02,0.89c0,0-1.14,0.24-2.03,0.24c-1.51,0-2.1-0.79-2.1-2.55c0-1.82,0.78-2.669,2.17-2.669
	c1.42,0,2.13,0.73,2.13,2.28l-0.08,0.82h-3.07C136.276,32.092,136.576,32.442,137.386,32.442z"/>
<polyline fill="none" stroke="#000000" stroke-width="0.45" stroke-miterlimit="10" points="257.58,108.225 257.58,109.71 
	257.445,111.33 257.31,112.86 257.085,114.3 256.815,115.74 256.5,117.09 256.14,118.395 255.735,119.655 255.24,120.96 
	254.7,122.175 254.115,123.435 253.485,124.65 252.765,125.91 251.955,127.215 251.055,128.52 250.02,129.87 248.805,131.31 
	247.41,132.885 245.7,134.595 243.54,136.62 240.345,139.365 225.54,151.38 223.38,153.405 221.67,155.115 220.275,156.69 
	219.105,158.13 218.07,159.48 217.125,160.785 216.315,162.09 215.595,163.35 214.965,164.565 214.38,165.825 213.84,167.04 
	213.39,168.345 212.985,169.605 212.58,170.91 212.265,172.26 211.995,173.7 211.815,175.14 211.635,176.67 211.545,178.29 
	211.5,179.775 "/>
<rect x="257.355" y="108" width="0.45" height="0.225"/>
<rect x="211.275" y="179.775" width="0.45" height="0.225"/>
<path fill="#E5E5E5" d="M301.5,182.25c0-1.26,0.99-2.25,2.25-2.25h40.5c1.26,0,2.25,0.99,2.25,2.25v31.5c0,1.26-0.99,2.25-2.25,2.25
	h-40.5c-1.26,0-2.25-0.99-2.25-2.25V182.25z"/>
<path opacity="0" fill="none" stroke="#000000" stroke-width="0.9" stroke-miterlimit="10" d="M301.5,182.25
	c0-1.26,0.99-2.25,2.25-2.25h40.5c1.26,0,2.25,0.99,2.25,2.25v31.5c0,1.26-0.99,2.25-2.25,2.25h-40.5c-1.26,0-2.25-0.99-2.25-2.25
	V182.25z"/>
<path d="M310.18,199.984c0.67,0,1.42-0.37,1.42-0.37v-1.675v-1.675c-0.15-0.021-0.78-0.11-1.181-0.11c-1.05,0-1.38,0.65-1.38,1.96
	C309.039,199.714,309.59,199.984,310.18,199.984z M312.35,193.574v3.5v3.5h-0.75v-0.165v-0.165c0,0-0.771,0.43-1.521,0.43
	c-0.97,0-1.789-0.42-1.789-2.579c0-1.75,0.56-2.62,2.089-2.62c0.431,0,1.07,0.1,1.221,0.13v-1.015v-1.016H312.35z"/>
<path d="M314.479,197.784h2.601c0-1.2-0.391-1.64-1.261-1.64C314.959,196.145,314.479,196.614,314.479,197.784z M315.799,199.994
	c0.75,0,1.83-0.09,1.83-0.09l0.02,0.609c0,0-1.13,0.16-1.939,0.16c-1.5,0-1.99-0.87-1.99-2.569c0-1.9,0.83-2.63,2.1-2.63
	c1.511,0,2.19,1.109,1.971,2.92h-3.311C314.489,199.444,314.809,199.994,315.799,199.994z"/>
<polygon points="318.528,195.574 319.309,195.574 320.509,199.934 320.878,199.934 322.099,195.574 322.858,195.574 
	321.438,200.574 319.938,200.574 "/>
<path d="M323.918,194.444v-0.435v-0.436h0.74v0.436v0.435H323.918z M323.918,200.574v-2.5v-2.5h0.74v2.5v2.5H323.918z"/>
<path d="M328.037,195.475c0.461,0,1.36,0.149,1.36,0.149l-0.02,0.65c0,0-0.801-0.09-1.181-0.09c-1.149,0-1.46,0.479-1.46,1.8
	c0,1.46,0.23,1.989,1.46,1.989c0.38,0,1.19-0.09,1.19-0.09l0.029,0.65c0,0-0.939,0.14-1.39,0.14c-1.6,0-2.06-0.729-2.06-2.689
	C325.968,196.175,326.548,195.475,328.037,195.475z"/>
<path d="M331.098,197.784h2.6c0-1.2-0.391-1.64-1.26-1.64C331.577,196.145,331.098,196.614,331.098,197.784z M332.417,199.994
	c0.75,0,1.83-0.09,1.83-0.09l0.02,0.609c0,0-1.13,0.16-1.939,0.16c-1.5,0-1.99-0.87-1.99-2.569c0-1.9,0.83-2.63,2.101-2.63
	c1.51,0,2.189,1.109,1.97,2.92h-3.31C331.107,199.444,331.428,199.994,332.417,199.994z"/>
<polygon points="338.406,200.614 338.406,199.974 338.406,199.334 335.197,199.334 335.197,199.024 335.197,198.714 
	337.077,193.975 337.917,193.975 336.077,198.604 338.406,198.604 338.406,197.549 338.406,196.494 339.177,196.494 
	339.177,197.549 339.177,198.604 340.007,198.604 340.007,198.969 340.007,199.334 339.177,199.334 339.177,199.974 
	339.177,200.614 "/>
<polyline fill="none" stroke="#000000" stroke-width="0.45" stroke-miterlimit="10" points="271.125,108.225 271.125,109.485 
	271.215,110.925 271.35,112.275 271.575,113.58 271.8,114.84 272.07,116.055 272.43,117.27 272.79,118.44 273.24,119.61 
	273.735,120.735 274.23,121.86 274.86,123.03 275.49,124.155 276.255,125.325 277.065,126.54 278.01,127.755 279.09,129.06 
	280.305,130.41 281.745,131.85 283.455,133.47 285.57,135.315 288.45,137.565 293.535,141.21 306.63,150.435 309.51,152.685 
	311.67,154.53 313.38,156.15 314.82,157.59 316.035,158.94 317.07,160.245 318.015,161.46 318.87,162.675 319.59,163.845 
	320.265,164.97 320.85,166.14 321.39,167.265 321.885,168.39 322.29,169.56 322.695,170.73 323.01,171.945 323.325,173.16 
	323.55,174.42 323.73,175.725 323.865,177.075 323.955,178.515 324,179.775 "/>
<rect x="270.9" y="108" width="0.449" height="0.225"/>
<rect x="323.775" y="179.775" width="0.449" height="0.225"/>
<rect x="252.482" y="127.517" transform="matrix(-0.7071 -0.7071 0.7071 -0.7071 423.4836 457.4456)" opacity="0" fill="none" stroke="#000000" stroke-width="0.9" stroke-miterlimit="10" width="107.999" height="27"/>
<path d="M299.732,133.453l-1.131-0.962c-0.474-0.389-0.869-0.346-1.23,0.015c-0.41,0.41-0.452,0.82-0.134,1.138
	c0.537,0.538,1.364,0.94,1.364,0.94l0.565-0.565L299.732,133.453z M300.978,133.255l-0.87,0.87l-0.869,0.869
	c-0.213,0.24-0.113,0.481,0.084,0.735l-0.48,0.438c-0.424-0.424-0.572-0.729-0.565-1.103c0,0-0.905-0.368-1.576-1.04
	c-0.615-0.615-0.573-1.35,0.12-2.043c0.679-0.679,1.329-0.637,2.121,0.028l1.223,1.011c0.615-0.516,0.82-1.046,0.318-1.548
	c-0.517-0.517-1.442-1.259-1.442-1.259l0.438-0.48c0,0,0.989,0.707,1.534,1.251C301.762,131.735,301.776,132.456,300.978,133.255z"
	/>
<path d="M301.26,137.61c0.474,0.474,1.266,0.742,1.266,0.742l1.185-1.185l1.185-1.184c-0.093-0.12-0.475-0.63-0.757-0.912
	c-0.742-0.742-1.436-0.517-2.361,0.41C300.645,136.613,300.843,137.193,301.26,137.61z M307.326,134.612l-2.475,2.475l-2.475,2.475
	l-0.53-0.53l0.117-0.116l0.116-0.117c0,0-0.849-0.24-1.379-0.771c-0.686-0.686-0.969-1.563,0.559-3.09
	c1.237-1.237,2.248-1.456,3.33-0.374c0.305,0.304,0.686,0.827,0.771,0.954l0.718-0.718l0.718-0.718L307.326,134.612z"/>
<path d="M304.138,141.322l-0.53-0.53l1.768-1.768l1.768-1.768l0.53,0.53l-0.12,0.12l-0.12,0.12c0.007-0.063,1.216,0.48,1.563,0.982
	c0.24,0.34,0.382,0.637,0.354,0.948c0.282,0.127,1.109,0.474,1.598,0.961c0.961,0.962,0.735,1.654-0.573,2.963l-0.919,0.919
	l-0.919,0.919l-0.53-0.53l0.838-0.838l0.838-0.838c1.082-1.081,1.371-1.513,0.7-2.185c-0.481-0.48-1.23-0.721-1.252-0.729
	c-0.544,0.842-1.923,2.051-2.771,2.941l-0.53-0.53l0.912-0.912l0.912-0.912c0.976-0.976,1.195-1.393,0.552-2.036
	c-0.474-0.474-1.209-0.686-1.209-0.686l-1.429,1.428L304.138,141.322z"/>
<path d="M314.008,142.524l0.308-0.308l0.308-0.308l0.522,0.523l-0.308,0.307l-0.308,0.308L314.008,142.524z M309.674,146.858
	l1.768-1.768l1.768-1.768l0.522,0.522l-1.768,1.768l-1.768,1.768L309.674,146.858z"/>
<path d="M311.915,149.1l-0.53-0.53l1.768-1.768l1.768-1.768l0.53,0.53l-0.117,0.116l-0.116,0.117c0,0,0.897,0.29,1.399,0.792
	c0.969,0.968,0.707,1.668-0.58,2.955l-0.919,0.919l-0.919,0.919l-0.523-0.523l0.916-0.915l0.915-0.916
	c0.94-0.94,1.182-1.393,0.538-2.036c-0.467-0.467-1.272-0.749-1.272-0.749l-1.429,1.428L311.915,149.1z"/>
<rect x="132.224" y="124.232" transform="matrix(-0.7071 -0.7071 0.7071 -0.7071 220.5125 366.8022)" opacity="0" fill="none" stroke="#000000" stroke-width="0.9" stroke-miterlimit="10" width="107.999" height="27"/>
<path d="M179.538,130.168l-1.131-0.962c-0.474-0.389-0.87-0.346-1.23,0.015c-0.41,0.41-0.452,0.82-0.134,1.139
	c0.538,0.537,1.365,0.939,1.365,0.939l0.565-0.565L179.538,130.168z M180.782,129.97l-0.87,0.87l-0.87,0.869
	c-0.212,0.241-0.113,0.481,0.085,0.735l-0.481,0.438c-0.424-0.424-0.573-0.729-0.565-1.103c0,0-0.905-0.368-1.577-1.039
	c-0.615-0.615-0.573-1.351,0.12-2.044c0.679-0.679,1.329-0.636,2.121,0.028l1.223,1.011c0.615-0.516,0.82-1.046,0.318-1.548
	c-0.516-0.517-1.442-1.259-1.442-1.259l0.438-0.48c0,0,0.99,0.707,1.534,1.251C181.567,128.45,181.581,129.171,180.782,129.97z"/>
<path d="M181.065,134.325c0.474,0.474,1.266,0.742,1.266,0.742l1.184-1.184l1.185-1.185c-0.092-0.12-0.474-0.629-0.757-0.912
	c-0.742-0.742-1.435-0.516-2.361,0.41C180.45,133.328,180.648,133.908,181.065,134.325z M187.131,131.327l-2.475,2.475l-2.475,2.475
	l-0.53-0.53l0.117-0.116l0.117-0.117c0,0-0.849-0.24-1.379-0.771c-0.686-0.686-0.968-1.563,0.559-3.09
	c1.237-1.237,2.249-1.456,3.33-0.374c0.304,0.304,0.686,0.827,0.771,0.954l0.718-0.718l0.718-0.718L187.131,131.327z"/>
<path d="M183.942,138.037l-0.53-0.53l1.768-1.768l1.768-1.768l0.53,0.53l-0.12,0.12l-0.12,0.12c0.007-0.063,1.216,0.481,1.563,0.983
	c0.24,0.339,0.382,0.636,0.354,0.947c0.283,0.127,1.11,0.474,1.598,0.961c0.962,0.962,0.735,1.654-0.573,2.963l-0.919,0.919
	l-0.919,0.919l-0.53-0.53l0.838-0.838l0.837-0.838c1.082-1.081,1.372-1.513,0.7-2.185c-0.481-0.48-1.23-0.721-1.251-0.728
	c-0.544,0.841-1.923,2.05-2.771,2.94l-0.53-0.53l0.912-0.912l0.912-0.912c0.976-0.976,1.195-1.393,0.551-2.036
	c-0.474-0.474-1.209-0.686-1.209-0.686l-1.428,1.429L183.942,138.037z"/>
<path d="M193.813,139.239l0.308-0.308l0.308-0.308l0.523,0.523l-0.308,0.308l-0.308,0.308L193.813,139.239z M189.479,143.573
	l1.768-1.768l1.768-1.768l0.523,0.523l-1.768,1.768l-1.768,1.768L189.479,143.573z"/>
<path d="M191.72,145.814l-0.53-0.53l1.768-1.768l1.768-1.768l0.53,0.53l-0.117,0.116l-0.117,0.117c0,0,0.898,0.29,1.4,0.792
	c0.969,0.969,0.707,1.668-0.58,2.955l-0.919,0.919l-0.919,0.919l-0.523-0.522l0.916-0.916l0.916-0.916
	c0.94-0.939,1.181-1.393,0.537-2.036c-0.467-0.466-1.272-0.749-1.272-0.749l-1.428,1.428L191.72,145.814z"/>
<rect x="196.367" y="124.232" transform="matrix(-0.7071 0.7071 -0.7071 -0.7071 485.4621 74.3773)" opacity="0" fill="none" stroke="#000000" stroke-width="0.9" stroke-miterlimit="10" width="61.92" height="27"/>
<path d="M221.196,139.374l0.523-0.523l1.768,1.768l1.768,1.768l-0.523,0.523l-0.113-0.113l-0.113-0.113c0,0-0.254,0.849-0.75,1.344
	c-0.99,0.989-1.647,0.742-2.956-0.565l-0.922-0.923l-0.923-0.923l0.523-0.523l0.919,0.919l0.919,0.92
	c0.976,0.976,1.379,1.209,2.043,0.544c0.467-0.467,0.707-1.23,0.707-1.23l-1.435-1.435L221.196,139.374z"/>
<path d="M225.346,135.351l0.445,0.475c0,0-0.898,0.671-1.351,1.124c-0.438,0.438-0.65,0.876-0.233,1.294
	c0.332,0.332,0.594,0.269,1.4-0.325c1.082-0.785,1.612-0.934,2.298-0.248c0.827,0.827,0.58,1.626-0.276,2.481
	c-0.453,0.453-1.379,1.11-1.379,1.11l-0.431-0.488c0,0,0.926-0.686,1.287-1.046c0.58-0.58,0.764-1.019,0.283-1.499
	c-0.368-0.367-0.637-0.269-1.457,0.325c-0.997,0.729-1.548,0.94-2.241,0.248c-0.778-0.778-0.403-1.662,0.24-2.306
	C224.462,135.966,225.346,135.351,225.346,135.351z"/>
<path d="M228.252,135.443l1.838-1.839c-0.849-0.849-1.436-0.884-2.05-0.269C227.432,133.944,227.425,134.616,228.252,135.443z
	 M230.748,136.072c0.53-0.53,1.23-1.357,1.23-1.357l0.445,0.417c0,0-0.686,0.912-1.258,1.484c-1.061,1.061-2.022,0.792-3.224-0.41
	c-1.343-1.343-1.272-2.445-0.375-3.344c1.067-1.067,2.333-0.764,3.457,0.672l-2.34,2.34
	C229.433,136.609,230.048,136.772,230.748,136.072z"/>
<path d="M233.533,134.106l-1.768-1.768l-1.768-1.768l0.53-0.53l0.233,0.233l0.233,0.233c0,0,0.134-0.954,0.693-1.768l0.276,0.276
	l0.276,0.275c-0.538,0.792-0.743,1.718-0.743,1.718l1.283,1.283l1.283,1.283L233.533,134.106z"/>
<path fill="#FFBBB1" d="M427.5,92.25c0-1.26,0.99-2.25,2.25-2.25h67.5c0.9,0,2.25,0.99,2.25,2.25v67.5c0,1.26-1.35,2.25-2.25,2.25
	h-67.5c-1.26,0-2.25-0.99-2.25-2.25V92.25z"/>
<path d="M455.804,121.602l-1.441,5.264h3.583l-1.441-5.264H455.804z M452.332,130.352l2.66-9.744h2.365l2.618,9.73h-1.063
	l-0.742-2.437h-4.06l-0.7,2.45H452.332z"/>
<path d="M467.256,129.189l0.042,0.98c0,0-1.555,0.321-2.66,0.321c-2.898,0-3.542-1.777-3.542-4.983c0-3.29,0.686-5.04,3.542-5.04
	c1.273,0,2.674,0.322,2.674,0.322l-0.056,0.966c0,0-1.526-0.238-2.506-0.238c-2.17,0-2.549,1.302-2.549,3.99
	c0,2.632,0.364,3.934,2.576,3.934C465.646,129.441,467.256,129.189,467.256,129.189z"/>
<polygon points="474.479,130.352 469.146,130.352 469.146,125.479 469.146,120.608 470.224,120.608 470.224,124.962 
	470.224,129.315 474.479,129.315 474.479,129.834 "/>
<path fill="#BA141A" d="M409.5,38.34c-0.045,0.36,0.225,0.72,0.72,0.99l10.98,5.31c0.99,0.495,2.609,0.495,3.6,0l10.98-5.31
	c0.495-0.27,0.72-0.63,0.72-0.99v-3.06c0,0.36-0.225,0.675-0.72,0.945L424.8,41.58c-0.99,0.45-2.609,0.45-3.6,0l-10.98-5.355
	c-0.54-0.27-0.81-0.675-0.675-1.035L409.5,38.34z"/>
<path opacity="0" fill="none" stroke="#000000" stroke-width="0.45" stroke-miterlimit="10" d="M409.5,38.34
	c-0.045,0.36,0.225,0.72,0.72,0.99l10.98,5.31c0.99,0.495,2.609,0.495,3.6,0l10.98-5.31c0.495-0.27,0.72-0.63,0.72-0.99v-3.06
	c0,0.36-0.225,0.675-0.72,0.945L424.8,41.58c-0.99,0.45-2.609,0.45-3.6,0l-10.98-5.355c-0.54-0.27-0.81-0.675-0.675-1.035
	L409.5,38.34z"/>
<path fill="#BA141A" d="M435.78,34.515c0.72,0.45,0.72,1.26,0,1.71L424.8,41.58c-0.99,0.45-2.609,0.45-3.6,0l-10.98-5.355
	c-0.944-0.45-0.944-1.26,0-1.71l10.98-5.355c0.99-0.495,2.609-0.495,3.6,0L435.78,34.515z"/>
<path opacity="0" fill="none" stroke="#000000" stroke-width="0.45" stroke-miterlimit="10" d="M435.78,34.515
	c0.72,0.45,0.72,1.26,0,1.71L424.8,41.58c-0.99,0.45-2.609,0.45-3.6,0l-10.98-5.355c-0.944-0.45-0.944-1.26,0-1.71l10.98-5.355
	c0.99-0.495,2.609-0.495,3.6,0L435.78,34.515z"/>
<path fill="#BA141A" d="M409.5,32.94c-0.045,0.36,0.225,0.72,0.72,0.99l10.98,5.31c0.99,0.495,2.609,0.495,3.6,0l10.98-5.31
	c0.495-0.27,0.72-0.63,0.72-0.99v-3.06c0,0.36-0.225,0.72-0.72,0.945L424.8,36.18c-0.99,0.45-2.609,0.45-3.6,0l-10.98-5.355
	c-0.54-0.27-0.81-0.675-0.675-1.035L409.5,32.94z"/>
<path opacity="0" fill="none" stroke="#000000" stroke-width="0.45" stroke-miterlimit="10" d="M409.5,32.94
	c-0.045,0.36,0.225,0.72,0.72,0.99l10.98,5.31c0.99,0.495,2.609,0.495,3.6,0l10.98-5.31c0.495-0.27,0.72-0.63,0.72-0.99v-3.06
	c0,0.36-0.225,0.72-0.72,0.945L424.8,36.18c-0.99,0.45-2.609,0.45-3.6,0l-10.98-5.355c-0.54-0.27-0.81-0.675-0.675-1.035
	L409.5,32.94z"/>
<path fill="#BA141A" d="M435.78,29.115c0.72,0.45,0.72,1.26,0,1.71L424.8,36.18c-0.99,0.45-2.609,0.45-3.6,0l-10.98-5.355
	c-0.944-0.45-0.944-1.26,0-1.71l10.98-5.355c0.99-0.495,2.609-0.495,3.6,0L435.78,29.115z"/>
<path opacity="0" fill="none" stroke="#000000" stroke-width="0.45" stroke-miterlimit="10" d="M435.78,29.115
	c0.72,0.45,0.72,1.26,0,1.71L424.8,36.18c-0.99,0.45-2.609,0.45-3.6,0l-10.98-5.355c-0.944-0.45-0.944-1.26,0-1.71l10.98-5.355
	c0.99-0.495,2.609-0.495,3.6,0L435.78,29.115z"/>
<path fill="#BA141A" d="M409.5,27.54c-0.045,0.36,0.225,0.72,0.72,0.99l10.98,5.31c0.99,0.495,2.609,0.495,3.6,0l10.98-5.31
	c0.495-0.27,0.72-0.63,0.72-0.99v-3.015c0,0.315-0.225,0.675-0.72,0.9L424.8,30.78c-0.99,0.45-2.609,0.45-3.6,0l-10.98-5.355
	c-0.54-0.27-0.81-0.675-0.675-1.035L409.5,27.54z"/>
<path opacity="0" fill="none" stroke="#000000" stroke-width="0.45" stroke-miterlimit="10" d="M409.5,27.54
	c-0.045,0.36,0.225,0.72,0.72,0.99l10.98,5.31c0.99,0.495,2.609,0.495,3.6,0l10.98-5.31c0.495-0.27,0.72-0.63,0.72-0.99v-3.015
	c0,0.315-0.225,0.675-0.72,0.9L424.8,30.78c-0.99,0.45-2.609,0.45-3.6,0l-10.98-5.355c-0.54-0.27-0.81-0.675-0.675-1.035
	L409.5,27.54z"/>
<path fill="#93171B" d="M409.5,38.34c-0.045,0.36,0.225,0.72,0.72,0.99l10.98,5.31c0.99,0.495,2.609,0.495,3.6,0l10.98-5.31
	c0.495-0.27,0.72-0.63,0.72-0.99v-3.06c0,0.36-0.225,0.675-0.72,0.945L424.8,41.58c-0.99,0.45-2.609,0.45-3.6,0l-10.98-5.355
	c-0.54-0.27-0.81-0.675-0.675-1.035L409.5,38.34z"/>
<path opacity="0" fill="none" stroke="#000000" stroke-width="0.45" stroke-miterlimit="10" d="M409.5,38.34
	c-0.045,0.36,0.225,0.72,0.72,0.99l10.98,5.31c0.99,0.495,2.609,0.495,3.6,0l10.98-5.31c0.495-0.27,0.72-0.63,0.72-0.99v-3.06
	c0,0.36-0.225,0.675-0.72,0.945L424.8,41.58c-0.99,0.45-2.609,0.45-3.6,0l-10.98-5.355c-0.54-0.27-0.81-0.675-0.675-1.035
	L409.5,38.34z"/>
<path fill="#93171B" d="M409.5,32.94c-0.045,0.36,0.225,0.72,0.72,0.99l10.98,5.31c0.99,0.495,2.609,0.495,3.6,0l10.98-5.31
	c0.495-0.27,0.72-0.63,0.72-0.99v-3.06c0,0.36-0.225,0.72-0.72,0.945L424.8,36.18c-0.99,0.45-2.609,0.45-3.6,0l-10.98-5.355
	c-0.54-0.27-0.81-0.675-0.675-1.035L409.5,32.94z"/>
<path opacity="0" fill="none" stroke="#000000" stroke-width="0.45" stroke-miterlimit="10" d="M409.5,32.94
	c-0.045,0.36,0.225,0.72,0.72,0.99l10.98,5.31c0.99,0.495,2.609,0.495,3.6,0l10.98-5.31c0.495-0.27,0.72-0.63,0.72-0.99v-3.06
	c0,0.36-0.225,0.72-0.72,0.945L424.8,36.18c-0.99,0.45-2.609,0.45-3.6,0l-10.98-5.355c-0.54-0.27-0.81-0.675-0.675-1.035
	L409.5,32.94z"/>
<path fill="#93171B" d="M409.5,27.54c-0.045,0.36,0.225,0.72,0.72,0.99l10.98,5.31c0.99,0.495,2.609,0.495,3.6,0l10.98-5.31
	c0.495-0.27,0.72-0.63,0.72-0.99v-3.015c0,0.315-0.225,0.675-0.72,0.9L424.8,30.78c-0.99,0.45-2.609,0.45-3.6,0l-10.98-5.355
	c-0.54-0.27-0.81-0.675-0.675-1.035L409.5,27.54z"/>
<path opacity="0" fill="none" stroke="#000000" stroke-width="0.45" stroke-miterlimit="10" d="M409.5,27.54
	c-0.045,0.36,0.225,0.72,0.72,0.99l10.98,5.31c0.99,0.495,2.609,0.495,3.6,0l10.98-5.31c0.495-0.27,0.72-0.63,0.72-0.99v-3.015
	c0,0.315-0.225,0.675-0.72,0.9L424.8,30.78c-0.99,0.45-2.609,0.45-3.6,0l-10.98-5.355c-0.54-0.27-0.81-0.675-0.675-1.035
	L409.5,27.54z"/>
<path fill="#BA141A" d="M435.78,23.715c0.72,0.45,0.72,1.26,0,1.71L424.8,30.78c-0.99,0.45-2.609,0.45-3.6,0l-10.98-5.355
	c-0.944-0.45-0.944-1.26,0-1.71l10.98-5.355c0.99-0.495,2.609-0.495,3.6,0L435.78,23.715z"/>
<path opacity="0" fill="none" stroke="#000000" stroke-width="0.45" stroke-miterlimit="10" d="M435.78,23.715
	c0.72,0.45,0.72,1.26,0,1.71L424.8,30.78c-0.99,0.45-2.609,0.45-3.6,0l-10.98-5.355c-0.944-0.45-0.944-1.26,0-1.71l10.98-5.355
	c0.99-0.495,2.609-0.495,3.6,0L435.78,23.715z"/>
<path fill="#FFFFFF" d="M419.625,25.56c-1.26,0.675-3.285,0.675-4.545,0c-1.26-0.675-1.26-1.71,0-2.385
	c1.26-0.675,3.285-0.675,4.545,0C420.885,23.85,420.885,24.885,419.625,25.56z"/>
<path opacity="0" fill="none" stroke="#000000" stroke-width="0.45" stroke-miterlimit="10" d="M419.625,25.56
	c-1.26,0.675-3.285,0.675-4.545,0c-1.26-0.675-1.26-1.71,0-2.385c1.26-0.675,3.285-0.675,4.545,0
	C420.885,23.85,420.885,24.885,419.625,25.56z"/>
<polygon fill="#FFFFFF" points="418.77,27.27 425.205,26.37 423.495,29.745 "/>
<polygon opacity="0" fill="none" stroke="#000000" stroke-width="0.45" stroke-miterlimit="10" points="418.77,27.27 425.205,26.37 
	423.495,29.745 "/>
<polygon fill="#76191C" points="428.85,26.415 424.98,24.39 428.85,22.365 "/>
<polygon opacity="0" fill="none" stroke="#000000" stroke-width="0.45" stroke-miterlimit="10" points="428.85,26.415 424.98,24.39 
	428.85,22.365 "/>
<polygon fill="#FFFFFF" points="421.785,21.915 419.265,21.645 421.47,20.97 421.2,19.62 423.09,20.565 425.43,19.98 424.35,21.195 
	426.06,22.23 423.54,22.05 422.28,23.22 "/>
<polygon opacity="0" fill="none" stroke="#000000" stroke-width="0.45" stroke-miterlimit="10" points="421.785,21.915 
	419.265,21.645 421.47,20.97 421.2,19.62 423.09,20.565 425.43,19.98 424.35,21.195 426.06,22.23 423.54,22.05 422.28,23.22 "/>
<polygon fill="#93171B" points="432.675,24.39 428.85,22.365 428.85,26.415 "/>
<path fill="none" stroke="#BA141A" stroke-width="0.9" stroke-miterlimit="10" d="M409.5,19.8V18h1.8 M409.5,27v-3.6 M409.5,34.2
	v-3.6 M409.5,41.4v-3.6 M409.5,48.6V45 M409.5,55.8v-3.6 M409.5,63v-3.6 M409.5,70.2v-3.6 M409.5,77.4v-3.6 M409.5,84.6V81
	 M409.5,91.8v-3.6 M409.5,99v-3.6 M409.5,106.2v-3.6 M409.5,113.4v-3.6 M409.5,120.6V117 M409.5,127.8v-3.6 M409.5,135v-3.6
	 M409.5,142.2V138.6 M409.5,149.4V145.8 M409.5,156.6V153 M409.5,163.8v-3.6 M409.5,171v-3.6 M409.5,178.2V174.6 M409.5,185.4V181.8
	 M409.5,192.6V189 M409.5,199.8v-3.6 M409.5,207v-3.6 M409.5,214.2V210.6 M409.5,221.4V217.8 M409.5,228.6V225 M411.3,234h-1.8v-1.8
	 M418.5,234h-3.6 M425.7,234H422.1 M432.9,234H429.3 M440.1,234h-3.6 M447.3,234h-3.6 M454.5,234h-3.6 M461.7,234H458.1 M468.9,234
	H465.3 M476.1,234h-3.6 M483.3,234h-3.6 M490.5,234h-3.6 M497.7,234H494.1 M504.9,234H501.3 M512.1,234h-3.6 M517.5,232.2v1.8h-1.8
	 M517.5,225v3.6 M517.5,217.8v3.601 M517.5,210.6v3.601 M517.5,203.4v3.6 M517.5,196.2v3.6 M517.5,189v3.6 M517.5,181.8v3.601
	 M517.5,174.6v3.601 M517.5,167.4v3.6 M517.5,160.2v3.6 M517.5,153v3.6 M517.5,145.8v3.601 M517.5,138.6v3.601 M517.5,131.4v3.6
	 M517.5,124.2v3.6 M517.5,117v3.6 M517.5,109.8v3.6 M517.5,102.6v3.6 M517.5,95.4V99 M517.5,88.2v3.6 M517.5,81v3.6 M517.5,73.8v3.6
	 M517.5,66.6v3.6 M517.5,59.4V63 M517.5,52.2v3.6 M517.5,45v3.6 M517.5,37.8v3.6 M517.5,30.6v3.6 M517.5,23.4V27 M515.7,18h1.8v1.8
	 M508.5,18h3.6 M501.3,18h3.601 M494.1,18h3.601 M486.9,18h3.6 M479.7,18h3.6 M472.5,18h3.6 M465.3,18h3.601 M458.1,18h3.601
	 M450.9,18h3.6 M443.7,18h3.6 M436.5,18h3.6 M429.3,18h3.601 M422.1,18h3.601 M414.9,18h3.6"/>
<path fill="#BA141A" d="M454.371,30.397c0-0.912-0.443-1.355-1.355-1.355h-1.728v1.392v1.392h1.751
	C454.012,31.825,454.371,31.249,454.371,30.397z M454.275,36l-1.14-2.831h-1.848v1.416V36h-1.403v-4.151v-4.151h3.131
	c1.896,0,2.808,0.78,2.808,2.675c0,1.248-0.456,1.967-1.309,2.387L455.823,36H454.275z"/>
<path fill="#BA141A" d="M458.223,32.521h2.423c0-1.044-0.348-1.428-1.199-1.428C458.594,31.093,458.223,31.525,458.223,32.521z
	 M459.565,34.884c0.948,0,2.208-0.108,2.208-0.108l0.023,1.068c0,0-1.367,0.288-2.435,0.288c-1.812,0-2.52-0.948-2.52-3.059
	c0-2.184,0.936-3.203,2.604-3.203c1.703,0,2.555,0.875,2.555,2.735l-0.096,0.983h-3.683
	C458.234,34.464,458.594,34.884,459.565,34.884z"/>
<path fill="#BA141A" d="M465.42,34.86c0.588,0,1.344-0.264,1.344-0.264v-1.686v-1.686c-0.06,0-0.743-0.108-1.247-0.108
	c-0.828,0-1.2,0.54-1.2,1.859C464.316,34.428,464.688,34.86,465.42,34.86z M468.144,27.602v4.199V36h-1.38v-0.144v-0.144
	c0,0-0.852,0.42-1.56,0.42c-1.596,0-2.279-0.899-2.279-3.167c0-2.147,0.792-3.095,2.495-3.095c0.469,0,1.284,0.144,1.344,0.156
	v-1.211v-1.212H468.144z"/>
<path fill="#BA141A" d="M469.883,29.042v-0.726V27.59h1.368v0.726v0.726H469.883z M469.883,36v-2.993v-2.993h1.368v2.993V36H469.883
	z"/>
<path fill="#BA141A" d="M477.249,30.146l-0.023,1.164c0,0-1.439-0.192-2.159-0.192c-0.708,0-0.996,0.156-0.996,0.612
	c0,0.372,0.252,0.468,1.248,0.624c1.583,0.252,2.111,0.672,2.111,1.859c0,1.404-0.912,1.919-2.388,1.919
	c-0.852,0-2.243-0.264-2.243-0.264l0.048-1.164c0,0,1.451,0.192,2.063,0.192c0.84,0,1.151-0.168,1.151-0.648
	c0-0.384-0.191-0.492-1.151-0.648c-1.536-0.252-2.208-0.588-2.208-1.835c0-1.368,1.068-1.896,2.268-1.896
	C475.846,29.87,477.249,30.146,477.249,30.146z"/>
<line fill="none" stroke="#000000" stroke-width="0.45" stroke-miterlimit="10" x1="365.175" y1="126" x2="420.12" y2="126"/>
<rect x="364.95" y="125.775" width="0.225" height="0.45"/>
<polygon points="426.78,126 420.345,128.07 420.345,123.93 "/>
<path d="M420.57,127.755L426.06,126l-5.489-1.755V127.755z M427.5,126l-7.38,2.385v-4.77L427.5,126z"/>
</svg>
