<?xml version="1.0" encoding="utf-8"?>
<!-- Generator: Adobe Illustrator 16.0.0, SVG Export Plug-In . SVG Version: 6.00 Build 0)  -->
<!DOCTYPE svg PUBLIC "-//W3C//DTD SVG 1.1//EN" "http://www.w3.org/Graphics/SVG/1.1/DTD/svg11.dtd">
<svg version="1.1" id="Layer_1" xmlns="http://www.w3.org/2000/svg" xmlns:xlink="http://www.w3.org/1999/xlink" x="0px" y="0px"
	 width="355px" height="252px" viewBox="0 0 355 252" enable-background="new 0 0 355 252" xml:space="preserve">
<rect fill="#FFFFFF" width="355.5" height="252"/>
<path fill="#E5E5E5" d="M40.5,74.25c0-1.26,0.99-2.25,2.25-2.25h103.5c1.26,0,2.25,0.99,2.25,2.25v31.5c0,1.26-0.99,2.25-2.25,2.25
	H42.75c-1.26,0-2.25-0.99-2.25-2.25V74.25z"/>
<path d="M56.678,91.744l0.03,0.7c0,0-1.11,0.23-1.9,0.23c-2.07,0-2.53-1.27-2.53-3.56c0-2.35,0.49-3.6,2.53-3.6
	c0.91,0,1.91,0.23,1.91,0.23l-0.04,0.69c0,0-1.09-0.17-1.79-0.17c-1.55,0-1.82,0.93-1.82,2.85c0,1.88,0.26,2.81,1.84,2.81
	C55.528,91.924,56.678,91.744,56.678,91.744z"/>
<path d="M58.747,92.574h-0.75v-3.65v-3.649h0.75v1.27v1.27c0,0,0.84-0.34,1.54-0.34c1.38,0,1.69,0.68,1.69,2.49v1.305v1.305h-0.75
	v-1.3v-1.3c0-1.32-0.15-1.81-1.05-1.81c-0.67,0-1.43,0.29-1.43,0.29v2.06V92.574z"/>
<path d="M64.037,89.784h2.6c0-1.2-0.39-1.64-1.26-1.64C64.517,88.145,64.037,88.614,64.037,89.784z M65.356,91.994
	c0.75,0,1.83-0.09,1.83-0.09l0.02,0.61c0,0-1.13,0.16-1.94,0.16c-1.5,0-1.99-0.87-1.99-2.569c0-1.9,0.83-2.63,2.1-2.63
	c1.51,0,2.19,1.11,1.97,2.919h-3.31C64.047,91.444,64.367,91.994,65.356,91.994z"/>
<path d="M70.416,87.475c0.46,0,1.36,0.15,1.36,0.15l-0.02,0.65c0,0-0.8-0.09-1.18-0.09c-1.15,0-1.46,0.48-1.46,1.8
	c0,1.46,0.23,1.99,1.46,1.99c0.38,0,1.19-0.09,1.19-0.09l0.03,0.65c0,0-0.94,0.14-1.39,0.14c-1.6,0-2.06-0.73-2.06-2.689
	C68.346,88.174,68.926,87.475,70.416,87.475z"/>
<polygon points="73.836,92.574 73.086,92.574 73.086,88.984 73.086,85.395 73.836,85.395 73.836,87.49 73.836,89.584 74.605,89.544 
	76.096,87.575 76.936,87.575 75.266,89.875 76.965,92.574 76.116,92.574 74.616,90.284 73.836,90.324 73.836,91.449 "/>
<path d="M83.127,90.124l-1.479,0.12c-0.61,0.06-0.86,0.37-0.86,0.88c0,0.58,0.26,0.9,0.709,0.9c0.76,0,1.63-0.3,1.63-0.3v-0.8
	V90.124z M83.867,89.104v1.23v1.229c0.02,0.32,0.26,0.42,0.58,0.46l-0.03,0.65c-0.6,0-0.92-0.11-1.18-0.38c0,0-0.9,0.38-1.85,0.38
	c-0.87,0-1.36-0.55-1.36-1.53c0-0.96,0.49-1.39,1.52-1.48l1.58-0.15c0.07-0.8-0.16-1.32-0.87-1.32c-0.73,0-1.91,0.13-1.91,0.13
	l-0.03-0.65c0,0,1.2-0.2,1.97-0.2C83.347,87.475,83.867,87.975,83.867,89.104z"/>
<path d="M88.727,87.575h0.74v2.5v2.5h-0.74v-0.16v-0.16c0,0-0.78,0.42-1.48,0.42c-1.4,0-1.689-0.64-1.689-2.49v-1.305v-1.305h0.74
	v1.3v1.3c0,1.38,0.12,1.83,1.06,1.83c0.66,0,1.37-0.37,1.37-0.37v-2.03V87.575z"/>
<path d="M93.656,88.254h-1.58v1.165v1.165c0,1.09,0.06,1.39,0.72,1.39c0.28,0,0.89-0.05,0.89-0.05l0.04,0.65
	c0,0-0.66,0.11-1.01,0.11c-1.03,0-1.39-0.39-1.39-1.83v-1.3v-1.3h-0.71v-0.34v-0.34h0.71V86.81v-0.765h0.75v0.765v0.765h1.58v0.34
	V88.254z"/>
<path d="M95.596,92.574h-0.75v-3.65v-3.649h0.75v1.27v1.27c0,0,0.84-0.34,1.54-0.34c1.38,0,1.69,0.68,1.69,2.49v1.305v1.305h-0.75
	v-1.3v-1.3c0-1.32-0.15-1.81-1.05-1.81c-0.67,0-1.43,0.29-1.43,0.29v2.06V92.574z"/>
<path d="M100.885,89.784h2.6c0-1.2-0.39-1.64-1.26-1.64C101.365,88.145,100.885,88.614,100.885,89.784z M102.205,91.994
	c0.75,0,1.83-0.09,1.83-0.09l0.02,0.61c0,0-1.13,0.16-1.94,0.16c-1.5,0-1.99-0.87-1.99-2.569c0-1.9,0.83-2.63,2.1-2.63
	c1.51,0,2.19,1.11,1.97,2.919h-3.31C100.896,91.444,101.215,91.994,102.205,91.994z"/>
<path d="M108.005,88.254h-1.58v1.165v1.165c0,1.09,0.06,1.39,0.72,1.39c0.28,0,0.89-0.05,0.89-0.05l0.04,0.65
	c0,0-0.66,0.11-1.01,0.11c-1.03,0-1.39-0.39-1.39-1.83v-1.3v-1.3h-0.71v-0.34v-0.34h0.71V86.81v-0.765h0.75v0.765v0.765h1.58v0.34
	V88.254z"/>
<path d="M109.135,86.445V86.01v-0.435h0.74v0.435v0.435H109.135z M109.135,92.574v-2.5v-2.5h0.74v2.5v2.5H109.135z"/>
<path d="M113.254,87.475c0.46,0,1.36,0.15,1.36,0.15l-0.02,0.65c0,0-0.8-0.09-1.18-0.09c-1.15,0-1.46,0.48-1.46,1.8
	c0,1.46,0.23,1.99,1.46,1.99c0.38,0,1.19-0.09,1.19-0.09l0.03,0.65c0,0-0.94,0.14-1.39,0.14c-1.6,0-2.06-0.73-2.06-2.689
	C111.185,88.174,111.764,87.475,113.254,87.475z"/>
<path d="M118.644,90.124l-1.48,0.12c-0.61,0.06-0.86,0.37-0.86,0.88c0,0.58,0.26,0.9,0.71,0.9c0.76,0,1.63-0.3,1.63-0.3v-0.8V90.124
	z M119.383,89.104v1.23v1.229c0.02,0.32,0.26,0.42,0.58,0.46l-0.03,0.65c-0.6,0-0.92-0.11-1.18-0.38c0,0-0.9,0.38-1.85,0.38
	c-0.87,0-1.36-0.55-1.36-1.53c0-0.96,0.49-1.39,1.52-1.48l1.58-0.15c0.07-0.8-0.16-1.32-0.87-1.32c-0.729,0-1.91,0.13-1.91,0.13
	l-0.03-0.65c0,0,1.2-0.2,1.97-0.2C118.864,87.475,119.383,87.975,119.383,89.104z"/>
<path d="M123.583,88.254h-1.58v1.165v1.165c0,1.09,0.06,1.39,0.72,1.39c0.28,0,0.89-0.05,0.89-0.05l0.04,0.65
	c0,0-0.66,0.11-1.01,0.11c-1.03,0-1.39-0.39-1.39-1.83v-1.3v-1.3h-0.71v-0.34v-0.34h0.71V86.81v-0.765h0.75v0.765v0.765h1.58v0.34
	V88.254z"/>
<path d="M124.713,86.445V86.01v-0.435h0.74v0.435v0.435H124.713z M124.713,92.574v-2.5v-2.5h0.74v2.5v2.5H124.713z"/>
<path d="M128.913,92.004c1.18,0,1.36-0.66,1.36-1.979c0-1.33-0.4-1.87-1.36-1.87c-1.06,0-1.38,0.48-1.38,1.85
	C127.533,91.404,127.733,92.004,128.913,92.004z M128.913,87.475c1.51,0,2.13,0.84,2.13,2.55c0,1.729-0.44,2.649-2.13,2.649
	s-2.15-0.84-2.15-2.669C126.763,88.285,127.333,87.475,128.913,87.475z"/>
<path d="M133.162,92.574h-0.75v-2.5v-2.5h0.75v0.165v0.165c0,0,0.84-0.43,1.55-0.43c1.37,0,1.68,0.68,1.68,2.5v1.3v1.3h-0.74v-1.295
	v-1.295c0-1.33-0.15-1.82-1.06-1.82c-0.66,0-1.43,0.37-1.43,0.37v2.02V92.574z"/>
<path fill="#C1E4F7" d="M229.5,56.25c0-1.26,0.99-2.25,2.25-2.25h85.5c1.26,0,2.25,0.99,2.25,2.25v67.5c0,1.26-0.99,2.25-2.25,2.25
	h-85.5c-1.26,0-2.25-0.99-2.25-2.25V56.25z"/>
<path opacity="0" fill="none" stroke="#000000" stroke-width="0.9" stroke-miterlimit="10" d="M229.5,56.25
	c0-1.26,0.99-2.25,2.25-2.25h85.5c1.26,0,2.25,0.99,2.25,2.25v67.5c0,1.26-0.99,2.25-2.25,2.25h-85.5c-1.26,0-2.25-0.99-2.25-2.25
	V56.25z"/>
<path d="M256.86,81.95h0.74v2.5v2.5h-0.74v-0.16v-0.16c0,0-0.779,0.42-1.479,0.42c-1.4,0-1.69-0.64-1.69-2.49v-1.305V81.95h0.74v1.3
	v1.3c0,1.38,0.12,1.83,1.06,1.83c0.66,0,1.37-0.37,1.37-0.37v-2.03V81.95z"/>
<path d="M262.64,82.04l-0.02,0.65c0,0-1.11-0.16-1.75-0.16c-0.62,0-1.08,0.16-1.08,0.75c0,0.47,0.23,0.61,1.22,0.76
	c1.32,0.21,1.8,0.48,1.8,1.45c0,1.17-0.739,1.56-1.949,1.56c-0.64,0-1.76-0.19-1.76-0.19l0.04-0.65c0,0,1.14,0.17,1.649,0.17
	c0.82,0,1.26-0.18,1.26-0.86c0-0.52-0.26-0.64-1.26-0.8c-1.22-0.19-1.76-0.43-1.76-1.41c0-1.1,0.89-1.46,1.8-1.46
	C261.58,81.85,262.64,82.04,262.64,82.04z"/>
<path d="M264.63,84.159h2.6c0-1.2-0.39-1.64-1.26-1.64C265.109,82.52,264.63,82.989,264.63,84.159z M265.949,86.369
	c0.75,0,1.83-0.09,1.83-0.09l0.021,0.61c0,0-1.13,0.16-1.94,0.16c-1.5,0-1.989-0.87-1.989-2.569c0-1.9,0.83-2.63,2.1-2.63
	c1.51,0,2.189,1.11,1.97,2.919h-3.31C264.64,85.819,264.96,86.369,265.949,86.369z"/>
<path d="M269.31,86.949v-2.5v-2.5h0.75v0.33v0.33c0,0,0.77-0.58,1.739-0.76v0.39v0.39c-0.939,0.18-1.739,0.69-1.739,0.69v1.815
	v1.815H269.31z"/>
<path d="M277.661,82.629h-1.58v1.165v1.165c0,1.09,0.061,1.39,0.72,1.39c0.28,0,0.891-0.05,0.891-0.05l0.04,0.65
	c0,0-0.66,0.11-1.01,0.11c-1.03,0-1.391-0.39-1.391-1.83v-1.3v-1.3h-0.71v-0.34v-0.34h0.71v-0.765v-0.765h0.75v0.765v0.765h1.58
	v0.34V82.629z"/>
<path d="M281.57,84.499l-1.479,0.12c-0.609,0.06-0.859,0.37-0.859,0.88c0,0.58,0.26,0.9,0.71,0.9c0.76,0,1.629-0.3,1.629-0.3v-0.8
	V84.499z M282.311,83.479v1.23v1.229c0.021,0.32,0.26,0.42,0.58,0.46l-0.03,0.65c-0.6,0-0.92-0.11-1.18-0.38
	c0,0-0.899,0.38-1.85,0.38c-0.87,0-1.36-0.55-1.36-1.53c0-0.96,0.49-1.39,1.521-1.48l1.579-0.15c0.07-0.8-0.159-1.32-0.869-1.32
	c-0.73,0-1.91,0.13-1.91,0.13l-0.03-0.65c0,0,1.2-0.2,1.97-0.2C281.791,81.85,282.311,82.35,282.311,83.479z"/>
<path d="M285.74,86.379c1.37,0,1.61-0.62,1.61-2c0-1.3-0.261-1.84-1.141-1.84c-0.659,0-1.39,0.27-1.39,0.27v1.755v1.754
	C284.82,86.319,285.471,86.379,285.74,86.379z M286.28,81.85c1.36,0,1.83,0.72,1.83,2.51c0,1.979-0.54,2.689-2.36,2.689
	c-0.6,0-1.68-0.11-1.68-0.11v-3.584V79.77h0.75v1.205v1.205C284.82,82.18,285.57,81.85,286.28,81.85z"/>
<polygon points="289.45,86.949 289.45,83.359 289.45,79.77 290.189,79.77 290.189,83.359 290.189,86.949 "/>
<path d="M292.29,84.159h2.6c0-1.2-0.391-1.64-1.26-1.64C292.77,82.52,292.29,82.989,292.29,84.159z M293.609,86.369
	c0.75,0,1.83-0.09,1.83-0.09l0.02,0.61c0,0-1.13,0.16-1.939,0.16c-1.5,0-1.99-0.87-1.99-2.569c0-1.9,0.83-2.63,2.101-2.63
	c1.51,0,2.189,1.11,1.97,2.919h-3.31C292.3,85.819,292.62,86.369,293.609,86.369z"/>
<path d="M259.696,96.953v-2.5v-2.5h0.75v0.33v0.33c0,0,0.77-0.58,1.74-0.76v0.39v0.39c-0.94,0.18-1.74,0.69-1.74,0.69v1.815v1.815
	H259.696z"/>
<path d="M265.036,96.383c1.18,0,1.359-0.66,1.359-1.98c0-1.33-0.399-1.87-1.359-1.87c-1.061,0-1.38,0.48-1.38,1.85
	C263.656,95.783,263.856,96.383,265.036,96.383z M265.036,91.853c1.51,0,2.13,0.84,2.13,2.55c0,1.73-0.44,2.65-2.13,2.65
	c-1.69,0-2.15-0.84-2.15-2.67C262.886,92.663,263.456,91.853,265.036,91.853z"/>
<polygon points="268.506,96.953 268.506,93.363 268.506,89.773 269.245,89.773 269.245,93.363 269.245,96.953 "/>
<path d="M271.346,94.163h2.6c0-1.2-0.391-1.64-1.26-1.64C271.825,92.523,271.346,92.993,271.346,94.163z M272.665,96.373
	c0.75,0,1.83-0.09,1.83-0.09l0.02,0.61c0,0-1.13,0.16-1.939,0.16c-1.5,0-1.99-0.87-1.99-2.57c0-1.9,0.83-2.63,2.101-2.63
	c1.51,0,2.189,1.11,1.97,2.92h-3.31C271.355,95.823,271.675,96.373,272.665,96.373z"/>
<path d="M279.314,92.043l-0.02,0.65c0,0-1.11-0.16-1.75-0.16c-0.62,0-1.08,0.16-1.08,0.75c0,0.47,0.229,0.61,1.22,0.76
	c1.32,0.21,1.8,0.48,1.8,1.45c0,1.17-0.74,1.56-1.95,1.56c-0.64,0-1.76-0.19-1.76-0.19l0.04-0.65c0,0,1.141,0.17,1.65,0.17
	c0.819,0,1.26-0.18,1.26-0.86c0-0.52-0.26-0.64-1.26-0.8c-1.22-0.19-1.76-0.43-1.76-1.41c0-1.1,0.89-1.46,1.8-1.46
	C278.255,91.853,279.314,92.043,279.314,92.043z"/>
<path d="M280.645,96.953v-0.57v-0.57h0.819v0.57v0.57H280.645z M280.645,93.733v-0.57v-0.57h0.819v0.57v0.57H280.645z"/>
<polygon points="286.64,89.463 286.64,89.823 286.64,90.183 285.3,90.183 285.3,93.823 285.3,97.462 286.64,97.462 286.64,97.822 
	286.64,98.183 284.54,98.183 284.54,93.823 284.54,89.463 "/>
<polygon points="287.54,90.183 287.54,89.823 287.54,89.463 289.64,89.463 289.64,93.823 289.64,98.183 287.54,98.183 
	287.54,97.822 287.54,97.462 288.88,97.462 288.88,93.823 288.88,90.183 "/>
<rect x="211.5" y="18" fill="#3B48CC" width="27" height="27"/>
<rect x="211.5" y="18" opacity="0" fill="none" stroke="#FFFFFF" stroke-width="0.9" stroke-miterlimit="10" width="27" height="27"/>
<path fill="#FFFFFF" d="M225.9,36.45h-0.45c-0.181,0-0.36-0.135-0.36-0.36v-8.01c0-0.225,0.18-0.36,0.36-0.36h4.274
	c0.091,0,0.181,0.045,0.271,0.135l1.035,1.305l-0.495,0.45l-0.99-1.17h-3.735v7.335h0.091V36.45z"/>
<path opacity="0" fill="none" stroke="#FFFFFF" stroke-width="0.9" stroke-miterlimit="10" d="M225.9,36.45h-0.45
	c-0.181,0-0.36-0.135-0.36-0.36v-8.01c0-0.225,0.18-0.36,0.36-0.36h4.274c0.091,0,0.181,0.045,0.271,0.135l1.035,1.305l-0.495,0.45
	l-0.99-1.17h-3.735v7.335h0.091V36.45z"/>
<path fill="#FFFFFF" d="M227.025,37.08h5.13v-6.21l-1.125-1.125h-4.005V37.08z M232.515,37.755h-5.85c-0.18,0-0.36-0.18-0.36-0.36
	v-8.01c0-0.225,0.181-0.36,0.36-0.36h4.5c0.09,0,0.18,0.045,0.225,0.09l1.351,1.35c0.09,0.09,0.09,0.135,0.09,0.27v6.66
	C232.83,37.575,232.695,37.755,232.515,37.755z"/>
<path opacity="0" fill="none" stroke="#FFFFFF" stroke-width="0.9" stroke-miterlimit="10" d="M227.025,37.08h5.13v-6.21
	l-1.125-1.125h-4.005V37.08z M232.515,37.755h-5.85c-0.18,0-0.36-0.18-0.36-0.36v-8.01c0-0.225,0.181-0.36,0.36-0.36h4.5
	c0.09,0,0.18,0.045,0.225,0.09l1.351,1.35c0.09,0.09,0.09,0.135,0.09,0.27v6.66C232.83,37.575,232.695,37.755,232.515,37.755z"/>
<path fill="#FFFFFF" d="M232.515,31.41h-1.71c-0.18,0-0.359-0.135-0.359-0.36v-1.665h0.675v1.305h1.35L232.515,31.41z"/>
<path opacity="0" fill="none" stroke="#FFFFFF" stroke-width="0.9" stroke-miterlimit="10" d="M232.515,31.41h-1.71
	c-0.18,0-0.359-0.135-0.359-0.36v-1.665h0.675v1.305h1.35L232.515,31.41z"/>
<path fill="#FFFFFF" d="M229.275,35.865h-0.226c-0.18,0-0.359-0.045-0.45-0.18c-0.18-0.225-0.225-0.495-0.18-0.72
	c0-0.675-0.36-0.765-0.36-0.765c-0.18-0.09-0.27-0.27-0.225-0.45c0.045-0.135,0.135-0.18,0.225-0.225c0.046,0,0.36-0.135,0.36-0.765
	c0-0.36,0.18-0.81,0.585-0.81h0.271v0.675h-0.136c0,0.045,0,0.09,0,0.135c0.045,0.405-0.09,0.765-0.359,1.125
	c0.27,0.315,0.404,0.675,0.359,1.08c0,0.045,0,0.045,0,0.09c0,0.045,0,0.09,0,0.135h0.136V35.865z"/>
<path opacity="0" fill="none" stroke="#FFFFFF" stroke-width="0.9" stroke-miterlimit="10" d="M229.275,35.865h-0.226
	c-0.18,0-0.359-0.045-0.45-0.18c-0.18-0.225-0.225-0.495-0.18-0.72c0-0.675-0.36-0.765-0.36-0.765c-0.18-0.09-0.27-0.27-0.225-0.45
	c0.045-0.135,0.135-0.18,0.225-0.225c0.046,0,0.36-0.135,0.36-0.765c0-0.36,0.18-0.81,0.585-0.81h0.271v0.675h-0.136
	c0,0.045,0,0.09,0,0.135c0.045,0.405-0.09,0.765-0.359,1.125c0.27,0.315,0.404,0.675,0.359,1.08c0,0.045,0,0.045,0,0.09
	c0,0.045,0,0.09,0,0.135h0.136V35.865z"/>
<path fill="#FFFFFF" d="M230.265,35.865V35.19h0.136c0-0.045,0-0.09,0-0.135c-0.045-0.405,0.09-0.765,0.359-1.08
	c-0.27-0.36-0.404-0.72-0.359-1.125c-0.045,0-0.045-0.045,0-0.045c0-0.09,0-0.135,0-0.18h-0.181V31.95h0.226
	c0.18,0,0.359,0.045,0.449,0.18c0.181,0.225,0.226,0.495,0.181,0.72c0,0.63,0.359,0.765,0.359,0.765
	c0.136,0.045,0.226,0.18,0.226,0.36c0,0.18-0.09,0.27-0.271,0.315c0,0-0.359,0.135-0.359,0.765c0,0.405-0.136,0.81-0.585,0.81
	H230.265z"/>
<path opacity="0" fill="none" stroke="#FFFFFF" stroke-width="0.9" stroke-miterlimit="10" d="M230.265,35.865V35.19h0.136
	c0-0.045,0-0.09,0-0.135c-0.045-0.405,0.09-0.765,0.359-1.08c-0.27-0.36-0.404-0.72-0.359-1.125c-0.045,0-0.045-0.045,0-0.045
	c0-0.09,0-0.135,0-0.18h-0.181V31.95h0.226c0.18,0,0.359,0.045,0.449,0.18c0.181,0.225,0.226,0.495,0.181,0.72
	c0,0.63,0.359,0.765,0.359,0.765c0.136,0.045,0.226,0.18,0.226,0.36c0,0.18-0.09,0.27-0.271,0.315c0,0-0.359,0.135-0.359,0.765
	c0,0.405-0.136,0.81-0.585,0.81H230.265z"/>
<path fill="#FFFFFF" d="M223.11,23.445c-3.105,0-5.266,0.945-5.266,1.8c0,0.9,2.16,1.845,5.266,1.845
	c3.104,0,5.265-0.945,5.265-1.845C228.375,24.39,226.215,23.445,223.11,23.445z M223.11,27.81c-2.88,0-5.94-0.9-5.94-2.52
	c0-1.665,3.061-2.52,5.94-2.52s5.939,0.855,5.939,2.52C229.05,26.91,225.99,27.81,223.11,27.81z"/>
<path opacity="0" fill="none" stroke="#FFFFFF" stroke-width="0.9" stroke-miterlimit="10" d="M223.11,23.445
	c-3.105,0-5.266,0.945-5.266,1.8c0,0.9,2.16,1.845,5.266,1.845c3.104,0,5.265-0.945,5.265-1.845
	C228.375,24.39,226.215,23.445,223.11,23.445z M223.11,27.81c-2.88,0-5.94-0.9-5.94-2.52c0-1.665,3.061-2.52,5.94-2.52
	s5.939,0.855,5.939,2.52C229.05,26.91,225.99,27.81,223.11,27.81z"/>
<rect x="228.33" y="25.245" fill="#FFFFFF" width="0.72" height="2.205"/>
<rect x="228.33" y="25.245" opacity="0" fill="none" stroke="#FFFFFF" stroke-width="0.9" stroke-miterlimit="10" width="0.72" height="2.205"/>
<path fill="#FFFFFF" d="M223.11,40.275c-2.88,0-5.94-0.9-5.94-2.52v-12.51h0.675V37.71c0,0.9,2.16,1.845,5.266,1.845
	c3.104,0,5.265-0.945,5.265-1.845h0.675C229.05,39.375,225.99,40.275,223.11,40.275z"/>
<path opacity="0" fill="none" stroke="#FFFFFF" stroke-width="0.9" stroke-miterlimit="10" d="M223.11,40.275
	c-2.88,0-5.94-0.9-5.94-2.52v-12.51h0.675V37.71c0,0.9,2.16,1.845,5.266,1.845c3.104,0,5.265-0.945,5.265-1.845h0.675
	C229.05,39.375,225.99,40.275,223.11,40.275z"/>
<path fill="#FFFFFF" d="M223.11,32.13c-3.375,0-5.94-1.08-5.94-2.52h0.72c0,0.9,2.16,1.845,5.221,1.845c0.54,0,1.034,0,1.574-0.09
	l0.046,0.72C224.19,32.13,223.695,32.175,223.11,32.13z"/>
<path opacity="0" fill="none" stroke="#FFFFFF" stroke-width="0.9" stroke-miterlimit="10" d="M223.11,32.13
	c-3.375,0-5.94-1.08-5.94-2.52h0.72c0,0.9,2.16,1.845,5.221,1.845c0.54,0,1.034,0,1.574-0.09l0.046,0.72
	C224.19,32.13,223.695,32.175,223.11,32.13z"/>
<path fill="#FFFFFF" d="M223.11,36.45c-3.375,0-5.94-1.08-5.94-2.52h0.72c0,0.855,2.16,1.8,5.221,1.8
	c0.54,0.045,0.989,0,1.574-0.045l0.046,0.675C224.19,36.405,223.695,36.45,223.11,36.45z"/>
<path opacity="0" fill="none" stroke="#FFFFFF" stroke-width="0.9" stroke-miterlimit="10" d="M223.11,36.45
	c-3.375,0-5.94-1.08-5.94-2.52h0.72c0,0.855,2.16,1.8,5.221,1.8c0.54,0.045,0.989,0,1.574-0.045l0.046,0.675
	C224.19,36.405,223.695,36.45,223.11,36.45z"/>
<path fill="none" stroke="#3B48CC" stroke-width="0.9" stroke-miterlimit="10" d="M211.5,19.8V18h1.755 M211.5,27v-3.6 M211.5,34.2
	v-3.6 M211.5,41.4v-3.6 M211.5,48.6V45 M211.5,55.8v-3.6 M211.5,63v-3.6 M211.5,70.2v-3.6 M211.5,77.4v-3.6 M211.5,84.6V81
	 M211.5,91.8v-3.6 M211.5,99v-3.6 M211.5,106.2v-3.6 M211.5,113.4v-3.6 M211.5,120.6V117 M211.5,127.8v-3.6 M211.5,135v-3.6
	 M211.5,142.2V138.6 M211.5,149.4V145.8 M211.5,156.6V153 M211.5,163.8v-3.6 M211.5,171v-3.6 M211.5,178.2V174.6 M211.5,185.4V181.8
	 M211.5,192.6V189 M211.5,199.8v-3.6 M211.5,207v-3.6 M211.5,214.2V210.6 M211.5,221.4V217.8 M211.5,228.6V225 M213.255,234H211.5
	v-1.8 M220.23,234h-3.466 M227.25,234h-3.51 M234.27,234h-3.51 M241.245,234h-3.51 M248.265,234h-3.51 M255.24,234h-3.51
	 M262.26,234h-3.51 M269.235,234h-3.466 M276.255,234h-3.51 M283.23,234h-3.466 M290.25,234h-3.51 M297.27,234h-3.51 M304.245,234
	h-3.51 M311.265,234h-3.51 M318.24,234h-3.51 M325.26,234h-3.51 M332.235,234h-3.466 M337.5,232.2v1.8h-1.755 M337.5,225v3.6
	 M337.5,217.8v3.601 M337.5,210.6v3.601 M337.5,203.4v3.6 M337.5,196.2v3.6 M337.5,189v3.6 M337.5,181.8v3.601 M337.5,174.6v3.601
	 M337.5,167.4v3.6 M337.5,160.2v3.6 M337.5,153v3.6 M337.5,145.8v3.601 M337.5,138.6v3.601 M337.5,131.4v3.6 M337.5,124.2v3.6
	 M337.5,117v3.6 M337.5,109.8v3.6 M337.5,102.6v3.6 M337.5,95.4V99 M337.5,88.2v3.6 M337.5,81v3.6 M337.5,73.8v3.6 M337.5,66.6v3.6
	 M337.5,59.4V63 M337.5,52.2v3.6 M337.5,45v3.6 M337.5,37.8v3.6 M337.5,30.6v3.6 M337.5,23.4V27 M335.745,18h1.755v1.8 M328.77,18
	h3.466 M321.75,18h3.51 M314.73,18h3.51 M307.755,18h3.51 M300.735,18h3.51 M293.76,18h3.51 M286.74,18h3.51 M279.765,18h3.466
	 M272.745,18h3.51 M265.77,18h3.466 M258.75,18h3.51 M251.73,18h3.51 M244.755,18h3.51 M237.735,18h3.51 M230.76,18h3.51 M223.74,18
	h3.51 M216.765,18h3.466"/>
<rect x="229.5" y="18" opacity="0" fill="none" stroke="#000000" stroke-width="0.9" stroke-miterlimit="10" width="108" height="27"/>
<polygon fill="#3B48CC" points="247.964,33.372 247.964,29.912 247.964,26.453 249.874,26.453 251.443,31.712 253.014,26.453 
	254.913,26.453 254.913,29.912 254.913,33.372 253.733,33.372 253.733,30.642 253.733,27.913 253.594,27.913 252.044,33.092 
	250.844,33.092 249.284,27.913 249.134,27.913 249.134,30.642 249.134,33.372 "/>
<path fill="#3B48CC" d="M258.333,32.452c0.89,0,1.08-0.54,1.08-1.6c0-1.05-0.271-1.55-1.08-1.55c-0.85,0-1.09,0.48-1.09,1.55
	C257.243,31.932,257.443,32.452,258.333,32.452z M258.333,28.263c1.66,0,2.239,1,2.239,2.589c0,1.61-0.52,2.63-2.239,2.63
	s-2.25-1-2.25-2.63C256.083,29.252,256.643,28.263,258.333,28.263z"/>
<path fill="#3B48CC" d="M262.853,33.372h-1.14v-2.495v-2.495h1.14v0.125v0.125c0,0,0.79-0.37,1.34-0.37c1.39,0,1.739,0.82,1.739,2.5
	v1.305v1.305h-1.14v-1.3v-1.3c0-0.95-0.12-1.44-0.819-1.44c-0.44,0-1.12,0.23-1.12,0.23v1.905V33.372z"/>
<path fill="#3B48CC" d="M269.052,30.802c0.64,0,0.92-0.2,0.92-0.78c0-0.59-0.26-0.77-0.91-0.77c-0.6,0-0.859,0.21-0.859,0.77
	C268.202,30.552,268.412,30.802,269.052,30.802z M269.452,33.532c-0.311,0-0.971-0.06-0.971-0.06c-0.25,0.22-0.359,0.38-0.359,0.67
	c0,0.43,0.33,0.6,1.2,0.6c0.77,0,1.159-0.18,1.159-0.64C270.481,33.592,270.241,33.542,269.452,33.532z M269.312,35.772
	c-1.5,0-2.319-0.3-2.319-1.51c0-0.5,0.229-0.83,0.74-1.22c-0.211-0.14-0.33-0.42-0.33-0.73c0-0.23,0.369-0.79,0.369-0.79
	c-0.369-0.23-0.72-0.61-0.72-1.5c0-1.27,0.87-1.75,2.021-1.75c0.459,0,1.02,0.13,1.02,0.13l1.52-0.03v0.465v0.465h-0.72
	c0.11,0.15,0.21,0.35,0.21,0.72c0,1.53-1.01,1.84-2.489,1.7c-0.15,0.56-0.36,0.82,0.93,0.82c1.609,0,2.1,0.35,2.1,1.5
	C271.642,35.282,270.642,35.772,269.312,35.772z"/>
<path fill="#3B48CC" d="M274.562,32.452c0.89,0,1.08-0.54,1.08-1.6c0-1.05-0.271-1.55-1.08-1.55c-0.851,0-1.09,0.48-1.09,1.55
	C273.472,31.932,273.671,32.452,274.562,32.452z M274.562,28.263c1.659,0,2.239,1,2.239,2.589c0,1.61-0.52,2.63-2.239,2.63
	s-2.25-1-2.25-2.63C272.312,29.252,272.871,28.263,274.562,28.263z"/>
<path fill="#3B48CC" d="M282.02,32.422c0.49,0,1.12-0.22,1.12-0.22v-1.405v-1.405c-0.05,0-0.62-0.09-1.04-0.09
	c-0.689,0-1,0.45-1,1.55C281.1,32.062,281.41,32.422,282.02,32.422z M284.289,26.373v3.5v3.5h-1.149v-0.12v-0.12
	c0,0-0.71,0.35-1.3,0.35c-1.33,0-1.9-0.75-1.9-2.64c0-1.79,0.66-2.58,2.08-2.58c0.391,0,1.07,0.12,1.12,0.13v-1.01v-1.01H284.289z"
	/>
<path fill="#3B48CC" d="M288.359,31.152c-0.71,0.08-1.76-0.12-1.76,0.7c0,0.42,0.18,0.65,0.51,0.65c0.53,0,1.25-0.2,1.25-0.2v-0.575
	V31.152z M289.499,29.952v1.03v1.03c0.01,0.35,0.12,0.45,0.41,0.5l-0.04,0.97c-0.78,0-1.04-0.12-1.34-0.35c0,0-0.86,0.35-1.63,0.35
	c-0.95,0-1.45-0.61-1.45-1.6c0-1.07,0.59-1.44,1.67-1.52l1.24-0.1c0.06-0.55-0.12-0.9-0.62-0.9c-0.74,0-1.93,0.09-1.93,0.09
	l-0.04-0.97c0,0,1.29-0.22,2.029-0.22C288.899,28.263,289.499,28.723,289.499,29.952z"/>
<path fill="#3B48CC" d="M293.589,29.413h-1.351v1.02v1.02c0,0.69,0.021,0.95,0.521,0.95c0.28,0,0.81-0.03,0.81-0.03l0.05,0.98
	c0,0-0.67,0.14-1.02,0.14c-1.149,0-1.5-0.44-1.5-1.88v-1.1v-1.1h-0.63v-0.515v-0.515h0.63v-0.725v-0.725h1.14v0.725v0.725h1.351
	v0.515V29.413z"/>
<path fill="#3B48CC" d="M297.158,31.152c-0.71,0.08-1.76-0.12-1.76,0.7c0,0.42,0.18,0.65,0.51,0.65c0.53,0,1.25-0.2,1.25-0.2v-0.575
	V31.152z M298.298,29.952v1.03v1.03c0.011,0.35,0.12,0.45,0.41,0.5l-0.04,0.97c-0.78,0-1.04-0.12-1.34-0.35
	c0,0-0.859,0.35-1.63,0.35c-0.95,0-1.45-0.61-1.45-1.6c0-1.07,0.591-1.44,1.67-1.52l1.24-0.1c0.06-0.55-0.12-0.9-0.62-0.9
	c-0.739,0-1.93,0.09-1.93,0.09l-0.04-0.97c0,0,1.29-0.22,2.03-0.22C297.698,28.263,298.298,28.723,298.298,29.952z"/>
<path fill="#3B48CC" d="M301.668,32.452c1.069,0,1.29-0.46,1.29-1.64c0-1.1-0.301-1.49-0.94-1.49c-0.439,0-1.06,0.14-1.06,0.14v1.47
	v1.47C300.958,32.402,301.478,32.452,301.668,32.452z M302.168,28.263c1.359,0,1.949,0.68,1.949,2.55
	c0,2.08-0.659,2.669-2.439,2.669c-0.52,0-1.859-0.13-1.859-0.13v-3.52v-3.52h1.14v1.11v1.11
	C300.958,28.533,301.638,28.263,302.168,28.263z"/>
<path fill="#3B48CC" d="M307.857,31.152c-0.71,0.08-1.76-0.12-1.76,0.7c0,0.42,0.18,0.65,0.51,0.65c0.53,0,1.25-0.2,1.25-0.2v-0.575
	V31.152z M308.997,29.952v1.03v1.03c0.01,0.35,0.12,0.45,0.41,0.5l-0.04,0.97c-0.78,0-1.04-0.12-1.34-0.35c0,0-0.86,0.35-1.63,0.35
	c-0.95,0-1.45-0.61-1.45-1.6c0-1.07,0.59-1.44,1.67-1.52l1.24-0.1c0.06-0.55-0.12-0.9-0.62-0.9c-0.74,0-1.93,0.09-1.93,0.09
	l-0.04-0.97c0,0,1.29-0.22,2.029-0.22C308.397,28.263,308.997,28.723,308.997,29.952z"/>
<path fill="#3B48CC" d="M314.066,28.493l-0.02,0.97c0,0-1.2-0.16-1.8-0.16c-0.59,0-0.83,0.13-0.83,0.51c0,0.31,0.21,0.39,1.04,0.52
	c1.319,0.21,1.76,0.56,1.76,1.55c0,1.17-0.76,1.6-1.99,1.6c-0.71,0-1.87-0.22-1.87-0.22l0.04-0.97c0,0,1.21,0.16,1.721,0.16
	c0.699,0,0.959-0.14,0.959-0.54c0-0.32-0.159-0.41-0.959-0.54c-1.28-0.21-1.84-0.49-1.84-1.53c0-1.14,0.89-1.58,1.89-1.58
	C312.896,28.263,314.066,28.493,314.066,28.493z"/>
<path fill="#3B48CC" d="M316.267,30.472h2.02c0-0.87-0.29-1.19-1-1.19S316.267,29.643,316.267,30.472z M317.386,32.442
	c0.79,0,1.84-0.09,1.84-0.09l0.021,0.89c0,0-1.14,0.24-2.03,0.24c-1.51,0-2.1-0.79-2.1-2.55c0-1.82,0.78-2.669,2.17-2.669
	c1.42,0,2.13,0.73,2.13,2.28l-0.08,0.82h-3.069C316.276,32.092,316.576,32.442,317.386,32.442z"/>
<path fill="#3B48CC" d="M230.445,58.005h3.06v-3.06h-3.06V58.005z M234.45,58.95h-4.95V54h4.95V58.95z"/>
<path opacity="0" fill="none" stroke="#FFFFFF" stroke-width="0.45" stroke-miterlimit="10" d="M230.445,58.005h3.06v-3.06h-3.06
	V58.005z M234.45,58.95h-4.95V54h4.95V58.95z"/>
<path fill="#3B48CC" d="M230.445,63.765h3.06v-3.06h-3.06V63.765z M234.45,64.71h-4.95v-4.95h4.95V64.71z"/>
<path opacity="0" fill="none" stroke="#FFFFFF" stroke-width="0.45" stroke-miterlimit="10" d="M230.445,63.765h3.06v-3.06h-3.06
	V63.765z M234.45,64.71h-4.95v-4.95h4.95V64.71z"/>
<path fill="#3B48CC" d="M230.445,69.525h3.06V66.51h-3.06V69.525z M234.45,70.47h-4.95v-4.905h4.95V70.47z"/>
<path opacity="0" fill="none" stroke="#FFFFFF" stroke-width="0.45" stroke-miterlimit="10" d="M230.445,69.525h3.06V66.51h-3.06
	V69.525z M234.45,70.47h-4.95v-4.905h4.95V70.47z"/>
<path fill="#3B48CC" d="M230.445,75.285h3.06V72.27h-3.06V75.285z M234.45,76.275h-4.95v-4.95h4.95V76.275z"/>
<path opacity="0" fill="none" stroke="#FFFFFF" stroke-width="0.45" stroke-miterlimit="10" d="M230.445,75.285h3.06V72.27h-3.06
	V75.285z M234.45,76.275h-4.95v-4.95h4.95V76.275z"/>
<path fill="#3B48CC" d="M236.205,58.005h14.625v-3.06h-14.625V58.005z M251.775,58.95H235.26V54h16.516V58.95z"/>
<path opacity="0" fill="none" stroke="#FFFFFF" stroke-width="0.45" stroke-miterlimit="10" d="M236.205,58.005h14.625v-3.06
	h-14.625V58.005z M251.775,58.95H235.26V54h16.516V58.95z"/>
<path fill="#3B48CC" d="M236.205,63.765h14.625v-3.06h-14.625V63.765z M251.775,64.71H235.26v-4.95h16.516V64.71z"/>
<path opacity="0" fill="none" stroke="#FFFFFF" stroke-width="0.45" stroke-miterlimit="10" d="M236.205,63.765h14.625v-3.06
	h-14.625V63.765z M251.775,64.71H235.26v-4.95h16.516V64.71z"/>
<path fill="#3B48CC" d="M236.205,69.525h14.625V66.51h-14.625V69.525z M251.775,70.47H235.26v-4.905h16.516V70.47z"/>
<path opacity="0" fill="none" stroke="#FFFFFF" stroke-width="0.45" stroke-miterlimit="10" d="M236.205,69.525h14.625V66.51
	h-14.625V69.525z M251.775,70.47H235.26v-4.905h16.516V70.47z"/>
<path fill="#3B48CC" d="M236.205,75.285h14.625V72.27h-14.625V75.285z M251.775,76.275H235.26v-4.95h16.516V76.275z"/>
<path opacity="0" fill="none" stroke="#FFFFFF" stroke-width="0.45" stroke-miterlimit="10" d="M236.205,75.285h14.625V72.27
	h-14.625V75.285z M251.775,76.275H235.26v-4.95h16.516V76.275z"/>
<rect x="229.905" y="54.45" opacity="0" fill="none" stroke="#FFFFFF" stroke-width="0.1813" stroke-miterlimit="10" width="21.375" height="21.285"/>
<path fill="#C1E4F7" d="M229.5,146.25c0-1.26,0.99-2.25,2.25-2.25h85.5c1.26,0,2.25,0.99,2.25,2.25v67.5c0,1.26-0.99,2.25-2.25,2.25
	h-85.5c-1.26,0-2.25-0.99-2.25-2.25V146.25z"/>
<path opacity="0" fill="none" stroke="#000000" stroke-width="0.9" stroke-miterlimit="10" d="M229.5,146.25
	c0-1.26,0.99-2.25,2.25-2.25h85.5c1.26,0,2.25,0.99,2.25,2.25v67.5c0,1.26-0.99,2.25-2.25,2.25h-85.5c-1.26,0-2.25-0.99-2.25-2.25
	V146.25z"/>
<path d="M252.708,183.28v-2.5v-2.499h0.75v0.33v0.33c0,0,0.77-0.58,1.739-0.761v0.391v0.39c-0.939,0.18-1.739,0.689-1.739,0.689
	v1.815v1.814H252.708z"/>
<path d="M258.047,182.711c1.181,0,1.36-0.66,1.36-1.98c0-1.329-0.4-1.869-1.36-1.869c-1.06,0-1.379,0.479-1.379,1.85
	C256.668,182.11,256.867,182.711,258.047,182.711z M258.047,178.181c1.511,0,2.13,0.84,2.13,2.55c0,1.73-0.439,2.65-2.13,2.65
	c-1.689,0-2.149-0.84-2.149-2.67C255.897,178.991,256.468,178.181,258.047,178.181z"/>
<polygon points="261.517,183.28 261.517,179.69 261.517,176.102 262.257,176.102 262.257,179.69 262.257,183.28 "/>
<path d="M264.356,180.491h2.6c0-1.2-0.39-1.641-1.26-1.641C264.837,178.851,264.356,179.321,264.356,180.491z M265.677,182.7
	c0.75,0,1.83-0.09,1.83-0.09l0.02,0.61c0,0-1.13,0.16-1.939,0.16c-1.5,0-1.99-0.87-1.99-2.57c0-1.899,0.83-2.63,2.1-2.63
	c1.51,0,2.19,1.11,1.97,2.92h-3.31C264.367,182.15,264.687,182.7,265.677,182.7z"/>
<path d="M272.326,178.371l-0.021,0.649c0,0-1.109-0.159-1.75-0.159c-0.619,0-1.079,0.159-1.079,0.75c0,0.47,0.229,0.609,1.22,0.76
	c1.319,0.21,1.8,0.479,1.8,1.449c0,1.17-0.74,1.561-1.95,1.561c-0.64,0-1.76-0.19-1.76-0.19l0.04-0.649c0,0,1.14,0.17,1.65,0.17
	c0.819,0,1.26-0.181,1.26-0.86c0-0.52-0.261-0.64-1.26-0.8c-1.221-0.19-1.761-0.43-1.761-1.41c0-1.1,0.891-1.46,1.8-1.46
	C271.266,178.181,272.326,178.371,272.326,178.371z"/>
<path d="M278.719,178.961h-1.58v1.165v1.165c0,1.09,0.061,1.39,0.72,1.39c0.28,0,0.891-0.05,0.891-0.05l0.04,0.649
	c0,0-0.66,0.11-1.011,0.11c-1.029,0-1.39-0.39-1.39-1.83v-1.3v-1.3h-0.71v-0.34v-0.34h0.71v-0.766v-0.765h0.75v0.765v0.766h1.58
	v0.34V178.961z"/>
<path d="M282.628,180.831l-1.479,0.12c-0.61,0.06-0.86,0.369-0.86,0.88c0,0.579,0.261,0.899,0.71,0.899c0.761,0,1.63-0.3,1.63-0.3
	v-0.8V180.831z M283.368,179.811v1.23v1.229c0.021,0.32,0.26,0.42,0.58,0.46l-0.03,0.65c-0.6,0-0.92-0.11-1.18-0.38
	c0,0-0.9,0.38-1.85,0.38c-0.87,0-1.36-0.551-1.36-1.53c0-0.96,0.49-1.39,1.521-1.479l1.579-0.15c0.07-0.8-0.159-1.319-0.869-1.319
	c-0.73,0-1.91,0.13-1.91,0.13l-0.03-0.65c0,0,1.2-0.2,1.97-0.2C282.849,178.181,283.368,178.681,283.368,179.811z"/>
<path d="M286.798,182.711c1.37,0,1.609-0.62,1.609-2c0-1.3-0.26-1.84-1.14-1.84c-0.66,0-1.39,0.27-1.39,0.27v1.755v1.755
	C285.878,182.65,286.528,182.711,286.798,182.711z M287.338,178.181c1.359,0,1.83,0.721,1.83,2.51c0,1.98-0.54,2.69-2.36,2.69
	c-0.6,0-1.68-0.11-1.68-0.11v-3.585v-3.584h0.75v1.204v1.205C285.878,178.511,286.628,178.181,287.338,178.181z"/>
<polygon points="290.508,183.28 290.508,179.69 290.508,176.102 291.247,176.102 291.247,179.69 291.247,183.28 "/>
<path d="M293.348,180.491h2.6c0-1.2-0.391-1.641-1.26-1.641C293.827,178.851,293.348,179.321,293.348,180.491z M294.667,182.7
	c0.75,0,1.83-0.09,1.83-0.09l0.02,0.61c0,0-1.13,0.16-1.939,0.16c-1.5,0-1.99-0.87-1.99-2.57c0-1.899,0.83-2.63,2.101-2.63
	c1.51,0,2.189,1.11,1.97,2.92h-3.31C293.357,182.15,293.677,182.7,294.667,182.7z"/>
<path fill="#3B48CC" d="M230.445,148.005h3.06v-3.06h-3.06V148.005z M234.45,148.95h-4.95V144h4.95V148.95z"/>
<path opacity="0" fill="none" stroke="#FFFFFF" stroke-width="0.45" stroke-miterlimit="10" d="M230.445,148.005h3.06v-3.06h-3.06
	V148.005z M234.45,148.95h-4.95V144h4.95V148.95z"/>
<path fill="#3B48CC" d="M230.445,153.765h3.06v-3.06h-3.06V153.765z M234.45,154.71h-4.95v-4.95h4.95V154.71z"/>
<path opacity="0" fill="none" stroke="#FFFFFF" stroke-width="0.45" stroke-miterlimit="10" d="M230.445,153.765h3.06v-3.06h-3.06
	V153.765z M234.45,154.71h-4.95v-4.95h4.95V154.71z"/>
<path fill="#3B48CC" d="M230.445,159.525h3.06v-3.016h-3.06V159.525z M234.45,160.47h-4.95v-4.904h4.95V160.47z"/>
<path opacity="0" fill="none" stroke="#FFFFFF" stroke-width="0.45" stroke-miterlimit="10" d="M230.445,159.525h3.06v-3.016h-3.06
	V159.525z M234.45,160.47h-4.95v-4.904h4.95V160.47z"/>
<path fill="#3B48CC" d="M230.445,165.285h3.06v-3.016h-3.06V165.285z M234.45,166.275h-4.95v-4.95h4.95V166.275z"/>
<path opacity="0" fill="none" stroke="#FFFFFF" stroke-width="0.45" stroke-miterlimit="10" d="M230.445,165.285h3.06v-3.016h-3.06
	V165.285z M234.45,166.275h-4.95v-4.95h4.95V166.275z"/>
<path fill="#3B48CC" d="M236.205,148.005h14.625v-3.06h-14.625V148.005z M251.775,148.95H235.26V144h16.516V148.95z"/>
<path opacity="0" fill="none" stroke="#FFFFFF" stroke-width="0.45" stroke-miterlimit="10" d="M236.205,148.005h14.625v-3.06
	h-14.625V148.005z M251.775,148.95H235.26V144h16.516V148.95z"/>
<path fill="#3B48CC" d="M236.205,153.765h14.625v-3.06h-14.625V153.765z M251.775,154.71H235.26v-4.95h16.516V154.71z"/>
<path opacity="0" fill="none" stroke="#FFFFFF" stroke-width="0.45" stroke-miterlimit="10" d="M236.205,153.765h14.625v-3.06
	h-14.625V153.765z M251.775,154.71H235.26v-4.95h16.516V154.71z"/>
<path fill="#3B48CC" d="M236.205,159.525h14.625v-3.016h-14.625V159.525z M251.775,160.47H235.26v-4.904h16.516V160.47z"/>
<path opacity="0" fill="none" stroke="#FFFFFF" stroke-width="0.45" stroke-miterlimit="10" d="M236.205,159.525h14.625v-3.016
	h-14.625V159.525z M251.775,160.47H235.26v-4.904h16.516V160.47z"/>
<path fill="#3B48CC" d="M236.205,165.285h14.625v-3.016h-14.625V165.285z M251.775,166.275H235.26v-4.95h16.516V166.275z"/>
<path opacity="0" fill="none" stroke="#FFFFFF" stroke-width="0.45" stroke-miterlimit="10" d="M236.205,165.285h14.625v-3.016
	h-14.625V165.285z M251.775,166.275H235.26v-4.95h16.516V166.275z"/>
<rect x="229.905" y="144.45" opacity="0" fill="none" stroke="#FFFFFF" stroke-width="0.1813" stroke-miterlimit="10" width="21.375" height="21.285"/>
<path fill="none" stroke="#D86613" stroke-width="0.9" stroke-miterlimit="10" d="M31.5,19.8V18h1.755 M31.5,27v-3.6 M31.5,34.2
	v-3.6 M31.5,41.4v-3.6 M31.5,48.6V45 M31.5,55.8v-3.6 M31.5,63v-3.6 M31.5,70.2v-3.6 M31.5,77.4v-3.6 M31.5,84.6V81 M31.5,91.8v-3.6
	 M31.5,99v-3.6 M31.5,106.2v-3.6 M31.5,113.4v-3.6 M31.5,120.6V117 M33.255,126H31.5v-1.8 M40.23,126h-3.465 M47.25,126h-3.51
	 M54.27,126h-3.51 M61.245,126h-3.51 M68.265,126h-3.51 M75.24,126h-3.51 M82.26,126h-3.51 M89.235,126H85.77 M96.255,126h-3.51
	 M103.23,126h-3.465 M110.25,126h-3.51 M117.27,126h-3.51 M124.245,126h-3.51 M131.265,126h-3.51 M138.24,126h-3.51 M145.26,126
	h-3.51 M152.235,126h-3.465 M157.5,124.2v1.8h-1.755 M157.5,117v3.6 M157.5,109.8v3.6 M157.5,102.6v3.6 M157.5,95.4V99 M157.5,88.2
	v3.6 M157.5,81v3.6 M157.5,73.8v3.6 M157.5,66.6v3.6 M157.5,59.4V63 M157.5,52.2v3.6 M157.5,45v3.6 M157.5,37.8v3.6 M157.5,30.6v3.6
	 M157.5,23.4V27 M155.745,18h1.755v1.8 M148.77,18h3.465 M141.75,18h3.51 M134.73,18h3.51 M127.755,18h3.51 M120.735,18h3.51
	 M113.76,18h3.51 M106.74,18h3.51 M99.765,18h3.465 M92.745,18h3.51 M85.77,18h3.465 M78.75,18h3.51 M71.73,18h3.51 M64.755,18h3.51
	 M57.735,18h3.51 M50.76,18h3.51 M43.74,18h3.51 M36.765,18h3.465"/>
<rect x="49.5" y="18" opacity="0" fill="none" stroke="#000000" stroke-width="0.9" stroke-miterlimit="10" width="108" height="27"/>
<path fill="#D86613" d="M72.414,26.583l-0.09,1.05c0,0-1.4-0.16-1.98-0.16c-0.82,0-1.23,0.26-1.23,0.82c0,0.59,0.34,0.74,1.5,1.07
	c1.44,0.42,1.95,0.81,1.95,2.02c0,1.44-0.96,2.1-2.36,2.1c-0.76,0-2.11-0.26-2.11-0.26l0.12-1.05c0,0,1.27,0.17,1.98,0.17
	c0.82,0,1.19-0.26,1.19-0.93c0-0.54-0.29-0.75-1.32-1.01c-1.5-0.39-2.12-0.85-2.12-2.09c0-1.32,0.91-1.98,2.4-1.98
	C71.114,26.333,72.414,26.583,72.414,26.583z"/>
<path fill="#D86613" d="M74.454,30.472h2.02c0-0.87-0.29-1.19-1-1.19S74.454,29.643,74.454,30.472z M75.574,32.442
	c0.79,0,1.84-0.09,1.84-0.09l0.02,0.89c0,0-1.14,0.24-2.03,0.24c-1.51,0-2.1-0.79-2.1-2.55c0-1.82,0.78-2.669,2.17-2.669
	c1.42,0,2.13,0.73,2.13,2.28l-0.08,0.82h-3.07C74.464,32.092,74.764,32.442,75.574,32.442z"/>
<path fill="#D86613" d="M78.713,33.372v-2.495v-2.495h1.14v0.265v0.265c0,0,0.66-0.49,1.51-0.65v0.61v0.61
	c-0.9,0.18-1.51,0.52-1.51,0.52v1.685v1.685H78.713z"/>
<polygon fill="#D86613" points="81.693,28.382 82.883,28.382 83.833,32.422 84.133,32.422 85.103,28.382 86.263,28.382 
	84.983,33.372 82.963,33.372 "/>
<path fill="#D86613" d="M87.112,27.573v-0.605v-0.605h1.14v0.605v0.605H87.112z M87.112,33.372v-2.495v-2.495h1.14v2.495v2.495
	H87.112z"/>
<path fill="#D86613" d="M91.462,28.263c0.54,0,1.52,0.19,1.52,0.19l-0.04,0.99c0,0-0.79-0.09-1.17-0.09c-1.02,0-1.25,0.38-1.25,1.46
	c0,1.2,0.21,1.59,1.26,1.59c0.38,0,1.17-0.09,1.17-0.09l0.03,0.99c0,0-1.02,0.18-1.55,0.18c-1.52,0-2.07-0.77-2.07-2.669
	C89.362,29.022,89.972,28.263,91.462,28.263z"/>
<path fill="#D86613" d="M94.872,30.472h2.02c0-0.87-0.29-1.19-1-1.19S94.872,29.643,94.872,30.472z M95.992,32.442
	c0.79,0,1.84-0.09,1.84-0.09l0.02,0.89c0,0-1.14,0.24-2.03,0.24c-1.51,0-2.1-0.79-2.1-2.55c0-1.82,0.78-2.669,2.17-2.669
	c1.42,0,2.13,0.73,2.13,2.28l-0.08,0.82h-3.07C94.882,32.092,95.182,32.442,95.992,32.442z"/>
<path fill="#D86613" d="M102.26,30.472h2.02c0-0.87-0.29-1.19-1-1.19S102.26,29.643,102.26,30.472z M103.38,32.442
	c0.79,0,1.84-0.09,1.84-0.09l0.02,0.89c0,0-1.14,0.24-2.03,0.24c-1.51,0-2.1-0.79-2.1-2.55c0-1.82,0.78-2.669,2.17-2.669
	c1.42,0,2.13,0.73,2.13,2.28l-0.08,0.82h-3.07C102.27,32.092,102.57,32.442,103.38,32.442z"/>
<path fill="#D86613" d="M107.659,33.372h-1.14v-2.495v-2.495h1.14v0.125v0.125c0,0,0.79-0.37,1.34-0.37c1.39,0,1.74,0.82,1.74,2.5
	v1.305v1.305h-1.14v-1.3v-1.3c0-0.95-0.12-1.44-0.82-1.44c-0.44,0-1.12,0.23-1.12,0.23v1.905V33.372z"/>
<path fill="#D86613" d="M113.889,32.422c0.49,0,1.12-0.22,1.12-0.22v-1.405v-1.405c-0.05,0-0.62-0.09-1.04-0.09
	c-0.69,0-1,0.45-1,1.55C112.969,32.062,113.279,32.422,113.889,32.422z M116.158,26.373v3.5v3.5h-1.149v-0.12v-0.12
	c0,0-0.71,0.35-1.3,0.35c-1.33,0-1.899-0.75-1.899-2.64c0-1.79,0.66-2.58,2.08-2.58c0.39,0,1.07,0.12,1.12,0.13v-1.01v-1.01H116.158
	z"/>
<path fill="#D86613" d="M119.808,29.313c-0.44,0-1.04,0.26-1.04,0.26v1.405v1.405c0.04,0.01,0.52,0.07,0.85,0.07
	c0.9,0,1.16-0.44,1.16-1.63C120.778,29.692,120.408,29.313,119.808,29.313z M117.628,35.512v-3.564v-3.565h1.14v0.135v0.135
	c0,0,0.68-0.39,1.25-0.39c1.3,0,1.92,0.69,1.92,2.56c0,2.51-1.21,2.86-3.17,2.57v1.06v1.06H117.628z"/>
<path fill="#D86613" d="M124.988,32.452c0.89,0,1.08-0.54,1.08-1.6c0-1.05-0.27-1.55-1.08-1.55c-0.85,0-1.09,0.48-1.09,1.55
	C123.897,31.932,124.098,32.452,124.988,32.452z M124.988,28.263c1.66,0,2.24,1,2.24,2.589c0,1.61-0.52,2.63-2.24,2.63
	c-1.72,0-2.25-1-2.25-2.63C122.738,29.252,123.298,28.263,124.988,28.263z"/>
<path fill="#D86613" d="M128.347,27.573v-0.605v-0.605h1.14v0.605v0.605H128.347z M128.347,33.372v-2.495v-2.495h1.14v2.495v2.495
	H128.347z"/>
<path fill="#D86613" d="M132.077,33.372h-1.14v-2.495v-2.495h1.14v0.125v0.125c0,0,0.79-0.37,1.34-0.37c1.39,0,1.74,0.82,1.74,2.5
	v1.305v1.305h-1.14v-1.3v-1.3c0-0.95-0.12-1.44-0.82-1.44c-0.44,0-1.12,0.23-1.12,0.23v1.905V33.372z"/>
<path fill="#D86613" d="M139.136,29.413h-1.35v1.02v1.02c0,0.69,0.02,0.95,0.52,0.95c0.28,0,0.81-0.03,0.81-0.03l0.05,0.98
	c0,0-0.67,0.14-1.02,0.14c-1.15,0-1.5-0.44-1.5-1.88v-1.1v-1.1h-0.63v-0.515v-0.515h0.63v-0.725v-0.725h1.14v0.725v0.725h1.35v0.515
	V29.413z"/>
<path fill="#D86613" d="M38.025,43.83H52.38V24.345H38.025V43.83z M52.965,45H37.44c-0.36,0-0.585-0.27-0.585-0.585V23.76
	c0-0.315,0.225-0.585,0.585-0.585h15.525c0.315,0,0.585,0.27,0.585,0.585v20.655C53.55,44.73,53.28,45,52.965,45z"/>
<path opacity="0" fill="none" stroke="#FFFFFF" stroke-width="0.45" stroke-miterlimit="10" d="M38.025,43.83H52.38V24.345H38.025
	V43.83z M52.965,45H37.44c-0.36,0-0.585-0.27-0.585-0.585V23.76c0-0.315,0.225-0.585,0.585-0.585h15.525
	c0.315,0,0.585,0.27,0.585,0.585v20.655C53.55,44.73,53.28,45,52.965,45z"/>
<path fill="#D86613" d="M40.14,28.35h1.44v-1.44h-1.44V28.35z M42.165,29.475H39.6c-0.36,0-0.585-0.225-0.585-0.54v-2.61
	c0-0.315,0.225-0.585,0.585-0.585h2.565c0.315,0,0.585,0.27,0.585,0.585v2.61C42.75,29.25,42.48,29.475,42.165,29.475z"/>
<path opacity="0" fill="none" stroke="#FFFFFF" stroke-width="0.45" stroke-miterlimit="10" d="M40.14,28.35h1.44v-1.44h-1.44V28.35
	z M42.165,29.475H39.6c-0.36,0-0.585-0.225-0.585-0.54v-2.61c0-0.315,0.225-0.585,0.585-0.585h2.565c0.315,0,0.585,0.27,0.585,0.585
	v2.61C42.75,29.25,42.48,29.475,42.165,29.475z"/>
<path fill="#D86613" d="M40.14,34.38h1.44v-1.44h-1.44V34.38z M42.165,35.505H39.6c-0.36,0-0.585-0.225-0.585-0.54v-2.61
	c0-0.315,0.225-0.585,0.585-0.585h2.565c0.315,0,0.585,0.27,0.585,0.585v2.61C42.75,35.28,42.48,35.505,42.165,35.505z"/>
<path opacity="0" fill="none" stroke="#FFFFFF" stroke-width="0.45" stroke-miterlimit="10" d="M40.14,34.38h1.44v-1.44h-1.44V34.38
	z M42.165,35.505H39.6c-0.36,0-0.585-0.225-0.585-0.54v-2.61c0-0.315,0.225-0.585,0.585-0.585h2.565c0.315,0,0.585,0.27,0.585,0.585
	v2.61C42.75,35.28,42.48,35.505,42.165,35.505z"/>
<path fill="#D86613" d="M40.14,40.41h1.44v-1.44h-1.44V40.41z M42.165,41.58H39.6c-0.36,0-0.585-0.27-0.585-0.585v-2.61
	c0-0.315,0.225-0.585,0.585-0.585h2.565c0.315,0,0.585,0.27,0.585,0.585v2.61C42.75,41.31,42.48,41.58,42.165,41.58z"/>
<path opacity="0" fill="none" stroke="#FFFFFF" stroke-width="0.45" stroke-miterlimit="10" d="M40.14,40.41h1.44v-1.44h-1.44V40.41
	z M42.165,41.58H39.6c-0.36,0-0.585-0.27-0.585-0.585v-2.61c0-0.315,0.225-0.585,0.585-0.585h2.565c0.315,0,0.585,0.27,0.585,0.585
	v2.61C42.75,41.31,42.48,41.58,42.165,41.58z"/>
<rect x="43.47" y="27.045" fill="#D86613" width="7.785" height="1.17"/>
<rect x="43.47" y="27.045" opacity="0" fill="none" stroke="#FFFFFF" stroke-width="0.45" stroke-miterlimit="10" width="7.785" height="1.17"/>
<rect x="43.47" y="33.075" fill="#D86613" width="7.785" height="1.17"/>
<rect x="43.47" y="33.075" opacity="0" fill="none" stroke="#FFFFFF" stroke-width="0.45" stroke-miterlimit="10" width="7.785" height="1.17"/>
<rect x="43.47" y="39.105" fill="#D86613" width="7.785" height="1.17"/>
<rect x="43.47" y="39.105" opacity="0" fill="none" stroke="#FFFFFF" stroke-width="0.45" stroke-miterlimit="10" width="7.785" height="1.17"/>
<path fill="#D86613" d="M37.44,42.435h-2.61c-0.315,0-0.585-0.27-0.585-0.585v-20.7c0-0.315,0.27-0.585,0.585-0.585H50.4
	c0.315,0,0.54,0.27,0.54,0.585v2.61h-1.125v-2.025h-14.4v19.53h2.025V42.435z"/>
<path opacity="0" fill="none" stroke="#FFFFFF" stroke-width="0.45" stroke-miterlimit="10" d="M37.44,42.435h-2.61
	c-0.315,0-0.585-0.27-0.585-0.585v-20.7c0-0.315,0.27-0.585,0.585-0.585H50.4c0.315,0,0.54,0.27,0.54,0.585v2.61h-1.125v-2.025
	h-14.4v19.53h2.025V42.435z"/>
<path fill="#D86613" d="M34.65,39.825h-2.565c-0.315,0-0.585-0.27-0.585-0.54v-20.7C31.5,18.27,31.77,18,32.085,18H47.61
	c0.315,0,0.585,0.27,0.585,0.585v2.565h-1.17v-1.98H32.67V38.7h1.98V39.825z"/>
<path opacity="0" fill="none" stroke="#FFFFFF" stroke-width="0.45" stroke-miterlimit="10" d="M34.65,39.825h-2.565
	c-0.315,0-0.585-0.27-0.585-0.54v-20.7C31.5,18.27,31.77,18,32.085,18H47.61c0.315,0,0.585,0.27,0.585,0.585v2.565h-1.17v-1.98
	H32.67V38.7h1.98V39.825z"/>
<path opacity="0" fill="none" stroke="#FFFFFF" stroke-width="0.45" stroke-miterlimit="10" d="M37.44,42.435h-2.61
	c-0.315,0-0.585-0.27-0.585-0.585v-20.7c0-0.315,0.27-0.585,0.585-0.585H50.4c0.315,0,0.54,0.27,0.54,0.585v21.285H37.44z"/>
<path opacity="0" fill="none" stroke="#FFFFFF" stroke-width="0.45" stroke-miterlimit="10" d="M34.65,39.825h-2.565
	c-0.315,0-0.585-0.27-0.585-0.54v-20.7C31.5,18.27,31.77,18,32.085,18H47.61c0.315,0,0.585,0.27,0.585,0.585v21.24H34.65z"/>
<line fill="none" stroke="#000000" stroke-width="0.45" stroke-miterlimit="10" x1="229.275" y1="90" x2="155.88" y2="90"/>
<rect x="229.275" y="89.775" width="0.225" height="0.45"/>
<polygon points="149.22,90 155.655,87.93 155.655,92.07 "/>
<polygon fill="none" stroke="#000000" stroke-width="0.45" stroke-miterlimit="10" points="149.22,90 155.655,87.93 155.655,92.07 
	"/>
<polyline fill="none" stroke="#000000" stroke-width="0.45" stroke-miterlimit="10" points="229.275,180 228.285,179.955 
	227.115,179.91 225.99,179.775 224.91,179.64 223.83,179.415 222.75,179.19 221.715,178.875 220.68,178.56 219.645,178.155 
	218.655,177.75 217.62,177.255 216.585,176.715 215.55,176.085 214.47,175.41 213.39,174.69 212.265,173.835 211.095,172.89 
	209.925,171.765 208.665,170.55 207.315,169.11 205.875,167.445 204.345,165.51 202.59,163.125 200.61,160.155 198.225,156.195 
	194.985,150.255 179.775,120.195 177.39,116.235 175.41,113.265 173.655,110.88 172.125,108.945 170.685,107.28 169.335,105.84 
	168.075,104.625 166.905,103.545 165.735,102.555 164.61,101.7 163.53,100.98 162.45,100.305 161.415,99.675 160.38,99.135 
	159.345,98.64 158.355,98.235 157.32,97.83 156.285,97.515 155.79,97.38 "/>
<rect x="229.275" y="179.775" width="0.225" height="0.449"/>
<polygon points="149.22,96.48 155.88,95.265 155.295,99.405 "/>
<polygon fill="none" stroke="#000000" stroke-width="0.45" stroke-miterlimit="10" points="149.22,96.48 155.88,95.265 
	155.295,99.405 "/>
<path fill="#E5E5E5" d="M58.5,182.25c0-1.26,0.99-2.25,2.25-2.25h67.5c1.26,0,2.25,0.99,2.25,2.25v31.5c0,1.26-0.99,2.25-2.25,2.25
	h-67.5c-1.26,0-2.25-0.99-2.25-2.25V182.25z"/>
<path d="M87.147,199.744l0.03,0.7c0,0-1.11,0.229-1.899,0.229c-2.07,0-2.53-1.27-2.53-3.56c0-2.35,0.49-3.6,2.53-3.6
	c0.91,0,1.91,0.23,1.91,0.23l-0.04,0.689c0,0-1.09-0.17-1.79-0.17c-1.55,0-1.82,0.93-1.82,2.85c0,1.88,0.26,2.81,1.839,2.81
	C85.997,199.924,87.147,199.744,87.147,199.744z"/>
<polygon points="88.437,200.574 88.437,196.984 88.437,193.395 89.177,193.395 89.177,196.984 89.177,200.574 "/>
<path d="M90.827,194.444v-0.435v-0.436h0.74v0.436v0.435H90.827z M90.827,200.574v-2.5v-2.5h0.74v2.5v2.5H90.827z"/>
<path d="M93.636,197.784h2.6c0-1.2-0.39-1.64-1.26-1.64C94.116,196.145,93.636,196.614,93.636,197.784z M94.956,199.994
	c0.75,0,1.83-0.09,1.83-0.09l0.02,0.609c0,0-1.13,0.16-1.94,0.16c-1.5,0-1.99-0.87-1.99-2.569c0-1.9,0.83-2.63,2.1-2.63
	c1.51,0,2.19,1.109,1.97,2.92h-3.31C93.646,199.444,93.966,199.994,94.956,199.994z"/>
<path d="M99.066,200.574h-0.75v-2.5v-2.5h0.75v0.165v0.165c0,0,0.84-0.43,1.55-0.43c1.37,0,1.68,0.68,1.68,2.5v1.3v1.3h-0.74v-1.295
	v-1.295c0-1.33-0.15-1.82-1.06-1.82c-0.66,0-1.43,0.37-1.43,0.37v2.021V200.574z"/>
<path d="M106.435,196.255h-1.58v1.164v1.165c0,1.09,0.06,1.39,0.72,1.39c0.28,0,0.89-0.05,0.89-0.05l0.04,0.65
	c0,0-0.66,0.109-1.01,0.109c-1.03,0-1.39-0.39-1.39-1.829v-1.3v-1.3h-0.71v-0.341v-0.34h0.71v-0.765v-0.765h0.75v0.765v0.765h1.58
	v0.34V196.255z"/>
<path fill="#3E3E3E" d="M75.06,191.88c0,0.585-0.495,1.08-1.08,1.08h-14.4c-0.585,0-1.08-0.495-1.08-1.08v-10.8
	c0-0.585,0.495-1.08,1.08-1.08h14.4c0.585,0,1.08,0.495,1.08,1.08V191.88z"/>
<path opacity="0" fill="none" stroke="#000000" stroke-width="0.45" stroke-miterlimit="10" d="M75.06,191.88
	c0,0.585-0.495,1.08-1.08,1.08h-14.4c-0.585,0-1.08-0.495-1.08-1.08v-10.8c0-0.585,0.495-1.08,1.08-1.08h14.4
	c0.585,0,1.08,0.495,1.08,1.08V191.88z"/>
<rect x="59.58" y="181.8" fill="#3999C6" width="14.4" height="9.36"/>
<rect x="59.58" y="181.8" opacity="0" fill="none" stroke="#000000" stroke-width="0.45" stroke-miterlimit="10" width="14.4" height="9.36"/>
<path fill="#FFFFFF" d="M67.86,180.99c0,0.135-0.09,0.225-0.27,0.225h-1.575c-0.135,0-0.225-0.09-0.225-0.225
	s0.09-0.271,0.225-0.271h1.575C67.77,180.72,67.86,180.855,67.86,180.99"/>
<path opacity="0" fill="none" stroke="#000000" stroke-width="0.45" stroke-miterlimit="10" d="M67.86,180.99
	c0,0.135-0.09,0.225-0.27,0.225h-1.575c-0.135,0-0.225-0.09-0.225-0.225s0.09-0.271,0.225-0.271h1.575
	C67.77,180.72,67.86,180.855,67.86,180.99"/>
<path opacity="0.149" fill="#FFFFFF" d="M69.66,180H59.58c-0.585,0-1.08,0.495-1.08,1.08v10.8c0,0.585,0.495,1.08,1.08,1.08h4.32
	L69.66,180z"/>
<path opacity="0" fill="none" stroke="#000000" stroke-width="0.45" stroke-miterlimit="10" d="M69.66,180H59.58
	c-0.585,0-1.08,0.495-1.08,1.08v10.8c0,0.585,0.495,1.08,1.08,1.08h4.32L69.66,180z"/>
<path fill="#3E3E3E" d="M76.5,197.1c0,0.495-0.405,0.9-0.9,0.9h-6.48c-0.495,0-0.9-0.405-0.9-0.9V185.94c0-0.495,0.405-0.9,0.9-0.9
	h6.48c0.495,0,0.9,0.405,0.9,0.9V197.1z"/>
<path opacity="0" fill="none" stroke="#000000" stroke-width="0.45" stroke-miterlimit="10" d="M76.5,197.1
	c0,0.495-0.405,0.9-0.9,0.9h-6.48c-0.495,0-0.9-0.405-0.9-0.9V185.94c0-0.495,0.405-0.9,0.9-0.9h6.48c0.495,0,0.9,0.405,0.9,0.9
	V197.1z"/>
<rect x="68.94" y="186.48" fill="#59B4D9" width="6.84" height="9.72"/>
<rect x="68.94" y="186.48" opacity="0" fill="none" stroke="#000000" stroke-width="0.45" stroke-miterlimit="10" width="6.84" height="9.72"/>
<path fill="#FFFFFF" d="M73.845,185.85c0,0.091-0.18,0.181-0.36,0.181h-2.25c-0.18,0-0.36-0.09-0.36-0.181
	c0-0.135,0.18-0.225,0.36-0.225h2.25C73.665,185.625,73.845,185.715,73.845,185.85"/>
<path opacity="0" fill="none" stroke="#000000" stroke-width="0.45" stroke-miterlimit="10" d="M73.845,185.85
	c0,0.091-0.18,0.181-0.36,0.181h-2.25c-0.18,0-0.36-0.09-0.36-0.181c0-0.135,0.18-0.225,0.36-0.225h2.25
	C73.665,185.625,73.845,185.715,73.845,185.85"/>
<path opacity="0.149" fill="#FFFFFF" d="M74.745,185.04H69.12c-0.495,0-0.9,0.405-0.9,0.9V197.1c0,0.495,0.405,0.9,0.9,0.9h0.765
	L74.745,185.04z"/>
<path opacity="0" fill="none" stroke="#000000" stroke-width="0.45" stroke-miterlimit="10" d="M74.745,185.04H69.12
	c-0.495,0-0.9,0.405-0.9,0.9V197.1c0,0.495,0.405,0.9,0.9,0.9h0.765L74.745,185.04z"/>
<path opacity="0" fill="none" stroke="#000000" stroke-width="4.500000e-004" stroke-miterlimit="10" d="M59.76,180h14.085
	c0.135,0,0.18,0.09,0.18,0.225v12.511c0,0.18-0.045,0.225-0.18,0.225H59.76c-0.18,0-0.225-0.045-0.225-0.225v-12.511
	C59.535,180.09,59.58,180,59.76,180z"/>
<path opacity="0" fill="none" stroke="#000000" stroke-width="4.500000e-004" stroke-miterlimit="10" d="M58.725,181.125h16.11
	c0.18,0,0.225,0.045,0.225,0.18v10.351c0,0.135-0.045,0.225-0.225,0.225h-16.11c-0.135,0-0.225-0.09-0.225-0.225v-10.351
	C58.5,181.17,58.59,181.125,58.725,181.125z"/>
<path opacity="0" fill="none" stroke="#000000" stroke-width="4.500000e-004" stroke-miterlimit="10" d="M69.3,185.04h6.075
	c0.135,0,0.225,0.09,0.225,0.225v12.511c0,0.135-0.09,0.225-0.225,0.225H69.3c-0.135,0-0.225-0.09-0.225-0.225v-12.511
	C69.075,185.13,69.165,185.04,69.3,185.04z"/>
<path opacity="0" fill="none" stroke="#000000" stroke-width="4.500000e-004" stroke-miterlimit="10" d="M68.445,185.94h7.83
	c0.135,0,0.225,0.09,0.225,0.225v10.755c0,0.135-0.09,0.18-0.225,0.18h-7.83c-0.135,0-0.225-0.045-0.225-0.18v-10.755
	C68.22,186.03,68.31,185.94,68.445,185.94z"/>
<polyline fill="none" stroke="#000000" stroke-width="0.45" stroke-miterlimit="10" points="94.5,179.775 94.5,144 94.5,115.38 "/>
<rect x="94.275" y="179.775" width="0.45" height="0.225"/>
<polygon points="94.5,108.72 96.57,115.155 92.43,115.155 "/>
<polygon fill="none" stroke="#000000" stroke-width="0.45" stroke-miterlimit="10" points="94.5,108.72 96.57,115.155 
	92.43,115.155 "/>
<path d="M99.412,147.825h-0.607v-2.957v-2.956h0.607v1.028v1.029c0,0,0.681-0.275,1.248-0.275c1.118,0,1.369,0.551,1.369,2.017
	v1.057v1.058h-0.607v-1.053v-1.054c0-1.069-0.122-1.466-0.851-1.466c-0.542,0-1.158,0.235-1.158,0.235v1.668V147.825z"/>
<path d="M105.357,144.326h-1.28v0.943v0.943c0,0.883,0.049,1.126,0.583,1.126c0.227,0,0.721-0.04,0.721-0.04l0.032,0.526
	c0,0-0.534,0.089-0.818,0.089c-0.834,0-1.126-0.315-1.126-1.482v-1.053v-1.053h-0.575v-0.275v-0.275h0.575v-0.62v-0.619h0.607v0.619
	v0.62h1.28v0.275V144.326z"/>
<path d="M108.298,144.326h-1.28v0.943v0.943c0,0.883,0.049,1.126,0.583,1.126c0.227,0,0.721-0.04,0.721-0.04l0.032,0.526
	c0,0-0.535,0.089-0.818,0.089c-0.834,0-1.126-0.315-1.126-1.482v-1.053v-1.053h-0.575v-0.275v-0.275h0.575v-0.62v-0.619h0.607v0.619
	v0.62h1.28v0.275V144.326z"/>
<path d="M110.995,144.253c-0.535,0-1.126,0.315-1.126,0.315v1.354v1.353c0.105,0.024,0.527,0.089,0.875,0.089
	c0.891,0,1.183-0.445,1.183-1.628C111.927,144.642,111.579,144.253,110.995,144.253z M109.262,149.623v-2.924v-2.924h0.607v0.142
	v0.142c0,0,0.607-0.364,1.207-0.364c1.021,0,1.466,0.607,1.466,2.057c0,1.588-0.51,2.155-1.766,2.155
	c-0.38,0-0.793-0.065-0.907-0.089v0.902v0.903H109.262z"/>
<path d="M99.177,149.85h0.64c0,0-0.77,2.106-0.77,3.638c0,1.506,0.77,3.45,0.77,3.45h-0.64c0,0-0.786-1.831-0.786-3.45
	C98.392,151.867,99.177,149.85,99.177,149.85z"/>
<path d="M102.004,150.279c0,1.717,0.008,3.029,0.008,4.763c0,1.345-0.47,1.466-1.539,1.466v-0.291v-0.292
	c0.721,0,0.916-0.057,0.916-0.956v-2.345v-2.345H102.004z"/>
<polygon points="103,150.287 103.641,150.287 104.669,155.302 104.904,155.302 105.989,150.336 106.694,150.336 107.812,155.302 
	108.047,155.302 109.051,150.287 109.691,150.287 108.492,155.925 107.358,155.925 106.346,151.219 105.35,155.925 104.224,155.925 
	"/>
<polygon points="109.958,150.887 109.958,150.587 109.958,150.287 114.008,150.287 114.008,150.587 114.008,150.887 
	112.299,150.887 112.299,153.406 112.299,155.925 111.684,155.925 111.684,153.406 111.684,150.887 "/>
<path d="M114.268,149.85h0.64c0,0,0.786,1.937,0.786,3.557s-0.786,3.531-0.786,3.531h-0.64c0,0,0.77-2.025,0.77-3.531
	C115.037,151.875,114.268,149.85,114.268,149.85z"/>
<line fill="none" stroke="#D86613" stroke-width="0.9" stroke-miterlimit="10" x1="94.5" y1="71.55" x2="94.5" y2="53.325"/>
<rect x="94.05" y="71.55" fill="#D86613" width="0.9" height="0.45"/>
<polygon fill="#D86613" points="94.5,46.44 96.57,52.875 92.43,52.875 "/>
<polygon fill="none" stroke="#D86613" stroke-width="0.9" stroke-miterlimit="10" points="94.5,46.44 96.57,52.875 92.43,52.875 "/>
</svg>
