<svg xmlns="http://www.w3.org/2000/svg" width="355" height="252" viewBox="0 0 355 252"><path fill="#FFF" d="M0 0h355.5v252H0z"/><path fill="#E5E5E5" d="M40.5 74.25c0-1.26.99-2.25 2.25-2.25h103.5c1.26 0 2.25.99 2.25 2.25v31.5c0 1.26-.99 2.25-2.25 2.25H42.75c-1.26 0-2.25-.99-2.25-2.25v-31.5z"/><path d="M56.678 91.744l.03.7s-1.11.23-1.9.23c-2.07 0-2.53-1.27-2.53-3.56 0-2.35.49-3.6 2.53-3.6.91 0 1.91.23 1.91.23l-.04.69s-1.09-.17-1.79-.17c-1.55 0-1.82.93-1.82 2.85 0 1.88.26 2.81 1.84 2.81.62 0 1.77-.18 1.77-.18zm2.069.83h-.75v-7.299h.75v2.54s.84-.34 1.54-.34c1.38 0 1.69.68 1.69 2.49v2.61h-.75v-2.6c0-1.32-.15-1.81-1.05-1.81-.67 0-1.43.29-1.43.29v4.119zm5.29-2.79h2.6c0-1.2-.39-1.64-1.26-1.64-.86.001-1.34.47-1.34 1.64zm1.319 2.21c.75 0 1.83-.09 1.83-.09l.02.61s-1.13.16-1.94.16c-1.5 0-1.99-.87-1.99-2.569 0-1.9.83-2.63 2.1-2.63 1.51 0 2.19 1.11 1.97 2.919h-3.31c.011 1.05.331 1.6 1.32 1.6zm5.06-4.519c.46 0 1.36.15 1.36.15l-.02.65s-.8-.09-1.18-.09c-1.15 0-1.46.48-1.46 1.8 0 1.46.23 1.99 1.46 1.99.38 0 1.19-.09 1.19-.09l.03.65s-.94.14-1.39.14c-1.6 0-2.06-.73-2.06-2.689 0-1.812.58-2.511 2.07-2.511zm3.42 5.099h-.75v-7.179h.75v4.189l.769-.04 1.491-1.969h.84l-1.67 2.3 1.699 2.699h-.849l-1.5-2.29-.78.04v1.125zm9.291-2.45l-1.479.12c-.61.06-.86.37-.86.88 0 .58.26.9.709.9.76 0 1.63-.3 1.63-.3v-1.6zm.74-1.02v2.459c.02.32.26.42.58.46l-.03.65c-.6 0-.92-.11-1.18-.38 0 0-.9.38-1.85.38-.87 0-1.36-.55-1.36-1.53 0-.96.49-1.39 1.52-1.48l1.58-.15c.07-.8-.16-1.32-.87-1.32-.73 0-1.91.13-1.91.13l-.03-.65s1.2-.2 1.97-.2c1.06.002 1.58.502 1.58 1.631zm4.86-1.529h.74v5h-.74v-.32s-.78.42-1.48.42c-1.4 0-1.689-.64-1.689-2.49v-2.61h.74v2.6c0 1.38.12 1.83 1.06 1.83.66 0 1.37-.37 1.37-.37v-4.06zm4.929.679h-1.58v2.33c0 1.09.06 1.39.72 1.39.28 0 .89-.05.89-.05l.04.65s-.66.11-1.01.11c-1.03 0-1.39-.39-1.39-1.83v-2.6h-.71v-.68h.71v-1.529h.75v1.53h1.58v.679zm1.94 4.32h-.75v-7.299h.75v2.54s.84-.34 1.54-.34c1.38 0 1.69.68 1.69 2.49v2.61h-.75v-2.6c0-1.32-.15-1.81-1.05-1.81-.67 0-1.43.29-1.43.29v4.119zm5.289-2.79h2.6c0-1.2-.39-1.64-1.26-1.64-.86.001-1.34.47-1.34 1.64zm1.32 2.21c.75 0 1.83-.09 1.83-.09l.02.61s-1.13.16-1.94.16c-1.5 0-1.99-.87-1.99-2.569 0-1.9.83-2.63 2.1-2.63 1.51 0 2.19 1.11 1.97 2.919h-3.31c.011 1.05.33 1.6 1.32 1.6zm5.8-3.74h-1.58v2.33c0 1.09.06 1.39.72 1.39.28 0 .89-.05.89-.05l.04.65s-.66.11-1.01.11c-1.03 0-1.39-.39-1.39-1.83v-2.6h-.71v-.68h.71v-1.529h.75v1.53h1.58v.679zm1.13-1.809v-.87h.74v.87h-.74zm0 6.129v-5h.74v5h-.74zm4.119-5.099c.46 0 1.36.15 1.36.15l-.02.65s-.8-.09-1.18-.09c-1.15 0-1.46.48-1.46 1.8 0 1.46.23 1.99 1.46 1.99.38 0 1.19-.09 1.19-.09l.03.65s-.94.14-1.39.14c-1.6 0-2.06-.73-2.06-2.689.001-1.812.58-2.511 2.07-2.511zm5.39 2.649l-1.48.12c-.61.06-.86.37-.86.88 0 .58.26.9.71.9.76 0 1.63-.3 1.63-.3v-1.6zm.739-1.02v2.459c.02.32.26.42.58.46l-.03.65c-.6 0-.92-.11-1.18-.38 0 0-.9.38-1.85.38-.87 0-1.36-.55-1.36-1.53 0-.96.49-1.39 1.52-1.48l1.58-.15c.07-.8-.16-1.32-.87-1.32-.729 0-1.91.13-1.91.13l-.03-.65s1.2-.2 1.97-.2c1.061.002 1.58.502 1.58 1.631zm4.2-.85h-1.58v2.33c0 1.09.06 1.39.72 1.39.28 0 .89-.05.89-.05l.04.65s-.66.11-1.01.11c-1.03 0-1.39-.39-1.39-1.83v-2.6h-.71v-.68h.71v-1.529h.75v1.53h1.58v.679zm1.13-1.809v-.87h.74v.87h-.74zm0 6.129v-5h.74v5h-.74zm4.2-.57c1.18 0 1.36-.66 1.36-1.979 0-1.33-.4-1.87-1.36-1.87-1.06 0-1.38.48-1.38 1.85 0 1.399.2 1.999 1.38 1.999zm0-4.529c1.51 0 2.13.84 2.13 2.55 0 1.729-.44 2.649-2.13 2.649s-2.15-.84-2.15-2.669c0-1.72.57-2.53 2.15-2.53zm4.249 5.099h-.75v-5h.75v.33s.84-.43 1.55-.43c1.37 0 1.68.68 1.68 2.5v2.6h-.74v-2.59c0-1.33-.15-1.82-1.06-1.82-.66 0-1.43.37-1.43.37v4.04z"/><path fill="#C1E4F7" d="M229.5 56.25c0-1.26.99-2.25 2.25-2.25h85.5c1.26 0 2.25.99 2.25 2.25v67.5c0 1.26-.99 2.25-2.25 2.25h-85.5c-1.26 0-2.25-.99-2.25-2.25v-67.5z"/><path d="M256.86 81.95h.74v5h-.74v-.32s-.779.42-1.479.42c-1.4 0-1.69-.64-1.69-2.49v-2.61h.74v2.6c0 1.38.12 1.83 1.06 1.83.66 0 1.37-.37 1.37-.37v-4.06zm5.78.09l-.02.65s-1.11-.16-1.75-.16c-.62 0-1.08.16-1.08.75 0 .47.23.61 1.22.76 1.32.21 1.8.48 1.8 1.45 0 1.17-.739 1.56-1.949 1.56-.64 0-1.76-.19-1.76-.19l.04-.65s1.14.17 1.649.17c.82 0 1.26-.18 1.26-.86 0-.52-.26-.64-1.26-.8-1.22-.19-1.76-.43-1.76-1.41 0-1.1.89-1.46 1.8-1.46.75 0 1.81.19 1.81.19zm1.99 2.119h2.6c0-1.2-.39-1.64-1.26-1.64-.861.001-1.34.47-1.34 1.64zm1.319 2.21c.75 0 1.83-.09 1.83-.09l.021.61s-1.13.16-1.94.16c-1.5 0-1.989-.87-1.989-2.569 0-1.9.83-2.63 2.1-2.63 1.51 0 2.189 1.11 1.97 2.919h-3.31c.009 1.05.329 1.6 1.318 1.6zm3.361.58v-5h.75v.66s.77-.58 1.739-.76v.78c-.939.18-1.739.69-1.739.69v3.63h-.75zm8.351-4.32h-1.58v2.33c0 1.09.061 1.39.72 1.39.28 0 .891-.05.891-.05l.04.65s-.66.11-1.01.11c-1.03 0-1.391-.39-1.391-1.83v-2.6h-.71v-.68h.71v-1.53h.75v1.53h1.58v.68zm3.909 1.87l-1.479.12c-.609.06-.859.37-.859.88 0 .58.26.9.71.9.76 0 1.629-.3 1.629-.3v-1.6zm.741-1.02v2.459c.021.32.26.42.58.46l-.03.65c-.6 0-.92-.11-1.18-.38 0 0-.899.38-1.85.38-.87 0-1.36-.55-1.36-1.53 0-.96.49-1.39 1.521-1.48l1.579-.15c.07-.8-.159-1.32-.869-1.32-.73 0-1.91.13-1.91.13l-.03-.65s1.2-.2 1.97-.2c1.059.002 1.579.502 1.579 1.631zm3.429 2.9c1.37 0 1.61-.62 1.61-2 0-1.3-.261-1.84-1.141-1.84-.659 0-1.39.27-1.39.27v3.509c.001.001.652.061.921.061zm.54-4.529c1.36 0 1.83.72 1.83 2.51 0 1.979-.54 2.689-2.36 2.689-.6 0-1.68-.11-1.68-.11V79.77h.75v2.41s.75-.33 1.46-.33zm3.17 5.099V79.77h.739v7.179zm2.84-2.79h2.6c0-1.2-.391-1.64-1.26-1.64-.86.001-1.34.47-1.34 1.64zm1.319 2.21c.75 0 1.83-.09 1.83-.09l.02.61s-1.13.16-1.939.16c-1.5 0-1.99-.87-1.99-2.569 0-1.9.83-2.63 2.101-2.63 1.51 0 2.189 1.11 1.97 2.919h-3.31c.009 1.05.329 1.6 1.318 1.6zm-33.913 10.584v-5h.75v.66s.77-.58 1.74-.76v.78c-.94.18-1.74.69-1.74.69v3.63h-.75zm5.34-.57c1.18 0 1.359-.66 1.359-1.98 0-1.33-.399-1.87-1.359-1.87-1.061 0-1.38.48-1.38 1.85 0 1.4.2 2 1.38 2zm0-4.53c1.51 0 2.13.84 2.13 2.55 0 1.73-.44 2.65-2.13 2.65s-2.15-.84-2.15-2.67c0-1.72.57-2.53 2.15-2.53zm3.47 5.1v-7.18h.739v7.18zm2.84-2.79h2.6c0-1.2-.391-1.64-1.26-1.64-.861 0-1.34.47-1.34 1.64zm1.319 2.21c.75 0 1.83-.09 1.83-.09l.02.61s-1.13.16-1.939.16c-1.5 0-1.99-.87-1.99-2.57 0-1.9.83-2.63 2.101-2.63 1.51 0 2.189 1.11 1.97 2.92h-3.31c.008 1.05.328 1.6 1.318 1.6zm6.649-4.33l-.02.65s-1.11-.16-1.75-.16c-.62 0-1.08.16-1.08.75 0 .47.229.61 1.22.76 1.32.21 1.8.48 1.8 1.45 0 1.17-.74 1.56-1.95 1.56-.64 0-1.76-.19-1.76-.19l.04-.65s1.141.17 1.65.17c.819 0 1.26-.18 1.26-.86 0-.52-.26-.64-1.26-.8-1.22-.19-1.76-.43-1.76-1.41 0-1.1.89-1.46 1.8-1.46.751 0 1.81.19 1.81.19zm1.331 4.91v-1.14h.819v1.14h-.819zm0-3.22v-1.14h.819v1.14h-.819zm5.995-4.27v.72h-1.34v7.279h1.34v.721h-2.1v-8.72zm.9.72v-.72h2.1v8.72h-2.1v-.721h1.34v-7.279z"/><path fill="#3B48CC" d="M211.5 18h27v27h-27z"/><path fill="#FFF" d="M225.9 36.45h-.45a.354.354 0 01-.36-.36v-8.01c0-.225.18-.36.36-.36h4.274c.091 0 .181.045.271.135l1.035 1.305-.495.45-.99-1.17h-3.735v7.335h.091v.675z"/><path fill="#FFF" d="M227.025 37.08h5.13v-6.21l-1.125-1.125h-4.005v7.335zm5.49.675h-5.85c-.18 0-.36-.18-.36-.36v-8.01c0-.225.181-.36.36-.36h4.5c.09 0 .18.045.225.09l1.351 1.35c.09.09.09.135.09.27v6.66c-.001.18-.136.36-.316.36z"/><path fill="#FFF" d="M232.515 31.41h-1.71a.354.354 0 01-.359-.36v-1.665h.675v1.305h1.35l.044.72zm-3.24 4.455h-.226c-.18 0-.359-.045-.45-.18-.18-.225-.225-.495-.18-.72 0-.675-.36-.765-.36-.765-.18-.09-.27-.27-.225-.45.045-.135.135-.18.225-.225.046 0 .36-.135.36-.765 0-.36.18-.81.585-.81h.271v.675h-.136v.135c.045.405-.09.765-.359 1.125.27.315.404.675.359 1.08v.225h.136v.675zm.99 0v-.675h.136v-.135c-.045-.405.09-.765.359-1.08-.27-.36-.404-.72-.359-1.125-.045 0-.045-.045 0-.045v-.18h-.181v-.675h.226c.18 0 .359.045.449.18a.877.877 0 01.181.72c0 .63.359.765.359.765.136.045.226.18.226.36s-.09.27-.271.315c0 0-.359.135-.359.765 0 .405-.136.81-.585.81h-.181zm-7.155-12.42c-3.105 0-5.266.945-5.266 1.8 0 .9 2.16 1.845 5.266 1.845 3.104 0 5.265-.945 5.265-1.845 0-.855-2.16-1.8-5.265-1.8zm0 4.365c-2.88 0-5.94-.9-5.94-2.52 0-1.665 3.061-2.52 5.94-2.52s5.939.855 5.939 2.52c.001 1.62-3.059 2.52-5.939 2.52z"/><path fill="#FFF" d="M228.33 25.245h.72v2.205h-.72zm-5.22 15.03c-2.88 0-5.94-.9-5.94-2.52v-12.51h.675V37.71c0 .9 2.16 1.845 5.266 1.845 3.104 0 5.265-.945 5.265-1.845h.675c-.001 1.665-3.061 2.565-5.941 2.565z"/><path fill="#FFF" d="M223.11 32.13c-3.375 0-5.94-1.08-5.94-2.52h.72c0 .9 2.16 1.845 5.221 1.845.54 0 1.034 0 1.574-.09l.046.72c-.541.045-1.036.09-1.621.045zm0 4.32c-3.375 0-5.94-1.08-5.94-2.52h.72c0 .855 2.16 1.8 5.221 1.8.54.045.989 0 1.574-.045l.046.675c-.541.045-1.036.09-1.621.09z"/><path fill="none" stroke="#3B48CC" stroke-width=".9" stroke-miterlimit="10" d="M211.5 19.8V18h1.755m-1.755 9v-3.6m0 10.8v-3.6m0 10.8v-3.6m0 10.8V45m0 10.8v-3.6m0 10.8v-3.6m0 10.8v-3.6m0 10.8v-3.6m0 10.8V81m0 10.8v-3.6m0 10.8v-3.6m0 10.8v-3.6m0 10.8v-3.6m0 10.8V117m0 10.8v-3.6m0 10.8v-3.6m0 10.8v-3.6m0 10.8v-3.6m0 10.8V153m0 10.8v-3.6m0 10.8v-3.6m0 10.8v-3.6m0 10.8v-3.6m0 10.8V189m0 10.8v-3.6m0 10.8v-3.6m0 10.8v-3.6m0 10.8v-3.6m0 10.8V225m1.755 9H211.5v-1.8m8.73 1.8h-3.466m10.486 0h-3.51m10.53 0h-3.51m10.485 0h-3.51m10.53 0h-3.51m10.485 0h-3.51m10.53 0h-3.51m10.485 0h-3.466m10.486 0h-3.51m10.485 0h-3.466m10.486 0h-3.51m10.53 0h-3.51m10.485 0h-3.51m10.53 0h-3.51m10.485 0h-3.51m10.53 0h-3.51m10.485 0h-3.466m8.731-1.8v1.8h-1.755m1.755-9v3.6m0-10.8v3.601m0-10.801v3.601m0-10.801v3.6m0-10.8v3.6m0-10.8v3.6m0-10.8v3.601m0-10.801v3.601m0-10.801v3.6m0-10.8v3.6m0-10.8v3.6m0-10.8v3.601m0-10.801v3.601m0-10.801v3.6m0-10.8v3.6m0-10.8v3.6m0-10.8v3.6m0-10.8v3.6m0-10.8V99m0-10.8v3.6m0-10.8v3.6m0-10.8v3.6m0-10.8v3.6m0-10.8V63m0-10.8v3.6m0-10.8v3.6m0-10.8v3.6m0-10.8v3.6m0-10.8V27m-1.755-9h1.755v1.8m-8.73-1.8h3.466m-10.486 0h3.51m-10.53 0h3.51m-10.485 0h3.51m-10.53 0h3.51m-10.485 0h3.51m-10.53 0h3.51m-10.485 0h3.466m-10.486 0h3.51m-10.485 0h3.466m-10.486 0h3.51m-10.53 0h3.51m-10.485 0h3.51m-10.53 0h3.51m-10.485 0h3.51m-10.53 0h3.51m-10.485 0h3.466"/><path fill="#3B48CC" d="M247.964 33.372v-6.919h1.91l1.569 5.259 1.571-5.259h1.899v6.919h-1.18v-5.459h-.139l-1.55 5.179h-1.2l-1.56-5.179h-.15v5.459zm10.369-.92c.89 0 1.08-.54 1.08-1.6 0-1.05-.271-1.55-1.08-1.55-.85 0-1.09.48-1.09 1.55 0 1.08.2 1.6 1.09 1.6zm0-4.189c1.66 0 2.239 1 2.239 2.589 0 1.61-.52 2.63-2.239 2.63s-2.25-1-2.25-2.63c0-1.6.56-2.589 2.25-2.589zm4.52 5.109h-1.14v-4.99h1.14v.25s.79-.37 1.34-.37c1.39 0 1.739.82 1.739 2.5v2.61h-1.14v-2.6c0-.95-.12-1.44-.819-1.44-.44 0-1.12.23-1.12.23v3.81zm6.199-2.57c.64 0 .92-.2.92-.78 0-.59-.26-.77-.91-.77-.6 0-.859.21-.859.77-.001.53.209.78.849.78zm.4 2.73c-.311 0-.971-.06-.971-.06-.25.22-.359.38-.359.67 0 .43.33.6 1.2.6.77 0 1.159-.18 1.159-.64 0-.51-.24-.56-1.029-.57zm-.14 2.24c-1.5 0-2.319-.3-2.319-1.51 0-.5.229-.83.74-1.22-.211-.14-.33-.42-.33-.73 0-.23.369-.79.369-.79-.369-.23-.72-.61-.72-1.5 0-1.27.87-1.75 2.021-1.75.459 0 1.02.13 1.02.13l1.52-.03v.93h-.72c.11.15.21.35.21.72 0 1.53-1.01 1.84-2.489 1.7-.15.56-.36.82.93.82 1.609 0 2.1.35 2.1 1.5-.002 1.24-1.002 1.73-2.332 1.73zm5.25-3.32c.89 0 1.08-.54 1.08-1.6 0-1.05-.271-1.55-1.08-1.55-.851 0-1.09.48-1.09 1.55 0 1.08.199 1.6 1.09 1.6zm0-4.189c1.659 0 2.239 1 2.239 2.589 0 1.61-.52 2.63-2.239 2.63s-2.25-1-2.25-2.63c0-1.6.559-2.589 2.25-2.589zm7.458 4.159c.49 0 1.12-.22 1.12-.22v-2.81c-.05 0-.62-.09-1.04-.09-.689 0-1 .45-1 1.55 0 1.21.31 1.57.92 1.57zm2.269-6.049v7h-1.149v-.24s-.71.35-1.3.35c-1.33 0-1.9-.75-1.9-2.64 0-1.79.66-2.58 2.08-2.58.391 0 1.07.12 1.12.13v-2.02h1.149zm4.07 4.779c-.71.08-1.76-.12-1.76.7 0 .42.18.65.51.65.53 0 1.25-.2 1.25-.2v-1.15zm1.14-1.2v2.06c.01.35.12.45.41.5l-.04.97c-.78 0-1.04-.12-1.34-.35 0 0-.86.35-1.63.35-.95 0-1.45-.61-1.45-1.6 0-1.07.59-1.44 1.67-1.52l1.24-.1c.06-.55-.12-.9-.62-.9-.74 0-1.93.09-1.93.09l-.04-.97s1.29-.22 2.029-.22c1.101.001 1.701.461 1.701 1.69zm4.09-.539h-1.351v2.04c0 .69.021.95.521.95.28 0 .81-.03.81-.03l.05.98s-.67.14-1.02.14c-1.149 0-1.5-.44-1.5-1.88v-2.2h-.63v-1.03h.63v-1.45h1.14v1.45h1.351v1.03zm3.569 1.739c-.71.08-1.76-.12-1.76.7 0 .42.18.65.51.65.53 0 1.25-.2 1.25-.2v-1.15zm1.14-1.2v2.06c.011.35.12.45.41.5l-.04.97c-.78 0-1.04-.12-1.34-.35 0 0-.859.35-1.63.35-.95 0-1.45-.61-1.45-1.6 0-1.07.591-1.44 1.67-1.52l1.24-.1c.06-.55-.12-.9-.62-.9-.739 0-1.93.09-1.93.09l-.04-.97s1.29-.22 2.03-.22c1.1.001 1.7.461 1.7 1.69zm3.37 2.5c1.069 0 1.29-.46 1.29-1.64 0-1.1-.301-1.49-.94-1.49-.439 0-1.06.14-1.06.14v2.94s.52.05.71.05zm.5-4.189c1.359 0 1.949.68 1.949 2.55 0 2.08-.659 2.669-2.439 2.669-.52 0-1.859-.13-1.859-.13v-7.04h1.14v2.22c-.001.001.679-.269 1.209-.269zm5.689 2.889c-.71.08-1.76-.12-1.76.7 0 .42.18.65.51.65.53 0 1.25-.2 1.25-.2v-1.15zm1.14-1.2v2.06c.01.35.12.45.41.5l-.04.97c-.78 0-1.04-.12-1.34-.35 0 0-.86.35-1.63.35-.95 0-1.45-.61-1.45-1.6 0-1.07.59-1.44 1.67-1.52l1.24-.1c.06-.55-.12-.9-.62-.9-.74 0-1.93.09-1.93.09l-.04-.97s1.29-.22 2.029-.22c1.101.001 1.701.461 1.701 1.69zm5.069-1.459l-.02.97s-1.2-.16-1.8-.16c-.59 0-.83.13-.83.51 0 .31.21.39 1.04.52 1.319.21 1.76.56 1.76 1.55 0 1.17-.76 1.6-1.99 1.6-.71 0-1.87-.22-1.87-.22l.04-.97s1.21.16 1.721.16c.699 0 .959-.14.959-.54 0-.32-.159-.41-.959-.54-1.28-.21-1.84-.49-1.84-1.53 0-1.14.89-1.58 1.89-1.58.729 0 1.899.23 1.899.23zm2.201 1.979h2.02c0-.87-.29-1.19-1-1.19s-1.02.361-1.02 1.19zm1.119 1.97c.79 0 1.84-.09 1.84-.09l.021.89s-1.14.24-2.03.24c-1.51 0-2.1-.79-2.1-2.55 0-1.82.78-2.669 2.17-2.669 1.42 0 2.13.73 2.13 2.28l-.08.82h-3.069c.008.729.308 1.079 1.118 1.079zm-86.941 25.563h3.06v-3.06h-3.06v3.06zm4.005.945h-4.95V54h4.95v4.95zm-4.005 4.815h3.06v-3.06h-3.06v3.06zm4.005.945h-4.95v-4.95h4.95v4.95zm-4.005 4.815h3.06V66.51h-3.06v3.015zm4.005.945h-4.95v-4.905h4.95v4.905zm-4.005 4.815h3.06V72.27h-3.06v3.015zm4.005.99h-4.95v-4.95h4.95v4.95zm1.755-18.27h14.625v-3.06h-14.625v3.06zm15.57.945H235.26V54h16.516v4.95zm-15.57 4.815h14.625v-3.06h-14.625v3.06zm15.57.945H235.26v-4.95h16.516v4.95zm-15.57 4.815h14.625V66.51h-14.625v3.015zm15.57.945H235.26v-4.905h16.516v4.905zm-15.57 4.815h14.625V72.27h-14.625v3.015zm15.57.99H235.26v-4.95h16.516v4.95z"/><path fill="#C1E4F7" d="M229.5 146.25c0-1.26.99-2.25 2.25-2.25h85.5c1.26 0 2.25.99 2.25 2.25v67.5c0 1.26-.99 2.25-2.25 2.25h-85.5c-1.26 0-2.25-.99-2.25-2.25v-67.5z"/><path d="M252.708 183.28v-4.999h.75v.66s.77-.58 1.739-.761v.781c-.939.18-1.739.689-1.739.689v3.629h-.75zm5.339-.569c1.181 0 1.36-.66 1.36-1.98 0-1.329-.4-1.869-1.36-1.869-1.06 0-1.379.479-1.379 1.85 0 1.398.199 1.999 1.379 1.999zm0-4.53c1.511 0 2.13.84 2.13 2.55 0 1.73-.439 2.65-2.13 2.65-1.689 0-2.149-.84-2.149-2.67-.001-1.72.57-2.53 2.149-2.53zm3.47 5.099v-7.178h.74v7.178zm2.839-2.789h2.6c0-1.2-.39-1.641-1.26-1.641-.859.001-1.34.471-1.34 1.641zm1.321 2.209c.75 0 1.83-.09 1.83-.09l.02.61s-1.13.16-1.939.16c-1.5 0-1.99-.87-1.99-2.57 0-1.899.83-2.63 2.1-2.63 1.51 0 2.19 1.11 1.97 2.92h-3.31c.009 1.05.329 1.6 1.319 1.6zm6.649-4.329l-.021.649s-1.109-.159-1.75-.159c-.619 0-1.079.159-1.079.75 0 .47.229.609 1.22.76 1.319.21 1.8.479 1.8 1.449 0 1.17-.74 1.561-1.95 1.561-.64 0-1.76-.19-1.76-.19l.04-.649s1.14.17 1.65.17c.819 0 1.26-.181 1.26-.86 0-.52-.261-.64-1.26-.8-1.221-.19-1.761-.43-1.761-1.41 0-1.1.891-1.46 1.8-1.46.751-.001 1.811.189 1.811.189zm6.393.59h-1.58v2.33c0 1.09.061 1.39.72 1.39.28 0 .891-.05.891-.05l.04.649s-.66.11-1.011.11c-1.029 0-1.39-.39-1.39-1.83v-2.6h-.71v-.68h.71v-1.531h.75v1.531h1.58v.681zm3.909 1.87l-1.479.12c-.61.06-.86.369-.86.88 0 .579.261.899.71.899.761 0 1.63-.3 1.63-.3v-1.599zm.74-1.02v2.459c.021.32.26.42.58.46l-.03.65c-.6 0-.92-.11-1.18-.38 0 0-.9.38-1.85.38-.87 0-1.36-.551-1.36-1.53 0-.96.49-1.39 1.521-1.479l1.579-.15c.07-.8-.159-1.319-.869-1.319-.73 0-1.91.13-1.91.13l-.03-.65s1.2-.2 1.97-.2c1.06-.001 1.579.499 1.579 1.629zm3.43 2.9c1.37 0 1.609-.62 1.609-2 0-1.3-.26-1.84-1.14-1.84-.66 0-1.39.27-1.39.27v3.51c.001-.001.651.06.921.06zm.54-4.53c1.359 0 1.83.721 1.83 2.51 0 1.98-.54 2.69-2.36 2.69-.6 0-1.68-.11-1.68-.11v-7.169h.75v2.409s.75-.33 1.46-.33zm3.17 5.099v-7.178h.739v7.178zm2.84-2.789h2.6c0-1.2-.391-1.641-1.26-1.641-.861.001-1.34.471-1.34 1.641zm1.319 2.209c.75 0 1.83-.09 1.83-.09l.02.61s-1.13.16-1.939.16c-1.5 0-1.99-.87-1.99-2.57 0-1.899.83-2.63 2.101-2.63 1.51 0 2.189 1.11 1.97 2.92h-3.31c.008 1.05.328 1.6 1.318 1.6z"/><path fill="#3B48CC" d="M230.445 148.005h3.06v-3.06h-3.06v3.06zm4.005.945h-4.95V144h4.95v4.95zm-4.005 4.815h3.06v-3.06h-3.06v3.06zm4.005.945h-4.95v-4.95h4.95v4.95zm-4.005 4.815h3.06v-3.016h-3.06v3.016zm4.005.945h-4.95v-4.904h4.95v4.904zm-4.005 4.815h3.06v-3.016h-3.06v3.016zm4.005.99h-4.95v-4.95h4.95v4.95zm1.755-18.27h14.625v-3.06h-14.625v3.06zm15.57.945H235.26V144h16.516v4.95zm-15.57 4.815h14.625v-3.06h-14.625v3.06zm15.57.945H235.26v-4.95h16.516v4.95zm-15.57 4.815h14.625v-3.016h-14.625v3.016zm15.57.945H235.26v-4.904h16.516v4.904zm-15.57 4.815h14.625v-3.016h-14.625v3.016zm15.57.99H235.26v-4.95h16.516v4.95z"/><path fill="none" stroke="#D86613" stroke-width=".9" stroke-miterlimit="10" d="M31.5 19.8V18h1.755M31.5 27v-3.6m0 10.8v-3.6m0 10.8v-3.6m0 10.8V45m0 10.8v-3.6m0 10.8v-3.6m0 10.8v-3.6m0 10.8v-3.6m0 10.8V81m0 10.8v-3.6m0 10.8v-3.6m0 10.8v-3.6m0 10.8v-3.6m0 10.8V117m1.755 9H31.5v-1.8m8.73 1.8h-3.465m10.485 0h-3.51m10.53 0h-3.51m10.485 0h-3.51m10.53 0h-3.51m10.485 0h-3.51m10.53 0h-3.51m10.485 0H85.77m10.485 0h-3.51m10.485 0h-3.465m10.485 0h-3.51m10.53 0h-3.51m10.485 0h-3.51m10.53 0h-3.51m10.485 0h-3.51m10.53 0h-3.51m10.485 0h-3.465m8.73-1.8v1.8h-1.755m1.755-9v3.6m0-10.8v3.6m0-10.8v3.6m0-10.8V99m0-10.8v3.6m0-10.8v3.6m0-10.8v3.6m0-10.8v3.6m0-10.8V63m0-10.8v3.6m0-10.8v3.6m0-10.8v3.6m0-10.8v3.6m0-10.8V27m-1.755-9h1.755v1.8m-8.73-1.8h3.465m-10.485 0h3.51m-10.53 0h3.51m-10.485 0h3.51m-10.53 0h3.51m-10.485 0h3.51m-10.53 0h3.51m-10.485 0h3.465m-10.485 0h3.51M85.77 18h3.465M78.75 18h3.51m-10.53 0h3.51m-10.485 0h3.51m-10.53 0h3.51M50.76 18h3.51m-10.53 0h3.51m-10.485 0h3.465"/><path fill="#D86613" d="M72.414 26.583l-.09 1.05s-1.4-.16-1.98-.16c-.82 0-1.23.26-1.23.82 0 .59.34.74 1.5 1.07 1.44.42 1.95.81 1.95 2.02 0 1.44-.96 2.1-2.36 2.1-.76 0-2.11-.26-2.11-.26l.12-1.05s1.27.17 1.98.17c.82 0 1.19-.26 1.19-.93 0-.54-.29-.75-1.32-1.01-1.5-.39-2.12-.85-2.12-2.09 0-1.32.91-1.98 2.4-1.98.77 0 2.07.25 2.07.25zm2.04 3.889h2.02c0-.87-.29-1.19-1-1.19s-1.02.361-1.02 1.19zm1.12 1.97c.79 0 1.84-.09 1.84-.09l.02.89s-1.14.24-2.03.24c-1.51 0-2.1-.79-2.1-2.55 0-1.82.78-2.669 2.17-2.669 1.42 0 2.13.73 2.13 2.28l-.08.82h-3.07c.01.729.31 1.079 1.12 1.079zm3.139.93v-4.99h1.14v.53s.66-.49 1.51-.65v1.22c-.9.18-1.51.52-1.51.52v3.37h-1.14zm2.98-4.99h1.19l.95 4.04h.3l.97-4.04h1.16l-1.28 4.99h-2.02zm5.419-.809v-1.21h1.14v1.21h-1.14zm0 5.799v-4.99h1.14v4.99h-1.14zm4.35-5.109c.54 0 1.52.19 1.52.19l-.04.99s-.79-.09-1.17-.09c-1.02 0-1.25.38-1.25 1.46 0 1.2.21 1.59 1.26 1.59.38 0 1.17-.09 1.17-.09l.03.99s-1.02.18-1.55.18c-1.52 0-2.07-.77-2.07-2.669 0-1.792.61-2.551 2.1-2.551zm3.41 2.209h2.02c0-.87-.29-1.19-1-1.19s-1.02.361-1.02 1.19zm1.12 1.97c.79 0 1.84-.09 1.84-.09l.02.89s-1.14.24-2.03.24c-1.51 0-2.1-.79-2.1-2.55 0-1.82.78-2.669 2.17-2.669 1.42 0 2.13.73 2.13 2.28l-.08.82h-3.07c.01.729.31 1.079 1.12 1.079zm6.268-1.97h2.02c0-.87-.29-1.19-1-1.19s-1.02.361-1.02 1.19zm1.12 1.97c.79 0 1.84-.09 1.84-.09l.02.89s-1.14.24-2.03.24c-1.51 0-2.1-.79-2.1-2.55 0-1.82.78-2.669 2.17-2.669 1.42 0 2.13.73 2.13 2.28l-.08.82h-3.07c.01.729.31 1.079 1.12 1.079zm4.279.93h-1.14v-4.99h1.14v.25s.79-.37 1.34-.37c1.39 0 1.74.82 1.74 2.5v2.61h-1.14v-2.6c0-.95-.12-1.44-.82-1.44-.44 0-1.12.23-1.12.23v3.81zm6.23-.95c.49 0 1.12-.22 1.12-.22v-2.81c-.05 0-.62-.09-1.04-.09-.69 0-1 .45-1 1.55 0 1.21.31 1.57.92 1.57zm2.269-6.049v7h-1.149v-.24s-.71.35-1.3.35c-1.33 0-1.899-.75-1.899-2.64 0-1.79.66-2.58 2.08-2.58.39 0 1.07.12 1.12.13v-2.02h1.148zm3.65 2.94c-.44 0-1.04.26-1.04.26v2.81c.04.01.52.07.85.07.9 0 1.16-.44 1.16-1.63 0-1.131-.37-1.51-.97-1.51zm-2.18 6.199v-7.129h1.14v.27s.68-.39 1.25-.39c1.3 0 1.92.69 1.92 2.56 0 2.51-1.21 2.86-3.17 2.57v2.12h-1.14zm7.36-3.06c.89 0 1.08-.54 1.08-1.6 0-1.05-.27-1.55-1.08-1.55-.85 0-1.09.48-1.09 1.55-.001 1.08.2 1.6 1.09 1.6zm0-4.189c1.66 0 2.24 1 2.24 2.589 0 1.61-.52 2.63-2.24 2.63-1.72 0-2.25-1-2.25-2.63 0-1.6.56-2.589 2.25-2.589zm3.359-.69v-1.21h1.14v1.21h-1.14zm0 5.799v-4.99h1.14v4.99h-1.14zm3.73 0h-1.14v-4.99h1.14v.25s.79-.37 1.34-.37c1.39 0 1.74.82 1.74 2.5v2.61h-1.14v-2.6c0-.95-.12-1.44-.82-1.44-.44 0-1.12.23-1.12.23v3.81zm7.059-3.959h-1.35v2.04c0 .69.02.95.52.95.28 0 .81-.03.81-.03l.05.98s-.67.14-1.02.14c-1.15 0-1.5-.44-1.5-1.88v-2.2h-.63v-1.03h.63v-1.45h1.14v1.45h1.35v1.03zM38.025 43.83H52.38V24.345H38.025V43.83zM52.965 45H37.44a.567.567 0 01-.585-.585V23.76c0-.315.225-.585.585-.585h15.525c.315 0 .585.27.585.585v20.655c0 .315-.27.585-.585.585z"/><path fill="#D86613" d="M40.14 28.35h1.44v-1.44h-1.44v1.44zm2.025 1.125H39.6c-.36 0-.585-.225-.585-.54v-2.61c0-.315.225-.585.585-.585h2.565c.315 0 .585.27.585.585v2.61c0 .315-.27.54-.585.54zM40.14 34.38h1.44v-1.44h-1.44v1.44zm2.025 1.125H39.6c-.36 0-.585-.225-.585-.54v-2.61c0-.315.225-.585.585-.585h2.565c.315 0 .585.27.585.585v2.61c0 .315-.27.54-.585.54zM40.14 40.41h1.44v-1.44h-1.44v1.44zm2.025 1.17H39.6a.567.567 0 01-.585-.585v-2.61c0-.315.225-.585.585-.585h2.565c.315 0 .585.27.585.585v2.61c0 .315-.27.585-.585.585zm1.305-14.535h7.785v1.17H43.47zm0 6.03h7.785v1.17H43.47zm0 6.03h7.785v1.17H43.47z"/><path fill="#D86613" d="M37.44 42.435h-2.61a.596.596 0 01-.585-.585v-20.7c0-.315.27-.585.585-.585H50.4c.315 0 .54.27.54.585v2.61h-1.125v-2.025h-14.4v19.53h2.025v1.17z"/><path fill="#D86613" d="M34.65 39.825h-2.565c-.315 0-.585-.27-.585-.54v-20.7c0-.315.27-.585.585-.585H47.61c.315 0 .585.27.585.585v2.565h-1.17v-1.98H32.67V38.7h1.98v1.125z"/><path fill="none" stroke="#000" stroke-width=".45" stroke-miterlimit="10" d="M229.275 90H155.88"/><path d="M229.275 89.775h.225v.45h-.225zM149.22 90l6.435-2.07v4.14z"/><path fill="none" stroke="#000" stroke-width=".45" stroke-miterlimit="10" d="M149.22 90l6.435-2.07v4.14zm80.055 90l-.99-.045-1.17-.045-1.125-.135-1.08-.135-1.08-.225-1.08-.225-1.035-.315-1.035-.315-1.035-.405-.99-.405-1.035-.495-1.035-.54-1.035-.63-1.08-.675-1.08-.72-1.125-.855-1.17-.945-1.17-1.125-1.26-1.215-1.35-1.44-1.44-1.665-1.53-1.935-1.755-2.385-1.98-2.97-2.385-3.96-3.24-5.94-15.21-30.06-2.385-3.96-1.98-2.97-1.755-2.385-1.53-1.935-1.44-1.665-1.35-1.44-1.26-1.215-1.17-1.08-1.17-.99-1.125-.855-1.08-.72-1.08-.675-1.035-.63-1.035-.54-1.035-.495-.99-.405-1.035-.405-1.035-.315-.495-.135"/><path d="M229.275 179.775h.225v.449h-.225zM149.22 96.48l6.66-1.215-.585 4.14z"/><path fill="none" stroke="#000" stroke-width=".45" stroke-miterlimit="10" d="M149.22 96.48l6.66-1.215-.585 4.14z"/><path fill="#E5E5E5" d="M58.5 182.25c0-1.26.99-2.25 2.25-2.25h67.5c1.26 0 2.25.99 2.25 2.25v31.5c0 1.26-.99 2.25-2.25 2.25h-67.5c-1.26 0-2.25-.99-2.25-2.25v-31.5z"/><path d="M87.147 199.744l.03.7s-1.11.229-1.899.229c-2.07 0-2.53-1.27-2.53-3.56 0-2.35.49-3.6 2.53-3.6.91 0 1.91.23 1.91.23l-.04.689s-1.09-.17-1.79-.17c-1.55 0-1.82.93-1.82 2.85 0 1.88.26 2.81 1.839 2.81.62.002 1.77-.178 1.77-.178zm1.29.83v-7.179h.74v7.179zm2.39-6.13v-.871h.74v.871h-.74zm0 6.13v-5h.74v5h-.74zm2.809-2.79h2.6c0-1.2-.39-1.64-1.26-1.64-.86.001-1.34.47-1.34 1.64zm1.32 2.21c.75 0 1.83-.09 1.83-.09l.02.609s-1.13.16-1.94.16c-1.5 0-1.99-.87-1.99-2.569 0-1.9.83-2.63 2.1-2.63 1.51 0 2.19 1.109 1.97 2.92h-3.31c.01 1.05.33 1.6 1.32 1.6zm4.11.58h-.75v-5h.75v.33s.84-.43 1.55-.43c1.37 0 1.68.68 1.68 2.5v2.6h-.74v-2.59c0-1.33-.15-1.82-1.06-1.82-.66 0-1.43.37-1.43.37v4.04zm7.369-4.319h-1.58v2.329c0 1.09.06 1.39.72 1.39.28 0 .89-.05.89-.05l.04.65s-.66.109-1.01.109c-1.03 0-1.39-.39-1.39-1.829v-2.6h-.71v-.681h.71v-1.53h.75v1.53h1.58v.682z"/><path fill="#3E3E3E" d="M75.06 191.88c0 .585-.495 1.08-1.08 1.08h-14.4c-.585 0-1.08-.495-1.08-1.08v-10.8c0-.585.495-1.08 1.08-1.08h14.4c.585 0 1.08.495 1.08 1.08v10.8z"/><path fill="#3999C6" d="M59.58 181.8h14.4v9.36h-14.4z"/><path fill="#FFF" d="M67.86 180.99c0 .135-.09.225-.27.225h-1.575c-.135 0-.225-.09-.225-.225s.09-.271.225-.271h1.575c.18.001.27.136.27.271"/><path opacity=".149" fill="#FFF" d="M69.66 180H59.58c-.585 0-1.08.495-1.08 1.08v10.8c0 .585.495 1.08 1.08 1.08h4.32L69.66 180z"/><path fill="#3E3E3E" d="M76.5 197.1c0 .495-.405.9-.9.9h-6.48a.903.903 0 01-.9-.9v-11.16c0-.495.405-.9.9-.9h6.48c.495 0 .9.405.9.9v11.16z"/><path fill="#59B4D9" d="M68.94 186.48h6.84v9.72h-6.84z"/><path fill="#FFF" d="M73.845 185.85c0 .091-.18.181-.36.181h-2.25c-.18 0-.36-.09-.36-.181 0-.135.18-.225.36-.225h2.25c.18 0 .36.09.36.225"/><path opacity=".149" fill="#FFF" d="M74.745 185.04H69.12c-.495 0-.9.405-.9.9v11.16c0 .495.405.9.9.9h.765l4.86-12.96z"/><path fill="none" stroke="#000" stroke-width=".45" stroke-miterlimit="10" d="M94.5 179.775V115.38"/><path d="M94.275 179.775h.45V180h-.45zm.225-71.055l2.07 6.435h-4.14z"/><path fill="none" stroke="#000" stroke-width=".45" stroke-miterlimit="10" d="M94.5 108.72l2.07 6.435h-4.14z"/><path d="M99.412 147.825h-.607v-5.913h.607v2.057s.681-.275 1.248-.275c1.118 0 1.369.551 1.369 2.017v2.115h-.607v-2.107c0-1.069-.122-1.466-.851-1.466-.542 0-1.158.235-1.158.235v3.337zm5.945-3.499h-1.28v1.886c0 .883.049 1.126.583 1.126.227 0 .721-.04.721-.04l.032.526s-.534.089-.818.089c-.834 0-1.126-.315-1.126-1.482v-2.106h-.575v-.55h.575v-1.239h.607v1.239h1.28v.551zm2.941 0h-1.28v1.886c0 .883.049 1.126.583 1.126.227 0 .721-.04.721-.04l.032.526s-.535.089-.818.089c-.834 0-1.126-.315-1.126-1.482v-2.106h-.575v-.55h.575v-1.239h.607v1.239h1.28v.551zm2.697-.073c-.535 0-1.126.315-1.126.315v2.707c.105.024.527.089.875.089.891 0 1.183-.445 1.183-1.628 0-1.094-.348-1.483-.932-1.483zm-1.733 5.37v-5.848h.607v.284s.607-.364 1.207-.364c1.021 0 1.466.607 1.466 2.057 0 1.588-.51 2.155-1.766 2.155-.38 0-.793-.065-.907-.089v1.805h-.607zm-10.085.227h.64s-.77 2.106-.77 3.638c0 1.506.77 3.45.77 3.45h-.64s-.786-1.831-.786-3.45c.001-1.621.786-3.638.786-3.638zm2.827.429c0 1.717.008 3.029.008 4.763 0 1.345-.47 1.466-1.539 1.466v-.583c.721 0 .916-.057.916-.956v-4.69h.615zm.996.008h.641l1.028 5.015h.235l1.085-4.966h.705l1.118 4.966h.235l1.004-5.015h.64l-1.199 5.638h-1.134l-1.012-4.706-.996 4.706h-1.126zm6.958.6v-.6h4.05v.6h-1.709v5.038h-.615v-5.038zm4.31-1.037h.64s.786 1.937.786 3.557-.786 3.531-.786 3.531h-.64s.77-2.025.77-3.531c-.001-1.532-.77-3.557-.77-3.557z"/><path fill="none" stroke="#D86613" stroke-width=".9" stroke-miterlimit="10" d="M94.5 71.55V53.325"/><path fill="#D86613" d="M94.05 71.55h.9V72h-.9zm.45-25.11l2.07 6.435h-4.14z"/><path fill="none" stroke="#D86613" stroke-width=".9" stroke-miterlimit="10" d="M94.5 46.44l2.07 6.435h-4.14z"/></svg>