<svg xmlns="http://www.w3.org/2000/svg" width="535" height="252" viewBox="0 0 535 252"><path fill="#FFF" d="M0 0h535.5v252H0z"/><path fill="#E5E5E5" d="M112.5 65.25c0-1.26.99-2.25 2.25-2.25h49.5c1.26 0 2.25.99 2.25 2.25v40.5c0 1.26-.99 2.25-2.25 2.25h-49.5c-1.26 0-2.25-.99-2.25-2.25v-40.5z"/><path d="M131.261 87.872h.74v5h-.74v-.32s-.78.42-1.48.42c-1.4 0-1.69-.64-1.69-2.49v-2.61h.74v2.6c0 1.38.12 1.83 1.06 1.83.66 0 1.37-.37 1.37-.37v-4.06zm5.78.089l-.02.65s-1.11-.16-1.75-.16c-.62 0-1.08.16-1.08.75 0 .47.23.61 1.22.76 1.32.21 1.8.48 1.8 1.45 0 1.17-.74 1.56-1.95 1.56-.64 0-1.76-.19-1.76-.19l.04-.65s1.14.17 1.65.17c.82 0 1.26-.18 1.26-.86 0-.52-.26-.64-1.26-.8-1.22-.19-1.76-.43-1.76-1.41 0-1.1.89-1.46 1.8-1.46.749 0 1.81.19 1.81.19zm1.989 2.12h2.6c0-1.2-.39-1.64-1.26-1.64-.86 0-1.34.471-1.34 1.64zm1.32 2.21c.75 0 1.83-.09 1.83-.09l.02.61s-1.13.16-1.94.16c-1.5 0-1.99-.87-1.99-2.57 0-1.9.83-2.63 2.1-2.63 1.51 0 2.19 1.11 1.97 2.92h-3.31c.011 1.05.33 1.6 1.32 1.6zm3.36.58v-5h.75v.66s.77-.58 1.74-.76v.78c-.94.18-1.74.69-1.74.69v3.63h-.75zm3.339-5.209l2.09-1.391h.73v6.6h-.77v-5.72l-1.689 1.13z"/><path fill="#3B48CC" d="M31.5 18h27v27h-27z"/><path fill="#FFF" d="M45.9 36.45h-.45a.355.355 0 01-.36-.36v-8.01c0-.225.18-.36.36-.36h4.275c.09 0 .18.045.27.135l1.035 1.305-.495.45-.99-1.17H45.81v7.335h.09v.675z"/><path fill="#FFF" d="M47.025 37.08h5.13v-6.21l-1.125-1.125h-4.005v7.335zm5.49.675h-5.85c-.18 0-.36-.18-.36-.36v-8.01c0-.225.18-.36.36-.36h4.5c.09 0 .18.045.225.09l1.35 1.35c.09.09.09.135.09.27v6.66c0 .18-.135.36-.315.36z"/><path fill="#FFF" d="M52.515 31.41h-1.71a.355.355 0 01-.36-.36v-1.665h.675v1.305h1.35l.045.72zm-3.24 4.455h-.225c-.18 0-.36-.045-.45-.18-.18-.225-.225-.495-.18-.72 0-.675-.36-.765-.36-.765-.18-.09-.27-.27-.225-.45.045-.135.135-.18.225-.225.045 0 .36-.135.36-.765 0-.36.18-.81.585-.81h.27v.675h-.135v.135c.045.405-.09.765-.36 1.125.27.315.405.675.36 1.08v.225h.135v.675zm.99 0v-.675h.135v-.135c-.045-.405.09-.765.36-1.08-.27-.36-.405-.72-.36-1.125-.045 0-.045-.045 0-.045v-.18h-.18v-.675h.225c.18 0 .36.045.45.18.18.225.225.495.18.72 0 .63.36.765.36.765.135.045.225.18.225.36s-.09.27-.27.315c0 0-.36.135-.36.765 0 .405-.135.81-.585.81h-.18zm-7.155-12.42c-3.105 0-5.265.945-5.265 1.8 0 .9 2.16 1.845 5.265 1.845s5.265-.945 5.265-1.845c0-.855-2.16-1.8-5.265-1.8zm0 4.365c-2.88 0-5.94-.9-5.94-2.52 0-1.665 3.06-2.52 5.94-2.52 2.88 0 5.94.855 5.94 2.52 0 1.62-3.06 2.52-5.94 2.52z"/><path fill="#FFF" d="M48.33 25.245h.72v2.205h-.72zm-5.22 15.03c-2.88 0-5.94-.9-5.94-2.52v-12.51h.675V37.71c0 .9 2.16 1.845 5.265 1.845s5.265-.945 5.265-1.845h.675c0 1.665-3.06 2.565-5.94 2.565z"/><path fill="#FFF" d="M43.11 32.13c-3.375 0-5.94-1.08-5.94-2.52h.72c0 .9 2.16 1.845 5.22 1.845.54 0 1.035 0 1.575-.09l.045.72c-.54.045-1.035.09-1.62.045zm0 4.32c-3.375 0-5.94-1.08-5.94-2.52h.72c0 .855 2.16 1.8 5.22 1.8.54.045.99 0 1.575-.045l.045.675c-.54.045-1.035.09-1.62.09z"/><path fill="#7D7C7C" d="M139.5 63.81l3.915 2.97v.765c0 2.115-1.755 3.825-3.915 3.825s-3.96-1.71-3.96-3.825v-.765l3.96-2.97zm2.25 8.595c2.475 0 4.5 1.44 4.5 3.825V81h-2.61v-3.375h-.405V81h-7.38v-3.375h-.45V81h-2.655v-4.77c0-2.385 2.025-3.825 4.5-3.825h4.5z"/><path fill="#D2D3D3" d="M139.5 63c2.16 0 3.87 1.71 3.87 3.78s-1.8 3.735-3.96 3.735c-2.115 0-3.87-1.665-3.87-3.735 0-2.115 1.8-3.78 3.96-3.78zm2.25 8.595c2.475 0 4.5 1.44 4.5 3.825v4.77h-2.61v-3.33h-.405v3.33h-7.38v-3.33h-.45v3.33h-2.655v-4.77c0-2.385 2.025-3.825 4.5-3.825h4.5z"/><path fill="#E5E5E5" d="M45 182.25c0-1.26.99-2.25 2.25-2.25h40.5c1.26 0 2.25.99 2.25 2.25v31.5c0 1.26-.99 2.25-2.25 2.25h-40.5c-1.26 0-2.25-.99-2.25-2.25v-31.5z"/><path d="M53.679 199.984c.67 0 1.42-.37 1.42-.37v-3.35c-.15-.021-.78-.11-1.18-.11-1.05 0-1.38.65-1.38 1.96.001 1.6.55 1.87 1.14 1.87zm2.17-6.41v7h-.75v-.33s-.77.43-1.52.43c-.97 0-1.79-.42-1.79-2.579 0-1.75.56-2.62 2.09-2.62.43 0 1.07.1 1.22.13v-2.031h.75zm2.13 4.21h2.6c0-1.2-.39-1.64-1.26-1.64-.86.001-1.34.47-1.34 1.64zm1.32 2.21c.75 0 1.83-.09 1.83-.09l.02.609s-1.13.16-1.939.16c-1.5 0-1.99-.87-1.99-2.569 0-1.9.83-2.63 2.1-2.63 1.51 0 2.19 1.109 1.97 2.92h-3.31c.009 1.05.329 1.6 1.319 1.6zm2.73-4.42h.78l1.199 4.36h.37l1.22-4.36h.76l-1.42 5h-1.5zm5.389-1.13v-.871h.74v.871h-.74zm0 6.13v-5h.74v5h-.74zm4.12-5.099c.46 0 1.36.149 1.36.149l-.02.65s-.8-.09-1.18-.09c-1.15 0-1.46.479-1.46 1.8 0 1.46.23 1.989 1.46 1.989.38 0 1.19-.09 1.19-.09l.03.65s-.94.14-1.39.14c-1.6 0-2.06-.729-2.06-2.689 0-1.809.58-2.509 2.07-2.509zm3.059 2.309h2.6c0-1.2-.39-1.64-1.26-1.64-.86.001-1.34.47-1.34 1.64zm1.32 2.21c.75 0 1.83-.09 1.83-.09l.02.609s-1.13.16-1.94.16c-1.5 0-1.99-.87-1.99-2.569 0-1.9.83-2.63 2.1-2.63 1.51 0 2.19 1.109 1.97 2.92h-3.31c.01 1.05.33 1.6 1.32 1.6zm3.14-4.63l2.089-1.389h.73v6.599h-.77v-5.72l-1.689 1.13z"/><path fill="#E5E5E5" d="M238.5 65.25c0-1.26.99-2.25 2.25-2.25h49.5c1.26 0 2.25.99 2.25 2.25v40.5c0 1.26-.99 2.25-2.25 2.25h-49.5c-1.26 0-2.25-.99-2.25-2.25v-40.5z"/><path d="M257.261 87.872h.74v5h-.74v-.32s-.78.42-1.48.42c-1.4 0-1.69-.64-1.69-2.49v-2.61h.74v2.6c0 1.38.12 1.83 1.06 1.83.66 0 1.37-.37 1.37-.37v-4.06zm5.78.089l-.02.65s-1.11-.16-1.75-.16c-.62 0-1.08.16-1.08.75 0 .47.23.61 1.22.76 1.32.21 1.8.48 1.8 1.45 0 1.17-.74 1.56-1.95 1.56-.64 0-1.76-.19-1.76-.19l.04-.65s1.14.17 1.65.17c.82 0 1.26-.18 1.26-.86 0-.52-.26-.64-1.26-.8-1.22-.19-1.76-.43-1.76-1.41 0-1.1.89-1.46 1.8-1.46.749 0 1.81.19 1.81.19zm1.989 2.12h2.6c0-1.2-.39-1.64-1.26-1.64-.86 0-1.34.471-1.34 1.64zm1.32 2.21c.75 0 1.83-.09 1.83-.09l.021.61s-1.13.16-1.94.16c-1.5 0-1.99-.87-1.99-2.57 0-1.9.83-2.63 2.1-2.63 1.51 0 2.189 1.11 1.97 2.92h-3.31c.01 1.05.329 1.6 1.319 1.6zm3.36.58v-5h.75v.66s.77-.58 1.739-.76v.78c-.939.18-1.739.69-1.739.69v3.63h-.75zm7.479 0h-4.22v-.71l1.909-1.98c.801-.82 1.34-1.38 1.34-2.169 0-.81-.479-1.1-1.439-1.1-.72 0-1.7.22-1.7.22l-.06-.709s.979-.26 1.91-.26c1.39 0 2.09.53 2.09 1.77 0 .99-.44 1.57-1.34 2.479l-1.681 1.72h3.19v.739z"/><path fill="#7D7C7C" d="M265.5 63.81l3.915 2.97v.765c0 2.115-1.755 3.825-3.915 3.825s-3.96-1.71-3.96-3.825v-.765l3.96-2.97zm2.25 8.595c2.475 0 4.5 1.44 4.5 3.825V81h-2.61v-3.375h-.404V81h-7.38v-3.375h-.45V81h-2.655v-4.77c0-2.385 2.025-3.825 4.5-3.825h4.499z"/><path fill="#D2D3D3" d="M265.5 63c2.16 0 3.87 1.71 3.87 3.78s-1.8 3.735-3.96 3.735c-2.115 0-3.87-1.665-3.87-3.735 0-2.115 1.8-3.78 3.96-3.78zm2.25 8.595c2.475 0 4.5 1.44 4.5 3.825v4.77h-2.61v-3.33h-.404v3.33h-7.38v-3.33h-.45v3.33h-2.655v-4.77c0-2.385 2.025-3.825 4.5-3.825h4.499z"/><path fill="#E5E5E5" d="M117 182.25c0-1.26.99-2.25 2.25-2.25h40.5c1.26 0 2.25.99 2.25 2.25v31.5c0 1.26-.99 2.25-2.25 2.25h-40.5c-1.26 0-2.25-.99-2.25-2.25v-31.5z"/><path d="M125.679 199.984c.67 0 1.42-.37 1.42-.37v-3.35c-.15-.021-.78-.11-1.18-.11-1.05 0-1.38.65-1.38 1.96.001 1.6.55 1.87 1.14 1.87zm2.17-6.41v7h-.75v-.33s-.77.43-1.52.43c-.97 0-1.79-.42-1.79-2.579 0-1.75.56-2.62 2.09-2.62.43 0 1.07.1 1.22.13v-2.031h.75zm2.13 4.21h2.6c0-1.2-.39-1.64-1.26-1.64-.86.001-1.34.47-1.34 1.64zm1.32 2.21c.75 0 1.83-.09 1.83-.09l.02.609s-1.13.16-1.939.16c-1.5 0-1.99-.87-1.99-2.569 0-1.9.83-2.63 2.1-2.63 1.51 0 2.19 1.109 1.97 2.92h-3.31c.009 1.05.329 1.6 1.319 1.6zm2.73-4.42h.78l1.199 4.36h.37l1.22-4.36h.76l-1.42 5h-1.5zm5.389-1.13v-.871h.74v.871h-.74zm0 6.13v-5h.74v5h-.74zm4.12-5.099c.46 0 1.36.149 1.36.149l-.02.65s-.8-.09-1.18-.09c-1.15 0-1.46.479-1.46 1.8 0 1.46.23 1.989 1.46 1.989.38 0 1.19-.09 1.19-.09l.03.65s-.94.14-1.39.14c-1.6 0-2.06-.729-2.06-2.689 0-1.809.58-2.509 2.07-2.509zm3.059 2.309h2.6c0-1.2-.39-1.64-1.26-1.64-.86.001-1.34.47-1.34 1.64zm1.32 2.21c.75 0 1.83-.09 1.83-.09l.02.609s-1.13.16-1.94.16c-1.5 0-1.99-.87-1.99-2.569 0-1.9.83-2.63 2.1-2.63 1.51 0 2.19 1.109 1.97 2.92h-3.31c.01 1.05.33 1.6 1.32 1.6zm7.279.58h-4.219v-.709l1.91-1.98c.8-.819 1.34-1.379 1.34-2.169 0-.811-.48-1.101-1.44-1.101-.72 0-1.7.221-1.7.221l-.06-.71s.98-.261 1.91-.261c1.39 0 2.09.53 2.09 1.771 0 .989-.44 1.569-1.34 2.479l-1.68 1.72h3.189v.739z"/><path fill="#E5E5E5" d="M189 182.25c0-1.26.99-2.25 2.25-2.25h40.5c1.26 0 2.25.99 2.25 2.25v31.5c0 1.26-.99 2.25-2.25 2.25h-40.5c-1.26 0-2.25-.99-2.25-2.25v-31.5z"/><path d="M197.679 199.984c.67 0 1.42-.37 1.42-.37v-3.35c-.15-.021-.78-.11-1.18-.11-1.05 0-1.38.65-1.38 1.96.001 1.6.55 1.87 1.14 1.87zm2.17-6.41v7h-.75v-.33s-.77.43-1.52.43c-.97 0-1.79-.42-1.79-2.579 0-1.75.56-2.62 2.09-2.62.43 0 1.07.1 1.22.13v-2.031h.75zm2.13 4.21h2.6c0-1.2-.39-1.64-1.26-1.64-.86.001-1.34.47-1.34 1.64zm1.32 2.21c.75 0 1.83-.09 1.83-.09l.02.609s-1.13.16-1.939.16c-1.5 0-1.99-.87-1.99-2.569 0-1.9.83-2.63 2.1-2.63 1.51 0 2.19 1.109 1.97 2.92h-3.31c.009 1.05.329 1.6 1.319 1.6zm2.729-4.42h.781l1.199 4.36h.37l1.22-4.36h.76l-1.42 5h-1.5zm5.39-1.13v-.871h.74v.871h-.74zm0 6.13v-5h.74v5h-.74zm4.12-5.099c.46 0 1.36.149 1.36.149l-.02.65s-.8-.09-1.18-.09c-1.15 0-1.46.479-1.46 1.8 0 1.46.23 1.989 1.46 1.989.38 0 1.19-.09 1.19-.09l.03.65s-.94.14-1.39.14c-1.6 0-2.06-.729-2.06-2.689 0-1.809.58-2.509 2.07-2.509zm3.059 2.309h2.6c0-1.2-.39-1.64-1.26-1.64-.86.001-1.34.47-1.34 1.64zm1.32 2.21c.75 0 1.83-.09 1.83-.09l.02.609s-1.13.16-1.94.16c-1.5 0-1.99-.87-1.99-2.569 0-1.9.83-2.63 2.1-2.63 1.51 0 2.19 1.109 1.97 2.92h-3.31c.01 1.05.33 1.6 1.32 1.6zm3.1-5.89s1.03-.24 1.95-.24c1.56 0 2.11.551 2.11 1.721 0 1.029-.79 1.35-.99 1.479.67.24 1.15.55 1.15 1.62 0 1.329-.66 1.989-2.15 1.989-1.04 0-2.18-.229-2.18-.229l.08-.7s1.08.189 2.02.189c.979 0 1.43-.409 1.43-1.22 0-1.42-1.37-1.189-2.69-1.199v-.701h1.33c.51 0 1.2-.43 1.2-1.15 0-.77-.41-1.06-1.35-1.06-.9 0-1.83.19-1.83.19l-.08-.689z"/><path fill="none" stroke="#000" stroke-width=".45" stroke-miterlimit="10" d="M127.755 108.225l-.045 1.125-.09 1.305-.09 1.215-.18 1.215-.225 1.17-.27 1.125-.315 1.08-.36 1.08-.405 1.08-.45 1.08-.495 1.08-.54 1.035-.63 1.08-.675 1.08-.81 1.125-.855 1.17-.99 1.17-1.125 1.26-1.305 1.35-1.53 1.395-1.8 1.575-2.295 1.8-3.06 2.25-4.95 3.285-16.83 10.575-3.015 2.25-2.295 1.8-1.845 1.575-1.53 1.395-1.26 1.35-1.125 1.26-.99 1.17-.9 1.17-.765 1.125-.675 1.08-.63 1.08-.585 1.035-.495 1.08-.45 1.08-.405 1.08-.36 1.08-.27 1.08-.27 1.125-.225 1.17-.18 1.215-.135 1.215-.09 1.305v1.125"/><path d="M127.53 108h.45v.225h-.45zm-58.815 71.775h.45V180h-.45z"/><path fill="none" stroke="#000" stroke-width=".45" stroke-miterlimit="10" d="M139.5 108.225v71.55"/><path d="M139.275 108h.45v.225h-.45zm0 71.775h.45V180h-.45z"/><path fill="none" stroke="#000" stroke-width=".45" stroke-miterlimit="10" d="M150.75 108.225l.045 1.08.045 1.26.135 1.215.18 1.17.225 1.125.225 1.08.315 1.08.36 1.08.36 1.035.45 1.035.495 1.035.54 1.08.63 1.035.675 1.08.765 1.08.855 1.125.945 1.17 1.125 1.215 1.26 1.305 1.485 1.395 1.755 1.53 2.16 1.71 2.835 2.025 4.185 2.79 20.835 12.87 2.835 2.025 2.16 1.71 1.755 1.53 1.485 1.395 1.26 1.305 1.125 1.215.945 1.17.855 1.125.765 1.08.675 1.08.63 1.035.54 1.08.495 1.035.405 1.035.405 1.035.36 1.08.315 1.08.225 1.08.225 1.125.18 1.17.135 1.215.045 1.26.045 1.08"/><path d="M150.525 108h.45v.225h-.45zm60.75 71.775h.45V180h-.45z"/><path fill="none" stroke="#3B48CC" stroke-width=".9" stroke-miterlimit="10" d="M31.5 19.8V18h1.8m-1.8 9v-3.6m0 10.8v-3.6m0 10.8v-3.6m0 10.8V45m0 10.8v-3.6m0 10.8v-3.6m0 10.8v-3.6m0 10.8v-3.6m0 10.8V81m0 10.8v-3.6m0 10.8v-3.6m0 10.8v-3.6m0 10.8v-3.6m0 10.8V117m0 10.8v-3.6m0 10.8v-3.6m0 10.8v-3.6m0 10.8v-3.6m0 10.8V153m0 10.8v-3.6m0 10.8v-3.6m0 10.8v-3.6m0 10.8v-3.6m0 10.8V189m0 10.8v-3.6m0 10.8v-3.6m0 10.8v-3.6m0 10.8v-3.6m0 10.8V225m1.8 9h-1.8v-1.8m9.045 1.8h-3.6m10.845 0h-3.6m10.845 0H51.39m10.89 0h-3.645m10.89 0H65.88m10.845 0h-3.6m10.845 0h-3.6m10.845 0h-3.6m10.845 0h-3.6m10.845 0h-3.645m10.89 0h-3.645m10.89 0h-3.645m10.89 0h-3.645m10.845 0h-3.6m10.845 0h-3.6m10.845 0h-3.6m10.845 0h-3.6m10.845 0h-3.645m10.89 0h-3.645m10.89 0h-3.645m10.845 0h-3.6m10.845 0h-3.6m10.845 0h-3.6m10.845 0h-3.6m10.845 0h-3.6m10.845 0h-3.645m10.89 0h-3.645m10.89 0h-3.645m10.845 0h-3.6m10.845 0h-3.6m10.845 0h-3.6m10.845 0h-3.6m10.845 0h-3.646m10.891 0h-3.646m10.891 0h-3.646m10.891 0h-3.646m10.846 0h-3.6m10.845 0h-3.6m10.845 0h-3.6m10.845 0h-3.6m10.845 0h-3.646m10.891 0h-3.646m10.891 0h-3.646m10.846 0h-3.6m10.845 0h-3.6m9.045-1.8v1.8h-1.8m1.8-9v3.6m0-10.8v3.601m0-10.801v3.601m0-10.801v3.6m0-10.8v3.6m0-10.8v3.6m0-10.8v3.601m0-10.801v3.601m0-10.801v3.6m0-10.8v3.6m0-10.8v3.6m0-10.8v3.601m0-10.801v3.601m0-10.801v3.6m0-10.8v3.6m0-10.8v3.6m0-10.8v3.6m0-10.8v3.6m0-10.8V99m0-10.8v3.6m0-10.8v3.6m0-10.8v3.6m0-10.8v3.6m0-10.8V63m0-10.8v3.6m0-10.8v3.6m0-10.8v3.6m0-10.8v3.6m0-10.8V27m-1.8-9h1.8v1.8m-9.045-1.8h3.6m-10.845 0h3.6m-10.845 0h3.646m-10.891 0h3.646m-10.891 0h3.646m-10.846 0h3.6m-10.845 0h3.6m-10.845 0h3.6m-10.845 0h3.6m-10.845 0h3.646m-10.891 0h3.646m-10.891 0h3.646m-10.891 0h3.646m-10.846 0h3.6m-10.845 0h3.6m-10.845 0h3.6m-10.845 0h3.6m-10.845 0h3.645m-10.89 0h3.645m-10.89 0h3.645m-10.845 0h3.6m-10.845 0h3.6M196.2 18h3.6m-10.845 0h3.6m-10.845 0h3.6m-10.845 0h3.645m-10.89 0h3.645m-10.89 0h3.645m-10.845 0h3.6m-10.845 0h3.6m-10.845 0h3.6m-10.845 0h3.6m-10.845 0h3.645m-10.89 0h3.645m-10.89 0h3.645m-10.89 0h3.645M94.86 18h3.6m-10.845 0h3.6M80.37 18h3.6m-10.845 0h3.6M65.88 18h3.645m-10.89 0h3.645m-10.89 0h3.645M44.19 18h3.6m-10.845 0h3.6"/><path fill="#3B48CC" d="M67.964 33.372v-6.919h1.91l1.569 5.259 1.57-5.259h1.9v6.919h-1.18v-5.459h-.14l-1.55 5.179h-1.199l-1.56-5.179h-.15v5.459zm10.369-.92c.89 0 1.08-.54 1.08-1.6 0-1.05-.27-1.55-1.08-1.55-.85 0-1.09.48-1.09 1.55 0 1.08.2 1.6 1.09 1.6zm0-4.189c1.66 0 2.24 1 2.24 2.589 0 1.61-.52 2.63-2.24 2.63s-2.25-1-2.25-2.63c0-1.6.56-2.589 2.25-2.589zm4.52 5.109h-1.14v-4.99h1.14v.25s.79-.37 1.34-.37c1.39 0 1.74.82 1.74 2.5v2.61h-1.14v-2.6c0-.95-.12-1.44-.82-1.44-.44 0-1.12.23-1.12.23v3.81zm6.199-2.57c.64 0 .92-.2.92-.78 0-.59-.26-.77-.91-.77-.6 0-.86.21-.86.77 0 .53.21.78.85.78zm.4 2.73c-.31 0-.97-.06-.97-.06-.25.22-.36.38-.36.67 0 .43.33.6 1.2.6.77 0 1.16-.18 1.16-.64-.001-.51-.24-.56-1.03-.57zm-.14 2.24c-1.5 0-2.32-.3-2.32-1.51 0-.5.23-.83.74-1.22-.21-.14-.33-.42-.33-.73 0-.23.37-.79.37-.79-.37-.23-.72-.61-.72-1.5 0-1.27.87-1.75 2.02-1.75.46 0 1.02.13 1.02.13l1.52-.03v.93h-.72c.11.15.21.35.21.72 0 1.53-1.01 1.84-2.49 1.7-.15.56-.36.82.93.82 1.609 0 2.1.35 2.1 1.5 0 1.24-1 1.73-2.33 1.73zm5.249-3.32c.89 0 1.08-.54 1.08-1.6 0-1.05-.27-1.55-1.08-1.55-.85 0-1.09.48-1.09 1.55 0 1.08.2 1.6 1.09 1.6zm0-4.189c1.66 0 2.24 1 2.24 2.589 0 1.61-.52 2.63-2.24 2.63-1.72 0-2.25-1-2.25-2.63.001-1.6.561-2.589 2.25-2.589zm7.459 4.159c.49 0 1.12-.22 1.12-.22v-2.81c-.05 0-.62-.09-1.04-.09-.69 0-1 .45-1 1.55 0 1.21.31 1.57.92 1.57zm2.27-6.049v7h-1.15v-.24s-.71.35-1.3.35c-1.33 0-1.9-.75-1.9-2.64 0-1.79.66-2.58 2.08-2.58.39 0 1.07.12 1.12.13v-2.02h1.15zm4.069 4.779c-.709.08-1.76-.12-1.76.7 0 .42.18.65.51.65.53 0 1.25-.2 1.25-.2v-1.15zm1.14-1.2v2.06c.01.35.12.45.41.5l-.04.97c-.78 0-1.04-.12-1.34-.35 0 0-.86.35-1.63.35-.95 0-1.45-.61-1.45-1.6 0-1.07.59-1.44 1.67-1.52l1.24-.1c.06-.55-.12-.9-.62-.9-.74 0-1.93.09-1.93.09l-.04-.97s1.29-.22 2.03-.22c1.1.001 1.7.461 1.7 1.69zm4.089-.539h-1.35v2.04c0 .69.02.95.52.95.28 0 .81-.03.81-.03l.05.98s-.67.14-1.02.14c-1.15 0-1.5-.44-1.5-1.88v-2.2h-.63v-1.03h.63v-1.45h1.14v1.45h1.35v1.03zm3.57 1.739c-.71.08-1.76-.12-1.76.7 0 .42.18.65.51.65.53 0 1.25-.2 1.25-.2v-1.15zm1.14-1.2v2.06c.01.35.12.45.41.5l-.04.97c-.78 0-1.04-.12-1.34-.35 0 0-.86.35-1.63.35-.95 0-1.45-.61-1.45-1.6 0-1.07.59-1.44 1.67-1.52l1.24-.1c.06-.55-.12-.9-.62-.9-.74 0-1.93.09-1.93.09l-.04-.97s1.29-.22 2.03-.22c1.1.001 1.7.461 1.7 1.69zm3.37 2.5c1.07 0 1.29-.46 1.29-1.64 0-1.1-.3-1.49-.94-1.49-.44 0-1.06.14-1.06.14v2.94s.52.05.71.05zm.5-4.189c1.36 0 1.95.68 1.95 2.55 0 2.08-.66 2.669-2.44 2.669-.52 0-1.86-.13-1.86-.13v-7.04h1.14v2.22c0 .001.68-.269 1.21-.269zm5.689 2.889c-.709.08-1.76-.12-1.76.7 0 .42.18.65.51.65.53 0 1.25-.2 1.25-.2v-1.15zm1.14-1.2v2.06c.01.35.12.45.41.5l-.04.97c-.78 0-1.04-.12-1.34-.35 0 0-.86.35-1.63.35-.95 0-1.45-.61-1.45-1.6 0-1.07.59-1.44 1.67-1.52l1.24-.1c.06-.55-.12-.9-.62-.9-.74 0-1.93.09-1.93.09l-.04-.97s1.29-.22 2.03-.22c1.1.001 1.7.461 1.7 1.69zm5.069-1.459l-.02.97s-1.2-.16-1.8-.16c-.59 0-.83.13-.83.51 0 .31.21.39 1.04.52 1.32.21 1.76.56 1.76 1.55 0 1.17-.76 1.6-1.99 1.6-.71 0-1.87-.22-1.87-.22l.04-.97s1.21.16 1.72.16c.7 0 .96-.14.96-.54 0-.32-.16-.41-.96-.54-1.28-.21-1.84-.49-1.84-1.53 0-1.14.89-1.58 1.89-1.58.73 0 1.9.23 1.9.23zm2.2 1.979h2.02c0-.87-.29-1.19-1-1.19s-1.02.361-1.02 1.19zm1.12 1.97c.79 0 1.84-.09 1.84-.09l.02.89s-1.14.24-2.03.24c-1.51 0-2.1-.79-2.1-2.55 0-1.82.78-2.669 2.17-2.669 1.42 0 2.13.73 2.13 2.28l-.08.82h-3.07c.01.729.31 1.079 1.12 1.079z"/><path fill="none" stroke="#000" stroke-width=".45" stroke-miterlimit="10" d="M257.58 108.225v1.485l-.135 1.62-.135 1.53-.225 1.44-.27 1.44-.315 1.35-.36 1.305-.405 1.26-.495 1.305-.54 1.215-.585 1.26-.63 1.215-.72 1.26-.81 1.305-.9 1.305-1.035 1.35-1.215 1.44-1.395 1.575-1.71 1.71-2.16 2.025-3.195 2.745-14.805 12.015-2.16 2.025-1.71 1.71-1.395 1.575-1.17 1.44-1.035 1.35-.945 1.305-.81 1.305-.72 1.26-.63 1.215-.585 1.26-.54 1.215-.45 1.305-.405 1.26-.405 1.305-.315 1.35-.27 1.44-.18 1.44-.18 1.53-.09 1.62-.045 1.485"/><path d="M257.355 108h.45v.225h-.45zm-46.08 71.775h.45V180h-.45z"/><path fill="#E5E5E5" d="M301.5 182.25c0-1.26.99-2.25 2.25-2.25h40.5c1.26 0 2.25.99 2.25 2.25v31.5c0 1.26-.99 2.25-2.25 2.25h-40.5c-1.26 0-2.25-.99-2.25-2.25v-31.5z"/><path d="M310.18 199.984c.67 0 1.42-.37 1.42-.37v-3.35c-.15-.021-.78-.11-1.181-.11-1.05 0-1.38.65-1.38 1.96 0 1.6.551 1.87 1.141 1.87zm2.17-6.41v7h-.75v-.33s-.771.43-1.521.43c-.97 0-1.789-.42-1.789-2.579 0-1.75.56-2.62 2.089-2.62.431 0 1.07.1 1.221.13v-2.031h.75zm2.129 4.21h2.601c0-1.2-.391-1.64-1.261-1.64-.86.001-1.34.47-1.34 1.64zm1.32 2.21c.75 0 1.83-.09 1.83-.09l.02.609s-1.13.16-1.939.16c-1.5 0-1.99-.87-1.99-2.569 0-1.9.83-2.63 2.1-2.63 1.511 0 2.19 1.109 1.971 2.92h-3.311c.009 1.05.329 1.6 1.319 1.6zm2.729-4.42h.781l1.2 4.36h.369l1.221-4.36h.759l-1.42 5h-1.5zm5.39-1.13v-.871h.74v.871h-.74zm0 6.13v-5h.74v5h-.74zm4.119-5.099c.461 0 1.36.149 1.36.149l-.02.65s-.801-.09-1.181-.09c-1.149 0-1.46.479-1.46 1.8 0 1.46.23 1.989 1.46 1.989.38 0 1.19-.09 1.19-.09l.029.65s-.939.14-1.39.14c-1.6 0-2.06-.729-2.06-2.689.003-1.809.583-2.509 2.072-2.509zm3.061 2.309h2.6c0-1.2-.391-1.64-1.26-1.64-.861.001-1.34.47-1.34 1.64zm1.319 2.21c.75 0 1.83-.09 1.83-.09l.02.609s-1.13.16-1.939.16c-1.5 0-1.99-.87-1.99-2.569 0-1.9.83-2.63 2.101-2.63 1.51 0 2.189 1.109 1.97 2.92h-3.31c.008 1.05.329 1.6 1.318 1.6zm5.989.62v-1.28h-3.209v-.62l1.88-4.739h.84l-1.84 4.629h2.329v-2.11h.771v2.11h.83v.73h-.83v1.28z"/><path fill="none" stroke="#000" stroke-width=".45" stroke-miterlimit="10" d="M271.125 108.225v1.26l.09 1.44.135 1.35.225 1.305.225 1.26.27 1.215.36 1.215.36 1.17.45 1.17.495 1.125.495 1.125.63 1.17.63 1.125.765 1.17.81 1.215.945 1.215 1.08 1.305 1.215 1.35 1.44 1.44 1.71 1.62 2.115 1.845 2.88 2.25 5.085 3.645 13.095 9.225 2.88 2.25 2.16 1.845 1.71 1.62 1.44 1.44 1.215 1.35 1.035 1.305.945 1.215.855 1.215.72 1.17.675 1.125.585 1.17.54 1.125.495 1.125.405 1.17.405 1.17.315 1.215.315 1.215.225 1.26.18 1.305.135 1.35.09 1.44.045 1.26"/><path d="M270.9 108h.449v.225h-.449zm52.875 71.775h.449V180h-.449zm-24.043-46.322l-1.131-.962c-.474-.389-.869-.346-1.23.015-.41.41-.452.82-.134 1.138.537.538 1.364.94 1.364.94l.565-.565.566-.566zm1.246-.198l-.87.87-.869.869c-.213.24-.113.481.084.735l-.48.438c-.424-.424-.572-.729-.565-1.103 0 0-.905-.368-1.576-1.04-.615-.615-.573-1.35.12-2.043.679-.679 1.329-.637 2.121.028l1.223 1.011c.615-.516.82-1.046.318-1.548-.517-.517-1.442-1.259-1.442-1.259l.438-.48s.989.707 1.534 1.251c.748.751.762 1.472-.036 2.271zm.282 4.355c.474.474 1.266.742 1.266.742l1.185-1.185 1.185-1.184c-.093-.12-.475-.63-.757-.912-.742-.742-1.436-.517-2.361.41-1.133 1.132-.935 1.712-.518 2.129zm6.066-2.998l-2.475 2.475-2.475 2.475-.53-.53.117-.116.116-.117s-.849-.24-1.379-.771c-.686-.686-.969-1.563.559-3.09 1.237-1.237 2.248-1.456 3.33-.374.305.304.686.827.771.954l.718-.718.718-.718.53.53zm-3.188 6.71l-.53-.53 1.768-1.768 1.768-1.768.53.53-.12.12-.12.12c.007-.063 1.216.48 1.563.982.24.34.382.637.354.948.282.127 1.109.474 1.598.961.961.962.735 1.654-.573 2.963l-.919.919-.919.919-.53-.53.838-.838.838-.838c1.082-1.081 1.371-1.513.7-2.185-.481-.48-1.23-.721-1.252-.729-.544.842-1.923 2.051-2.771 2.941l-.53-.53.912-.912.912-.912c.976-.976 1.195-1.393.552-2.036-.474-.474-1.209-.686-1.209-.686l-1.429 1.428-1.431 1.431zm9.87 1.202l.308-.308.308-.308.522.523-.308.307-.308.308-.522-.522zm-4.334 4.334l1.768-1.768 1.768-1.768.522.522-1.768 1.768-1.768 1.768-.522-.522zm2.241 2.242l-.53-.53 1.768-1.768 1.768-1.768.53.53-.117.116-.116.117s.897.29 1.399.792c.969.968.707 1.668-.58 2.955l-.919.919-.919.919-.523-.523.916-.915.915-.916c.94-.94 1.182-1.393.538-2.036-.467-.467-1.272-.749-1.272-.749l-1.429 1.428-1.429 1.429zm-132.377-18.932l-1.131-.962c-.474-.389-.87-.346-1.23.015-.41.41-.452.82-.134 1.139.538.537 1.365.939 1.365.939l.565-.565.565-.566zm1.244-.198l-.87.87-.87.869c-.212.241-.113.481.085.735l-.481.438c-.424-.424-.573-.729-.565-1.103 0 0-.905-.368-1.577-1.039-.615-.615-.573-1.351.12-2.044.679-.679 1.329-.636 2.121.028l1.223 1.011c.615-.516.82-1.046.318-1.548-.516-.517-1.442-1.259-1.442-1.259l.438-.48s.99.707 1.534 1.251c.751.751.765 1.472-.034 2.271zm.283 4.355c.474.474 1.266.742 1.266.742l1.184-1.184 1.185-1.185c-.092-.12-.474-.629-.757-.912-.742-.742-1.435-.516-2.361.41-1.132 1.132-.934 1.712-.517 2.129zm6.066-2.998l-2.475 2.475-2.475 2.475-.53-.53.117-.116.117-.117s-.849-.24-1.379-.771c-.686-.686-.968-1.563.559-3.09 1.237-1.237 2.249-1.456 3.33-.374.304.304.686.827.771.954l.718-.718.718-.718.529.53zm-3.189 6.71l-.53-.53 1.768-1.768 1.768-1.768.53.53-.12.12-.12.12c.007-.063 1.216.481 1.563.983.24.339.382.636.354.947.283.127 1.11.474 1.598.961.962.962.735 1.654-.573 2.963l-.919.919-.919.919-.53-.53.838-.838.837-.838c1.082-1.081 1.372-1.513.7-2.185-.481-.48-1.23-.721-1.251-.728-.544.841-1.923 2.05-2.771 2.94l-.53-.53.912-.912.912-.912c.976-.976 1.195-1.393.551-2.036-.474-.474-1.209-.686-1.209-.686l-1.428 1.429-1.431 1.43zm9.871 1.202l.308-.308.308-.308.523.523-.308.308-.308.308-.523-.523zm-4.334 4.334l1.768-1.768 1.768-1.768.523.523-1.768 1.768-1.768 1.768-.523-.523zm2.241 2.241l-.53-.53 1.768-1.768 1.768-1.768.53.53-.117.116-.117.117s.898.29 1.4.792c.969.969.707 1.668-.58 2.955l-.919.919-.919.919-.523-.522.916-.916.916-.916c.94-.939 1.181-1.393.537-2.036-.467-.466-1.272-.749-1.272-.749l-1.428 1.428-1.43 1.429zm29.476-6.44l.523-.523 1.768 1.768 1.768 1.768-.523.523-.113-.113-.113-.113s-.254.849-.75 1.344c-.99.989-1.647.742-2.956-.565l-.922-.923-.923-.923.523-.523.919.919.919.92c.976.976 1.379 1.209 2.043.544.467-.467.707-1.23.707-1.23l-1.435-1.435-1.435-1.438zm4.15-4.023l.445.475s-.898.671-1.351 1.124c-.438.438-.65.876-.233 1.294.332.332.594.269 1.4-.325 1.082-.785 1.612-.934 2.298-.248.827.827.58 1.626-.276 2.481-.453.453-1.379 1.11-1.379 1.11l-.431-.488s.926-.686 1.287-1.046c.58-.58.764-1.019.283-1.499-.368-.367-.637-.269-1.457.325-.997.729-1.548.94-2.241.248-.778-.778-.403-1.662.24-2.306.531-.53 1.415-1.145 1.415-1.145zm2.906.092l1.838-1.839c-.849-.849-1.436-.884-2.05-.269-.608.609-.615 1.281.212 2.108zm2.496.629c.53-.53 1.23-1.357 1.23-1.357l.445.417s-.686.912-1.258 1.484c-1.061 1.061-2.022.792-3.224-.41-1.343-1.343-1.272-2.445-.375-3.344 1.067-1.067 2.333-.764 3.457.672l-2.34 2.34c.75.735 1.365.898 2.065.198zm2.785-1.966l-1.768-1.768-1.768-1.768.53-.53.233.233.233.233s.134-.954.693-1.768l.276.276.276.275c-.538.792-.743 1.718-.743 1.718l1.283 1.283 1.283 1.283-.528.533z"/><path fill="#FFBBB1" d="M427.5 92.25c0-1.26.99-2.25 2.25-2.25h67.5c.9 0 2.25.99 2.25 2.25v67.5c0 1.26-1.35 2.25-2.25 2.25h-67.5c-1.26 0-2.25-.99-2.25-2.25v-67.5z"/><path d="M455.804 121.602l-1.441 5.264h3.583l-1.441-5.264h-.701zm-3.472 8.75l2.66-9.744h2.365l2.618 9.73h-1.063l-.742-2.437h-4.06l-.7 2.45h-1.078zm14.924-1.163l.042.98s-1.555.321-2.66.321c-2.898 0-3.542-1.777-3.542-4.983 0-3.29.686-5.04 3.542-5.04 1.273 0 2.674.322 2.674.322l-.056.966s-1.526-.238-2.506-.238c-2.17 0-2.549 1.302-2.549 3.99 0 2.632.364 3.934 2.576 3.934.869 0 2.479-.252 2.479-.252zm7.223 1.163h-5.333v-9.744h1.078v8.707h4.255v.519z"/><path fill="#BA141A" d="M409.5 38.34c-.045.36.225.72.72.99l10.98 5.31c.99.495 2.609.495 3.6 0l10.98-5.31c.495-.27.72-.63.72-.99v-3.06c0 .36-.225.675-.72.945L424.8 41.58c-.99.45-2.609.45-3.6 0l-10.98-5.355c-.54-.27-.81-.675-.675-1.035l-.045 3.15z"/><path fill="#BA141A" d="M435.78 34.515c.72.45.72 1.26 0 1.71L424.8 41.58c-.99.45-2.609.45-3.6 0l-10.98-5.355c-.944-.45-.944-1.26 0-1.71l10.98-5.355c.99-.495 2.609-.495 3.6 0l10.98 5.355z"/><path fill="#BA141A" d="M409.5 32.94c-.045.36.225.72.72.99l10.98 5.31c.99.495 2.609.495 3.6 0l10.98-5.31c.495-.27.72-.63.72-.99v-3.06c0 .36-.225.72-.72.945L424.8 36.18c-.99.45-2.609.45-3.6 0l-10.98-5.355c-.54-.27-.81-.675-.675-1.035l-.045 3.15z"/><path fill="#BA141A" d="M435.78 29.115c.72.45.72 1.26 0 1.71L424.8 36.18c-.99.45-2.609.45-3.6 0l-10.98-5.355c-.944-.45-.944-1.26 0-1.71l10.98-5.355c.99-.495 2.609-.495 3.6 0l10.98 5.355z"/><path fill="#BA141A" d="M409.5 27.54c-.045.36.225.72.72.99l10.98 5.31c.99.495 2.609.495 3.6 0l10.98-5.31c.495-.27.72-.63.72-.99v-3.015c0 .315-.225.675-.72.9L424.8 30.78c-.99.45-2.609.45-3.6 0l-10.98-5.355c-.54-.27-.81-.675-.675-1.035l-.045 3.15z"/><path fill="#93171B" d="M409.5 38.34c-.045.36.225.72.72.99l10.98 5.31c.99.495 2.609.495 3.6 0l10.98-5.31c.495-.27.72-.63.72-.99v-3.06c0 .36-.225.675-.72.945L424.8 41.58c-.99.45-2.609.45-3.6 0l-10.98-5.355c-.54-.27-.81-.675-.675-1.035l-.045 3.15z"/><path fill="#93171B" d="M409.5 32.94c-.045.36.225.72.72.99l10.98 5.31c.99.495 2.609.495 3.6 0l10.98-5.31c.495-.27.72-.63.72-.99v-3.06c0 .36-.225.72-.72.945L424.8 36.18c-.99.45-2.609.45-3.6 0l-10.98-5.355c-.54-.27-.81-.675-.675-1.035l-.045 3.15z"/><path fill="#93171B" d="M409.5 27.54c-.045.36.225.72.72.99l10.98 5.31c.99.495 2.609.495 3.6 0l10.98-5.31c.495-.27.72-.63.72-.99v-3.015c0 .315-.225.675-.72.9L424.8 30.78c-.99.45-2.609.45-3.6 0l-10.98-5.355c-.54-.27-.81-.675-.675-1.035l-.045 3.15z"/><path fill="#BA141A" d="M435.78 23.715c.72.45.72 1.26 0 1.71L424.8 30.78c-.99.45-2.609.45-3.6 0l-10.98-5.355c-.944-.45-.944-1.26 0-1.71l10.98-5.355c.99-.495 2.609-.495 3.6 0l10.98 5.355z"/><path fill="#FFF" d="M419.625 25.56c-1.26.675-3.285.675-4.545 0-1.26-.675-1.26-1.71 0-2.385 1.26-.675 3.285-.675 4.545 0 1.26.675 1.26 1.71 0 2.385zm-.855 1.71l6.435-.9-1.71 3.375z"/><path fill="#76191C" d="M428.85 26.415l-3.87-2.025 3.87-2.025z"/><path fill="#FFF" d="M421.785 21.915l-2.52-.27 2.205-.675-.27-1.35 1.89.945 2.34-.585-1.08 1.215 1.71 1.035-2.52-.18-1.26 1.17z"/><path fill="#93171B" d="M432.675 24.39l-3.825-2.025v4.05z"/><path fill="none" stroke="#BA141A" stroke-width=".9" stroke-miterlimit="10" d="M409.5 19.8V18h1.8m-1.8 9v-3.6m0 10.8v-3.6m0 10.8v-3.6m0 10.8V45m0 10.8v-3.6m0 10.8v-3.6m0 10.8v-3.6m0 10.8v-3.6m0 10.8V81m0 10.8v-3.6m0 10.8v-3.6m0 10.8v-3.6m0 10.8v-3.6m0 10.8V117m0 10.8v-3.6m0 10.8v-3.6m0 10.8v-3.6m0 10.8v-3.6m0 10.8V153m0 10.8v-3.6m0 10.8v-3.6m0 10.8v-3.6m0 10.8v-3.6m0 10.8V189m0 10.8v-3.6m0 10.8v-3.6m0 10.8v-3.6m0 10.8v-3.6m0 10.8V225m1.8 9h-1.8v-1.8m9 1.8h-3.6m10.8 0h-3.6m10.8 0h-3.6m10.8 0h-3.6m10.8 0h-3.6m10.8 0h-3.6m10.8 0h-3.6m10.8 0h-3.6m10.8 0h-3.6m10.8 0h-3.6m10.8 0h-3.6m10.8 0h-3.6m10.8 0h-3.6m10.8 0h-3.6m9-1.8v1.8h-1.8m1.8-9v3.6m0-10.8v3.601m0-10.801v3.601m0-10.801v3.6m0-10.8v3.6m0-10.8v3.6m0-10.8v3.601m0-10.801v3.601m0-10.801v3.6m0-10.8v3.6m0-10.8v3.6m0-10.8v3.601m0-10.801v3.601m0-10.801v3.6m0-10.8v3.6m0-10.8v3.6m0-10.8v3.6m0-10.8v3.6m0-10.8V99m0-10.8v3.6m0-10.8v3.6m0-10.8v3.6m0-10.8v3.6m0-10.8V63m0-10.8v3.6m0-10.8v3.6m0-10.8v3.6m0-10.8v3.6m0-10.8V27m-1.8-9h1.8v1.8m-9-1.8h3.6m-10.8 0h3.601M494.1 18h3.601M486.9 18h3.6m-10.8 0h3.6m-10.8 0h3.6m-10.8 0h3.601M458.1 18h3.601M450.9 18h3.6m-10.8 0h3.6m-10.8 0h3.6m-10.8 0h3.601M422.1 18h3.601M414.9 18h3.6"/><path fill="#BA141A" d="M454.371 30.397c0-.912-.443-1.355-1.355-1.355h-1.728v2.784h1.751c.973-.001 1.332-.577 1.332-1.429zM454.275 36l-1.14-2.831h-1.848V36h-1.403v-8.302h3.131c1.896 0 2.808.78 2.808 2.675 0 1.248-.456 1.967-1.309 2.387l1.309 3.24h-1.548zm3.948-3.479h2.423c0-1.044-.348-1.428-1.199-1.428-.853 0-1.224.432-1.224 1.428zm1.342 2.363c.948 0 2.208-.108 2.208-.108l.023 1.068s-1.367.288-2.435.288c-1.812 0-2.52-.948-2.52-3.059 0-2.184.936-3.203 2.604-3.203 1.703 0 2.555.875 2.555 2.735l-.096.983h-3.683c.013.876.373 1.296 1.344 1.296zm5.855-.024c.588 0 1.344-.264 1.344-.264v-3.372c-.06 0-.743-.108-1.247-.108-.828 0-1.2.54-1.2 1.859-.001 1.453.371 1.885 1.103 1.885zm2.724-7.258V36h-1.38v-.288s-.852.42-1.56.42c-1.596 0-2.279-.899-2.279-3.167 0-2.147.792-3.095 2.495-3.095.469 0 1.284.144 1.344.156v-2.423h1.38zm1.739 1.44V27.59h1.368v1.452h-1.368zm0 6.958v-5.986h1.368V36h-1.368zm7.366-5.854l-.023 1.164s-1.439-.192-2.159-.192c-.708 0-.996.156-.996.612 0 .372.252.468 1.248.624 1.583.252 2.111.672 2.111 1.859 0 1.404-.912 1.919-2.388 1.919-.852 0-2.243-.264-2.243-.264l.048-1.164s1.451.192 2.063.192c.84 0 1.151-.168 1.151-.648 0-.384-.191-.492-1.151-.648-1.536-.252-2.208-.588-2.208-1.835 0-1.368 1.068-1.896 2.268-1.896.876.001 2.279.277 2.279.277z"/><path fill="none" stroke="#000" stroke-width=".45" stroke-miterlimit="10" d="M365.175 126h54.945"/><path d="M364.95 125.775h.225v.45h-.225zm61.83.225l-6.435 2.07v-4.14z"/><path d="M420.57 127.755l5.49-1.755-5.489-1.755v3.51zM427.5 126l-7.38 2.385v-4.77L427.5 126z"/></svg>